<svg id="Layer_1" data-name="Layer 1" xmlns="http://www.w3.org/2000/svg" viewBox="0 0 64 80"><title>LOGOS-ALL</title><rect x="14" y="14" width="36.08" height="52" style="fill:#b2d235"/><path d="M32.8,25.41A21,21,0,0,0,19.42,42.1c-1.36,9.75,5,17.36,14.92,17.26,2.17,0,6.9-.49,9.08-1.42l2.15-12.85C43.32,47,40.84,48.34,38,48.36A5.78,5.78,0,0,1,32,41.68a8.26,8.26,0,0,1,7.8-6.8c2.78,0,5.08,1.6,6.84,3.45l1.81-13.06a43.06,43.06,0,0,0-8.79-1,42.49,42.49,0,0,0-6.86,1.16" style="fill:#fff"/><path d="M39.69,24.29a43.56,43.56,0,0,1,8.73,1c0,.1-1.77,12.71-1.79,12.91-2.23-2.31-4.47-3.43-6.8-3.41A8.34,8.34,0,0,0,32,41.65a5.82,5.82,0,0,0,6,6.72c2.52,0,4.93-1.06,7.53-3.21,0,.26-2.11,12.65-2.13,12.69-2.21,1-7,1.4-9,1.42a14.85,14.85,0,0,1-11.55-4.81,14.62,14.62,0,0,1-3.51-9.69,20.34,20.34,0,0,1,.18-2.7A20.89,20.89,0,0,1,32.8,25.43a47.46,47.46,0,0,1,6.88-1.14m0-.1a47.15,47.15,0,0,0-6.88,1.16h0A20.94,20.94,0,0,0,19.4,42.08a15.27,15.27,0,0,0,3.33,12.49A14.94,14.94,0,0,0,34.37,59.4c2.09,0,6.88-.47,9.1-1.44l0,0,2.17-13-.1.1c-2.64,2.19-5,3.25-7.57,3.27a5.92,5.92,0,0,1-4.55-1.93,5.79,5.79,0,0,1-1.36-4.67,8.22,8.22,0,0,1,7.74-6.76c2.36,0,4.57,1.12,6.8,3.45l.06.08L48.5,25.25l-.06,0a42.39,42.39,0,0,0-8.75-1" style="fill:#fff"/><path d="M31.85,24.76A21,21,0,0,0,18.47,41.45c-1.36,9.75,5,17.36,14.92,17.26,2.17,0,6.92-.49,9.08-1.44l2.15-12.85c-2.25,1.89-4.71,3.25-7.61,3.27A5.78,5.78,0,0,1,31.06,41a8.28,8.28,0,0,1,7.8-6.8c2.78,0,5.08,1.6,6.84,3.45L47.5,24.6a37.22,37.22,0,0,0-8.28-1.28,39.51,39.51,0,0,0-7.37,1.44" style="fill:#ed1d24"/><polygon points="25.27 26.75 24.48 32.35 27.08 32.34 27.85 26.73 25.27 26.75"/><path d="M28.13,25c.2-.73-.32-1.24-1.14-1.24A1.58,1.58,0,0,0,25.35,25a1.14,1.14,0,0,0,1.26,1.34A1.48,1.48,0,0,0,28.13,25"/><path d="M18.2,24.44,17,32.31l3.72,0c1.34,0,2.88-.55,3.09-2.09a1.75,1.75,0,0,0-1.06-2A1.9,1.9,0,0,0,24,26.65c.18-1.87-1.26-2.27-2.7-2.25Zm2.31,3.09h-.2l.08-1.14h.2c.41,0,.93-.1.83.51s-.51.63-.91.63m-.69,2.9L20,29.19h.3c.41,0,1.14,0,1,.61s-.71.63-1.24.63h-.28"/><path d="M34.41,31.95l.77-5.28-2.58,0v.83h-.1a1.34,1.34,0,0,0-1.36-.91,3.13,3.13,0,0,0-2.76,2.92c-.2,1.34.43,2.9,1.89,2.88a2.12,2.12,0,0,0,1.75-1l-.1.51a1.35,1.35,0,0,1-1.32,1.26,2.63,2.63,0,0,1-1.77-.61L28,34.49l.2.1a5.24,5.24,0,0,0,2.17.41c1.87,0,3.72-.87,4-3m-2.8-1.73a.58.58,0,0,1-.63-.71c.1-.43.41-.83.81-.83a.61.61,0,0,1,.53.83.72.72,0,0,1-.71.71"/><polygon points="24.64 25.86 23.87 31.46 26.34 31.44 27.12 25.84 24.64 25.86" style="fill:#fd0"/><path d="M27.5,24.07c.1-.73-.43-1.24-1.26-1.24a1.48,1.48,0,0,0-1.54,1.26c-.2.93.43,1.34,1.16,1.34a1.49,1.49,0,0,0,1.64-1.36" style="fill:#fd0"/><path d="M17.49,23.54l-1.08,7.88,3.72,0c1.34,0,2.78-.55,3.09-2.09a1.67,1.67,0,0,0-1.16-1.95,1.92,1.92,0,0,0,1.22-1.66c.3-1.77-1.16-2.17-2.6-2.15Zm2.4,3.09h-.3l.2-1.14H20c.41,0,.93-.12.83.51s-.53.63-.93.63m-.69,2.9.2-1.24h.3c.43,0,1.14,0,1,.61s-.81.63-1.24.63h-.3" style="fill:#fd0"/><path d="M31,29.33c-.53,0-.73-.3-.63-.71a.88.88,0,0,1,.81-.83.61.61,0,0,1,.53.83c-.1.39-.3.69-.71.71m2.8,1.73.67-5.28L32,25.8v.83h-.1a1.44,1.44,0,0,0-1.44-.91c-1.44,0-2.48,1.46-2.66,2.92s.45,2.9,1.89,2.88a1.84,1.84,0,0,0,1.64-1h.1l-.1.53a1.45,1.45,0,0,1-1.44,1.26,2.87,2.87,0,0,1-1.77-.61l-.81,1.87.32.08a6.77,6.77,0,0,0,2.17.39c1.85,0,3.7-.85,4-3" style="fill:#fd0"/><path d="M17.9,22.2l.12-.77h-.61l-.14.79a.13.13,0,0,1-.12.12c-.06,0-.08-.06-.08-.12l.14-.79H16.6l-.12.77c-.06.35.3.49.63.49s.73-.16.79-.49" style="fill:#fff"/><polygon points="18.1 21 16.7 21 16.66 21.23 18.06 21.21 18.1 21" style="fill:#fff"/><path d="M17.7,20.84h.43l0-.22-.18,0a.21.21,0,0,0-.2-.26.38.38,0,0,0-.32.14.24.24,0,0,0-.26-.14.35.35,0,0,0-.28.45h.22c0-.24.28-.26.2,0h.16c0-.24.28-.26.2,0" style="fill:#fff"/><path d="M18.91,21.39c-.32,0-.73.16-.79.49l-.14.77h.61l.14-.79a.13.13,0,0,1,.12-.12.09.09,0,0,1,.08.12l-.14.79h.63l.12-.77c.06-.35-.3-.49-.63-.49" style="fill:#fff"/><path d="M20.5,21.9l-.06.3a.12.12,0,0,1-.12.12.09.09,0,0,1-.08-.12l.06-.3c0-.1.14-.12.14-.2l.06-.3a.8.8,0,0,1-.37.08,1,1,0,0,1-.35-.06l0,.18s.1,0,.12,0-.16.16-.2.3l-.06.3c-.06.3.22.47.63.45s.75-.16.79-.47l0-.26c0-.16-.1-.16-.1-.16v0a.2.2,0,0,0,.16-.18l0-.3h-.59l-.06.41c0,.1-.08.12-.08.12a.11.11,0,0,1,.06.12" style="fill:#fff"/><polygon points="19.87 21 19.85 21.21 21.25 21.19 21.29 20.88 20.74 20.88 20.72 21 19.87 21" style="fill:#fff"/></svg>