<svg id="Layer_1" data-name="Layer 1" xmlns="http://www.w3.org/2000/svg" width="232.76" height="80" viewBox="0 0 232.76 80"><title>LOGOS-ALL</title><path id="path14499" d="M52.17,18c-2.4-2.74-6.74-3.91-12.3-3.91H23.76A2.31,2.31,0,0,0,21.48,16L14.76,58.58a1.38,1.38,0,0,0,1.37,1.6h10l2.5-15.85-.08.5a2.3,2.3,0,0,1,2.27-1.95h4.73c9.29,0,16.57-3.77,18.69-14.69q.09-.48.17-.94h0c.63-4,0-6.78-2.19-9.27" style="fill:#003087"/><path id="path14519" d="M155,38.11h-5.36a1.54,1.54,0,0,0-1.28.68L141,49.67l-3.13-10.46a1.55,1.55,0,0,0-1.48-1.1h-5.26a.93.93,0,0,0-.88,1.23l5.9,17.31-5.55,7.83a.93.93,0,0,0,.76,1.46h5.35a1.55,1.55,0,0,0,1.27-.66l17.81-25.71a.93.93,0,0,0-.76-1.46M119.19,48.48a5.94,5.94,0,0,1-6,5.09,4.13,4.13,0,0,1-4.41-5.18,6,6,0,0,1,6-5.13,4.49,4.49,0,0,1,3.55,1.45,4.59,4.59,0,0,1,.9,3.77m7.43-10.37h-5.33a.93.93,0,0,0-.92.78l-.23,1.49-.37-.54c-1.16-1.67-3.73-2.24-6.3-2.24-5.89,0-10.92,4.46-11.89,10.72a10.06,10.06,0,0,0,2,8.19,8.34,8.34,0,0,0,6.71,2.71,10.2,10.2,0,0,0,7.38-3l-.24,1.48a.93.93,0,0,0,.92,1.07h4.8a1.55,1.55,0,0,0,1.53-1.3l2.88-18.24a.93.93,0,0,0-.92-1.07m-32,.13c-.61,4-3.66,4-6.61,4H86.35l1.18-7.46a.93.93,0,0,1,.92-.78h.77c2,0,3.91,0,4.88,1.14a3.71,3.71,0,0,1,.54,3.1M93.35,27.81H82.22a1.55,1.55,0,0,0-1.53,1.31l-4.5,28.54a.93.93,0,0,0,.92,1.07h5.31A1.55,1.55,0,0,0,84,57.42l1.22-7.7a1.55,1.55,0,0,1,1.53-1.31h3.52c7.33,0,11.56-3.55,12.67-10.58.5-3.07,0-5.49-1.42-7.18-1.58-1.86-4.39-2.84-8.11-2.84" style="fill:#002f86"/><path id="path14523" d="M212.27,28.59,207.7,57.65a.93.93,0,0,0,.92,1.07h4.59a1.55,1.55,0,0,0,1.53-1.31l4.5-28.54a.93.93,0,0,0-.92-1.07h-5.14a.93.93,0,0,0-.92.78M198.56,48.48a5.94,5.94,0,0,1-6,5.09,4.13,4.13,0,0,1-4.41-5.18,6,6,0,0,1,6-5.13,4.49,4.49,0,0,1,3.55,1.45,4.59,4.59,0,0,1,.9,3.77M206,38.1h-5.33a.93.93,0,0,0-.92.78l-.23,1.49-.37-.54c-1.15-1.67-3.73-2.24-6.29-2.24-5.89,0-10.92,4.46-11.89,10.72a10.06,10.06,0,0,0,2,8.19,8.34,8.34,0,0,0,6.71,2.71,10.2,10.2,0,0,0,7.38-3l-.24,1.48a.93.93,0,0,0,.92,1.07h4.8a1.55,1.55,0,0,0,1.53-1.3l2.88-18.24A.93.93,0,0,0,206,38.1m-32,.13c-.61,4-3.66,4-6.61,4h-1.68l1.18-7.46a.93.93,0,0,1,.92-.78h.77c2,0,3.91,0,4.88,1.14a3.71,3.71,0,0,1,.54,3.1m-1.28-10.42H161.6a1.55,1.55,0,0,0-1.53,1.31l-4.5,28.54a.93.93,0,0,0,.92,1.07h5.71a1.08,1.08,0,0,0,1.07-.91l1.28-8.09a1.55,1.55,0,0,1,1.53-1.31h3.52c7.33,0,11.56-3.55,12.67-10.58.5-3.07,0-5.49-1.42-7.18-1.58-1.86-4.39-2.84-8.11-2.84" style="fill:#009cde"/><path id="path14527" d="M52.17,18c-2.4-2.74-6.74-3.91-12.3-3.91H23.76A2.31,2.31,0,0,0,21.48,16L14.76,58.58a1.38,1.38,0,0,0,1.37,1.6h10l2.5-15.85-.08.5a2.3,2.3,0,0,1,2.27-1.95h4.73c9.29,0,16.57-3.77,18.69-14.69q.09-.48.17-.94h0c.63-4,0-6.78-2.19-9.27" style="fill:#003087"/><path id="path14531" d="M31.27,27.3a2,2,0,0,1,2-1.7H45.9a26.39,26.39,0,0,1,4.17.3q.55.09,1.06.2t1,.26l.48.15a11.42,11.42,0,0,1,1.75.74c.63-4,0-6.78-2.19-9.27-2.4-2.74-6.74-3.91-12.3-3.91H23.76A2.31,2.31,0,0,0,21.48,16L14.76,58.58a1.38,1.38,0,0,0,1.37,1.6h10l2.5-15.85,2.69-17Z" style="fill:#002f86"/><path id="path14535" d="M54.36,27.24h0c0,.31-.1.62-.17.94C52.07,39.1,44.8,42.88,35.51,42.88H30.78a2.3,2.3,0,0,0-2.27,1.95L26.08,60.18l-.69,4.36a1.21,1.21,0,0,0,1.2,1.4H35a2,2,0,0,0,2-1.7l.08-.43,1.58-10,.1-.55a2,2,0,0,1,2-1.7H42c8.13,0,14.49-3.3,16.35-12.85.78-4,.37-7.32-1.68-9.66a8,8,0,0,0-2.3-1.77" style="fill:#009cde"/><path id="path14539" d="M52.14,26.36q-.49-.14-1-.26c-.34-.08-.7-.14-1.06-.2a26.23,26.23,0,0,0-4.17-.3H33.26a2,2,0,0,0-2,1.7l-2.69,17-.08.5a2.3,2.3,0,0,1,2.27-1.95h4.73c9.29,0,16.57-3.77,18.69-14.69.06-.32.12-.64.17-.94a11.48,11.48,0,0,0-1.75-.74l-.48-.15" style="fill:#012069"/></svg>