<?xml version="1.0" encoding="UTF-8"?>
<svg width="85px" height="78px" viewBox="0 0 85 78" version="1.1" xmlns="http://www.w3.org/2000/svg" xmlns:xlink="http://www.w3.org/1999/xlink">
    <!-- Generator: Sketch 50.2 (55047) - http://www.bohemiancoding.com/sketch -->
    <title>logo-award-sundaytimes</title>
    <desc>Created with Sketch.</desc>
    <defs></defs>
    <g id="Designs---MVP" stroke="none" stroke-width="1" fill="none" fill-rule="evenodd">
        <g id="Assets" transform="translate(-94.000000, -313.000000)" fill="#A2B1C5" fill-rule="nonzero">
            <g id="awards-logo-2018-Best-Companies" transform="translate(96.000000, 315.000000)">
                <path d="M35.0886589,38.1439648 L35.0886589,37.6009062 C35.0886589,36.3967327 34.2380738,35.8064516 32.4518452,35.8064516 L29.6732673,35.8064516 L29.6732673,43.7634409 L32.5085509,43.7634409 C34.3231323,43.7634409 35.2871287,43.2439935 35.2871287,41.7564851 L35.2871287,41.2370377 C35.2871287,40.2453655 34.6633663,39.7495294 33.6426643,39.5842507 C34.4932493,39.418972 35.0886589,38.9939696 35.0886589,38.1439648 Z M31.8847885,37.1286813 L32.2250225,37.1286813 C32.7070207,37.1286813 32.9338434,37.2467375 32.9338434,37.7897961 L32.9338434,38.2856322 C32.9338434,38.8050796 32.7353735,38.9703583 32.2250225,38.9703583 L31.8847885,38.9703583 L31.8847885,37.1286813 Z M33.0189019,41.5912064 C33.0189019,42.2050988 32.820432,42.4175999 32.2533753,42.4175999 L32.2533753,42.4412112 L31.8564356,42.4412112 L31.8564356,40.2217543 L32.2250225,40.2217543 C32.7920792,40.2217543 33.0189019,40.387033 33.0189019,41.0245365 L33.0189019,41.5912064 Z" id="Shape"></path>
                <polygon id="Shape" points="39.999385 37.2747056 39.999385 35.8064516 36.0891089 35.8064516 36.0891089 43.7634409 40.0990099 43.7634409 40.0990099 42.2715054 38.0816063 42.2715054 38.0816063 40.2822581 39.6008856 40.2822581 39.6008856 38.8850486 38.0816063 38.8850486 38.0816063 37.2747056"></polygon>
                <path d="M40.9009901,41.048839 L40.9009901,41.3279102 C40.9009901,43.103818 42.0180339,43.7634409 43.7365629,43.7634409 C45.5410184,43.7634409 46.5148515,42.9515973 46.5148515,41.3786505 L46.5148515,41.2010597 C46.5148515,39.5266324 45.4550919,38.9684899 44.3666902,38.3342372 C43.56471,37.8775752 43.2496464,37.6999844 43.2496464,37.141842 L43.2496464,37.0911018 C43.2496464,36.68518 43.3928571,36.5075892 43.7079208,36.5075892 C43.9943423,36.5075892 44.2234795,36.6344398 44.2234795,37.1925822 L44.2234795,37.5477638 L46.3716407,37.5477638 L46.3716407,37.2686925 C46.3429986,35.7211158 45.3978076,35.0107527 43.6792786,35.0107527 C41.9607496,35.0107527 40.9869165,35.771856 40.9869165,37.2433224 L40.9869165,37.2940626 C40.9869165,38.6894187 41.645686,39.3490416 42.9632249,40.1101449 C43.7079208,40.5414368 44.2234795,40.7951379 44.2234795,41.4547608 L44.2234795,41.5562412 C44.2234795,42.0129032 44.0802687,42.2158641 43.7079208,42.2158641 C43.3069307,42.2158641 43.1350778,42.0382733 43.1350778,41.4040206 L43.1350778,41.048839 L40.9009901,41.048839 Z" id="Shape"></path>
                <polygon id="Shape" points="47.8859789 43.7634409 49.9556052 43.7634409 49.9556052 37.2747056 51.3267327 37.2747056 51.3267327 35.8064516 46.5148515 35.8064516 46.5148515 37.2747056 47.8859789 37.2747056"></polygon>
                <path d="M17.2976121,45.3548387 C15.6464764,45.3548387 14.4356436,46.1872269 14.4356436,47.9528989 L14.4356436,51.4590189 C14.4356436,53.2499148 15.5364007,54.082303 17.2976121,54.1075269 C18.9762667,54.1075269 20.049505,53.3760342 20.049505,51.6103622 L20.049505,51.3581234 L17.9030285,51.3581234 L17.9030285,51.6103622 C17.9030285,52.2661833 17.6828771,52.4679743 17.2976121,52.4679743 C16.8297903,52.4679743 16.6646768,52.2157355 16.6646768,51.5094667 L16.6646768,47.8772272 C16.6646768,47.1961823 16.8573093,46.9691674 17.2700932,46.9691674 C17.6828771,46.9691674 17.8479907,47.1457346 17.8479907,47.8015556 L17.8479907,47.9528989 L20.049505,47.9528989 L20.049505,47.8520033 C20.021986,45.9854358 18.9487478,45.3548387 17.2976121,45.3548387 Z" id="Shape"></path>
                <path d="M26.4653465,51.4842428 L26.4653465,47.927675 C26.4653465,46.0863314 25.326686,45.3548387 23.6584158,45.3548387 C22.0695871,45.3548387 20.8514851,46.1367792 20.8514851,47.927675 L20.8514851,51.5094667 C20.8514851,53.3003626 21.9371848,54.082303 23.6584158,54.1075269 C25.3531664,54.1075269 26.4653465,53.3003626 26.4653465,51.4842428 Z M23.0228844,51.4842428 L23.0228844,47.8772272 C23.0228844,47.1961823 23.2347282,46.9439435 23.6584158,46.9439435 C24.0821035,46.9439435 24.2939473,47.1961823 24.2939473,47.8772272 L24.2939473,51.4842428 C24.2939473,52.1905116 24.0821035,52.4427505 23.6584158,52.4427505 C23.2347282,52.4427505 23.0228844,52.1905116 23.0228844,51.4842428 Z" id="Shape"></path>
                <polygon id="Shape" points="31.0902047 53.311828 32.2884201 48.5992063 32.2884201 53.311828 34.4851485 53.311828 34.4851485 45.3548387 31.6607835 45.3548387 30.8619732 49.0491551 30.0346339 45.3548387 27.2673267 45.3548387 27.2673267 53.311828 29.1787657 53.311828 29.1787657 48.5992063 30.3769812 53.311828"></polygon>
                <path d="M35.2871287,53.311828 L37.2816909,53.311828 L37.2816909,50.2095494 L37.6806033,50.2095494 C39.3759811,50.2095494 40.0990099,49.6885561 40.0990099,48.2913466 L40.0990099,47.3914491 C40.0990099,46.0416027 39.5255733,45.3548387 37.6307392,45.3548387 L35.2871287,45.3548387 L35.2871287,53.311828 Z M37.2816909,46.7520481 L37.5808752,46.7520481 C38.0296517,46.7520481 38.1792438,46.9178187 38.1792438,47.4151306 L38.1792438,48.2203021 C38.1792438,48.7412954 38.0047196,48.9070661 37.5808752,48.9070661 L37.5808752,48.8833845 L37.2816909,48.8833845 L37.2816909,46.7520481 Z" id="Shape"></path>
                <path d="M41.9788809,53.311828 L42.1848942,51.7725294 L43.4209737,51.7725294 L43.626987,53.311828 L45.7128713,53.311828 L44.3737851,45.3548387 L41.4380961,45.3548387 L40.0990099,53.311828 L41.9788809,53.311828 Z M42.802934,47.0599078 L43.2407121,50.4700461 L42.3394041,50.4700461 L42.802934,47.0599078 Z" id="Shape"></path>
                <polygon id="Shape" points="52.1287129 45.3548387 50.2210901 45.3548387 50.2210901 49.2622888 48.8312506 45.3548387 46.5148515 45.3548387 46.5148515 53.311828 48.3952225 53.311828 48.3952225 48.6702509 50.0848313 53.311828 52.1287129 53.311828"></polygon>
                <rect id="Rectangle-path" x="52.9306931" y="45.3548387" width="2.40594059" height="7.95698925"></rect>
                <polygon id="Shape" points="58.1311112 49.8306452 59.6503905 49.8306452 59.6503905 48.4334357 58.1311112 48.4334357 58.1311112 46.8230927 60.04889 46.8230927 60.04889 45.3548387 56.1386139 45.3548387 56.1386139 53.311828 60.1485149 53.311828 60.1485149 51.8198925 58.1311112 51.8198925"></polygon>
                <path d="M64.4161952,48.6783232 C63.614215,48.2216612 63.2991513,48.0440704 63.2991513,47.485928 L63.2991513,47.4351878 C63.2991513,47.029266 63.4423621,46.8516752 63.7574257,46.8516752 C64.0438472,46.8516752 64.2729844,46.9785258 64.2729844,47.5366682 L64.2729844,47.8918498 L66.4211457,47.8918498 L66.4211457,47.6127786 C66.3925035,46.0652018 65.4473126,45.3548387 63.7287836,45.3548387 C62.0102546,45.3548387 61.0364215,46.115942 61.0364215,47.5874084 L61.0364215,47.6381487 C61.0364215,49.0335048 61.6951909,49.6931276 63.0127298,50.4542309 C63.7574257,50.8855228 64.2729844,51.1392239 64.2729844,51.7988468 L64.2729844,51.9003273 C64.2729844,52.3569892 64.1297737,52.5599501 63.7574257,52.5599501 C63.3564356,52.5599501 63.1845827,52.3823594 63.1845827,51.7481066 L63.1845827,51.392925 L60.950495,51.392925 L60.950495,51.6719963 C60.950495,53.447904 62.0675389,54.1075269 63.7860679,54.1075269 C65.5905233,54.1075269 66.5643564,53.2956833 66.5643564,51.7227365 L66.5643564,51.5451457 C66.5643564,49.8707184 65.5045969,49.312576 64.4161952,48.6783232 Z" id="Shape"></path>
                <polygon id="Shape" points="22.4554455 55.793749 23.3548626 55.793749 23.3848432 55.793749 23.3848432 59.6774194 24.7639493 59.6774194 24.7639493 55.793749 25.6633663 55.793749 25.6633663 54.9032258 22.4554455 54.9032258"></polygon>
                <path d="M27.2673267,54.9032258 C26.3470216,54.9032258 25.6633663,55.3350624 25.6633663,56.3186902 L25.6633663,58.2859459 C25.6633663,59.2455828 26.2944327,59.6774194 27.2673267,59.6774194 C28.2402207,59.6774194 28.8712871,59.2215918 28.8712871,58.237964 L28.8712871,56.2946993 C28.8712871,55.2870806 28.2139263,54.9032258 27.2673267,54.9032258 Z M27.6354488,58.2619549 C27.6354488,58.6698006 27.5039766,58.7897552 27.2673267,58.7897552 C27.0043824,58.7897552 26.8992047,58.6458097 26.8992047,58.2619549 L26.8992047,56.2946993 C26.8992047,55.9348355 27.0306768,55.7908899 27.2673267,55.7908899 C27.5039766,55.7908899 27.6354488,55.9348355 27.6354488,56.2946993 L27.6354488,58.2619549 Z" id="Shape"></path>
                <polygon id="Shape" points="33.8380963 57.7232158 33.3733123 54.9032258 32.4710846 54.9032258 32.0336409 57.698479 31.7328983 54.9032258 30.4752475 54.9032258 31.1860936 59.6774194 32.4984248 59.6774194 32.9358686 57.0800602 33.3733123 59.6774194 34.5762826 59.6774194 35.2871287 54.9032258 34.1388389 54.9032258"></polygon>
                <path d="M36.0891089,56.3186902 L36.0891089,58.2859459 C36.0891089,59.2455828 36.7201753,59.6774194 37.6930693,59.6774194 C38.6659633,59.6774194 39.2970297,59.2215918 39.2970297,58.237964 L39.2970297,56.2946993 C39.2970297,55.2870806 38.6396689,54.9032258 37.6930693,54.9032258 C36.7727642,54.9032258 36.0891089,55.3350624 36.0891089,56.3186902 Z M38.0611914,56.2946993 L38.0611914,58.2619549 C38.0611914,58.6698006 37.9297192,58.7897552 37.6930693,58.7897552 C37.430125,58.7897552 37.3249472,58.6458097 37.3249472,58.2619549 L37.3249472,56.2946993 C37.3249472,55.9348355 37.4564194,55.7908899 37.6930693,55.7908899 C37.9297192,55.7908899 38.0611914,55.9348355 38.0611914,56.2946993 Z" id="Shape"></path>
                <path d="M43.3069307,59.6774194 L42.681658,57.5610243 C43.0078872,57.3887596 43.1710018,57.1426671 43.1710018,56.625873 L43.1710018,56.1090788 C43.1710018,55.2969737 42.7904011,54.9032258 41.621413,54.9032258 L40.1261957,54.9032258 L40.0990099,54.9032258 L40.0990099,59.6774194 L41.3495553,59.6774194 L41.3495553,57.733289 L41.5126699,57.733289 L42.0291995,59.6774194 L43.3069307,59.6774194 Z M42.0020138,56.6012637 C42.0020138,56.9211839 41.8660849,57.0196209 41.5942272,57.0196209 L41.4039268,57.0196209 L41.4039268,55.7645494 L41.621413,55.7645494 C41.8932707,55.7645494 42.0020138,55.8875956 42.0020138,56.1582973 L42.0020138,56.6012637 Z" id="Shape"></path>
                <polygon id="Shape" points="45.531779 57.1047969 46.4631108 54.9032258 45.2730757 54.9032258 44.4969658 56.7832191 44.4969658 54.9032258 43.3069307 54.9032258 43.3069307 59.6774194 44.4969658 59.6774194 44.4969658 57.599532 45.2472054 59.6774194 46.5148515 59.6774194"></polygon>
                <polygon id="Shape" points="51.3267327 55.793749 51.3267327 54.9032258 48.947231 54.9032258 48.9207921 54.9032258 48.9207921 59.6774194 50.1369818 59.6774194 50.1369818 57.8468995 51.1152214 57.8468995 51.1152214 56.9811132 50.1369818 56.9811132 50.1369818 55.793749"></polygon>
                <path d="M52.9306931,54.9032258 C52.0103879,54.9032258 51.3267327,55.3350624 51.3267327,56.3186902 L51.3267327,58.2859459 C51.3267327,59.2455828 51.9577991,59.6774194 52.9306931,59.6774194 C53.9035871,59.6774194 54.5346535,59.2215918 54.5346535,58.237964 L54.5346535,56.2946993 C54.5346535,55.2870806 53.8772926,54.9032258 52.9306931,54.9032258 Z M53.2988151,58.2619549 C53.2988151,58.6698006 53.167343,58.7897552 52.9306931,58.7897552 C52.6677487,58.7897552 52.562571,58.6458097 52.562571,58.2619549 L52.562571,56.2946993 C52.562571,55.9348355 52.6940432,55.7908899 52.9306931,55.7908899 C53.167343,55.7908899 53.2988151,55.9348355 53.2988151,56.2946993 L53.2988151,58.2619549 Z" id="Shape"></path>
                <path d="M58.4074638,56.625873 L58.4074638,56.1090788 C58.4074638,55.2969737 58.0236101,54.9032258 56.8446306,54.9032258 L55.3366337,54.9032258 L55.3366337,59.6774194 L56.5978675,59.6774194 L56.5978675,57.733289 L56.7623762,57.733289 L57.2833206,59.6774194 L58.5445545,59.6774194 L57.9139375,57.5610243 C58.2429551,57.3887596 58.4074638,57.1426671 58.4074638,56.625873 Z M57.2010663,56.6012637 C57.2010663,56.9211839 57.0639756,57.0196209 56.7897944,57.0196209 L56.5978675,57.0196209 L56.5978675,55.7645494 L56.8172125,55.7645494 C57.0913938,55.7645494 57.2010663,55.8875956 57.2010663,56.1582973 L57.2010663,56.6012637 Z" id="Shape"></path>
                <path d="M31.6219622,62.0645161 C29.7790279,62.0645161 28.8717372,62.9090738 28.8717372,64.5470037 L28.8717372,64.6237817 L31.0265527,64.6237817 L31.0265527,64.5214111 C31.0265527,63.8815947 31.1966697,63.7024461 31.5369037,63.7024461 C31.8487849,63.7024461 31.9905491,63.8815947 31.9905491,64.3934478 L31.9905491,64.7261523 C31.9905491,65.5707099 31.6786679,66.2105263 30.7713771,67.5413444 L28.6732673,70.5612777 L28.7016202,70.5612777 L28.7016202,70.8172043 L34.2871287,70.8172043 L34.2871287,69.204867 L32.0756076,69.204867 L32.8694869,68.0531975 C33.8618362,66.5688235 34.2871287,65.7242659 34.2871287,64.6493743 L34.2871287,64.2910772 C34.2871287,62.8834811 33.4648965,62.0645161 31.6219622,62.0645161 Z" id="Shape"></path>
                <path d="M38.0940594,62.0645161 C36.4979616,62.0645161 35.2871287,62.84866 35.2871287,64.6446024 L35.2871287,68.2617822 C35.2871287,70.1083146 36.3878858,70.8418685 38.0665405,70.8165736 C39.772714,70.8165736 40.9009901,70.0324297 40.9009901,68.1858973 L40.9009901,64.6193075 C40.9009901,62.7474801 39.7176762,62.0645161 38.0940594,62.0645161 Z M38.6994758,68.2364873 C38.6994758,68.9447462 38.5068433,69.1976959 38.0940594,69.2229908 C37.6812755,69.2229908 37.488643,68.9700412 37.488643,68.2364873 L37.488643,64.6193075 C37.488643,63.9110485 37.6812755,63.6833938 38.0940594,63.6833938 C38.5068433,63.6833938 38.6994758,63.9363434 38.6994758,64.6193075 L38.6994758,68.2364873 Z" id="Shape"></path>
                <polygon id="Shape" points="41.5295692 63.0496672 41.5295692 64.8865847 42.6743105 64.1518177 42.6743105 70.8172043 45.0842922 70.8172043 45.0842922 62 43.005683 62"></polygon>
                <path d="M50.0508551,66.0863574 C50.7880288,65.858706 51.1566157,65.4034032 51.1566157,64.6192707 L51.1566157,64.1386733 C51.1566157,62.7221757 50.0792079,62.0645161 48.519802,62.0645161 C46.960396,62.0645161 45.9113411,62.6968811 45.9113411,64.1133787 L45.9113411,64.6192707 C45.9113411,65.3781086 46.2515752,65.858706 47.0171017,66.0863574 C46.0531053,66.3898926 45.7128713,66.8957846 45.7128713,67.7305064 L45.7128713,68.7422903 C45.7128713,70.2346717 46.790279,70.8417421 48.519802,70.8164475 C50.2209721,70.8164475 51.3267327,70.1587879 51.3267327,68.6917011 L51.3267327,67.7052118 C51.3267327,66.87049 51.0148515,66.364598 50.0508551,66.0863574 Z M48.0094509,64.1386733 C48.0094509,63.6833705 48.2362736,63.5063083 48.5481548,63.5063083 C48.860036,63.5063083 49.0585059,63.6580759 49.0585059,64.1133787 L49.0585059,64.7963328 C49.0585059,65.3022248 48.860036,65.479287 48.5481548,65.479287 C48.2079208,65.479287 48.0094509,65.3022248 48.0094509,64.7963328 L48.0094509,64.1386733 Z M49.0868587,68.7169957 C49.0868587,69.1975931 48.8883888,69.3746553 48.519802,69.3493607 C48.179568,69.3493607 47.9810981,69.1975931 47.9810981,68.6917011 L47.9810981,67.4522658 C47.9810981,66.9210792 48.2079208,66.744017 48.5481548,66.744017 C48.8883888,66.744017 49.0868587,66.9463738 49.0868587,67.4522658 L49.0868587,68.7169957 Z" id="Shape"></path>
                <path d="M13.1589559,31.0467253 L12.029703,31.2908602 L12.029703,31.827957 L25.6633663,31.827957 L25.6633663,31.3152737 L24.5341134,31.0711388 C22.9366337,30.7537634 22.7713771,30.680523 22.7713771,28.6297898 L22.7713771,10.5638074 L22.110351,10.344086 C20.1548155,12.3704057 16.3263726,13.7375611 12.1674167,14.4455523 L12.1674167,14.9582356 L14.9216922,15.5929863 L14.9216922,28.6053763 C14.9216922,30.6561095 14.7564356,30.7049365 13.1589559,31.0467253 Z" id="Shape"></path>
                <path d="M35.1240141,32.6236559 C40.5883538,32.6236559 46.5148515,29.2569654 46.5148515,21.4096057 C46.5148515,14.0573477 41.0505118,10.344086 35.368686,10.344086 C30.8830341,10.344086 24.0594059,13.3146953 24.0594059,21.7066667 C24.0594059,29.0341697 28.9800302,32.5989008 35.1240141,32.6236559 Z M35.3143145,11.2600239 C37.6251049,11.2600239 38.5766068,12.6215532 38.5766068,21.805687 C38.5766068,29.6530466 37.9513341,31.707718 35.3143145,31.707718 C32.7860379,31.707718 31.9976506,29.9501075 31.9976506,21.3105854 C31.9976506,12.4977778 33.2753818,11.2600239 35.3143145,11.2600239 Z" id="Shape"></path>
                <path d="M58.3814398,32.6236559 C63.8457795,32.6236559 69.7722772,29.2569654 69.7722772,21.4096057 C69.7722772,14.0573477 64.3079376,10.344086 58.6261118,10.344086 C54.1404598,10.344086 47.3168317,13.3146953 47.3168317,21.7066667 C47.3168317,29.0341697 52.2102702,32.5989008 58.3814398,32.6236559 Z M58.5717402,11.2600239 C60.8825306,11.2600239 61.8340326,12.6215532 61.8340326,21.805687 C61.8340326,29.6530466 61.1815741,31.707718 58.5717402,31.707718 C56.0434637,31.707718 55.2550764,29.9501075 55.2550764,21.3105854 C55.2550764,12.4977778 56.5328075,11.2600239 58.5717402,11.2600239 Z" id="Shape"></path>
                <polygon id="Shape" points="44.1089109 4.77419355 45.7128713 4.77419355 44.895166 3.1827957"></polygon>
                <path d="M39.1851698,7.16129032 C39.8752902,7.16129032 40.0979097,6.11036721 40.0979097,4.35007101 C40.1201716,2.8262325 39.8085044,1.59139785 38.8067168,1.59139785 L38.4950495,1.59139785 L38.4950495,6.16291337 C38.4950495,6.79346723 38.5840973,7.16129032 39.1851698,7.16129032 Z" id="Shape"></path>
                <path d="M0,0 L0,8.48533333 L0,74 L81,74 L81,8.48533333 L81,0 L0,0 Z M75.897,3.00933333 C75.897,2.09666667 76.491,1.23333333 77.949,1.23333333 C78.489,1.23333333 79.029,1.406 79.245,1.406 C79.407,1.406 79.488,1.38133333 79.569,1.30733333 L79.704,1.30733333 L79.704,2.93533333 L79.515,2.93533333 C79.326,2.294 78.921,1.554 77.922,1.554 C77.274,1.554 76.977,1.87466667 76.977,2.24466667 C76.977,3.45333333 80.109,3.37933333 80.109,5.42666667 C80.109,6.48733333 79.191,7.252 77.895,7.252 C77.274,7.252 76.707,7.05466667 76.464,7.05466667 C76.329,7.05466667 76.221,7.104 76.086,7.178 L75.924,7.178 L76.032,5.50066667 L76.221,5.50066667 C76.302,6.38866667 76.815,6.93133333 77.787,6.93133333 C78.597,6.93133333 78.84,6.46266667 78.84,6.068 C78.84,4.71133333 75.897,4.83466667 75.897,3.00933333 Z M71.226,1.60333333 C71.145,1.52933333 71.064,1.48 70.794,1.48 L70.794,1.30733333 L75.384,1.30733333 L75.411,2.93533333 L75.222,2.93533333 C75.033,2.146 74.655,1.628 73.764,1.628 L73.062,1.628 L73.062,3.996 L73.386,3.996 C74.142,3.996 74.493,3.82333333 74.601,3.182 L74.79,3.182 L74.79,5.27866667 L74.601,5.27866667 C74.493,4.63733333 74.142,4.39066667 73.386,4.39066667 L73.062,4.39066667 C73.062,4.39066667 73.062,5.64866667 73.062,5.87066667 C73.062,6.56133333 73.197,6.882 73.953,6.882 C74.763,6.882 75.168,6.38866667 75.384,5.52533333 L75.573,5.52533333 L75.465,7.178 L70.794,7.178 L70.794,7.00533333 C71.064,7.00533333 71.172,6.93133333 71.226,6.882 C71.388,6.734 71.388,6.61066667 71.388,4.24266667 C71.388,1.87466667 71.361,1.75133333 71.226,1.60333333 Z M70.011,6.882 C70.092,6.956 70.173,7.00533333 70.443,7.00533333 L70.443,7.178 L67.554,7.178 L67.554,7.00533333 C67.824,7.00533333 67.932,6.93133333 67.986,6.882 C68.148,6.734 68.148,6.61066667 68.148,4.24266667 L68.148,2.664 L66.474,7.20266667 L65.934,7.20266667 L64.206,2.664 L64.206,6.142 C64.206,6.75866667 64.287,6.93133333 64.881,7.03 L64.881,7.20266667 L63.18,7.20266667 L63.18,7.03 C63.72,6.956 63.801,6.78333333 63.801,6.142 L63.801,4.24266667 C63.801,1.87466667 63.774,1.75133333 63.639,1.60333333 C63.558,1.52933333 63.45,1.48 63.18,1.48 L63.18,1.30733333 L65.583,1.30733333 L66.906,4.884 L68.256,1.30733333 L70.443,1.30733333 L70.443,1.48 C70.173,1.48 70.065,1.554 70.011,1.60333333 C69.849,1.75133333 69.849,1.87466667 69.849,4.24266667 C69.849,6.61066667 69.876,6.75866667 70.011,6.882 Z M62.424,6.882 C62.505,6.956 62.586,7.00533333 62.856,7.00533333 L62.856,7.178 L59.967,7.178 L59.967,7.00533333 C60.237,7.00533333 60.345,6.93133333 60.399,6.882 C60.561,6.734 60.561,6.61066667 60.561,4.24266667 C60.561,1.87466667 60.534,1.75133333 60.399,1.60333333 C60.318,1.52933333 60.237,1.48 59.967,1.48 L59.967,1.30733333 L62.856,1.30733333 L62.856,1.48 C62.586,1.48 62.478,1.554 62.424,1.60333333 C62.262,1.75133333 62.262,1.87466667 62.262,4.24266667 C62.262,6.61066667 62.289,6.75866667 62.424,6.882 Z M58.131,6.85733333 C58.239,6.956 58.401,7.00533333 58.698,7.00533333 L58.698,7.178 L55.62,7.178 L55.62,7.00533333 C55.917,7.00533333 56.079,6.956 56.187,6.85733333 C56.322,6.734 56.349,6.63533333 56.349,4.26733333 L56.349,1.57866667 L56.322,1.57866667 C55.674,1.57866667 55.053,1.924 54.837,2.93533333 L54.648,2.93533333 L54.648,1.30733333 L59.724,1.30733333 L59.724,2.93533333 L59.697,2.93533333 L59.508,2.93533333 C59.292,1.94866667 58.644,1.57866667 57.996,1.57866667 L57.969,1.57866667 L57.969,4.26733333 C57.969,6.63533333 57.996,6.734 58.131,6.85733333 Z M51.381,6.882 C51.462,6.956 51.57,7.00533333 51.948,7.00533333 L51.948,7.178 L48.843,7.178 L48.843,7.00533333 C49.221,7.00533333 49.329,6.93133333 49.41,6.882 C49.545,6.75866667 49.572,6.61066667 49.572,4.56333333 L48.411,2.516 C47.871,1.52933333 47.817,1.50466667 47.331,1.45533333 L47.331,1.30733333 L50.382,1.30733333 L50.382,1.48 C50.004,1.50466667 49.842,1.57866667 49.842,1.80066667 C49.842,1.89933333 49.896,1.998 50.139,2.49133333 L51.003,4.07 L51.732,2.68866667 C51.948,2.24466667 52.083,1.97333333 52.083,1.82533333 C52.083,1.65266667 51.975,1.52933333 51.597,1.50466667 L51.597,1.30733333 L53.352,1.30733333 L53.352,1.48 C52.839,1.554 52.758,1.628 52.326,2.442 L51.219,4.56333333 C51.219,6.63533333 51.246,6.75866667 51.381,6.882 Z M45.468,5.27866667 L43.821,5.27866667 C43.578,5.994 43.443,6.41333333 43.443,6.512 C43.443,6.83266667 43.659,7.00533333 44.037,7.00533333 L44.037,7.178 L41.958,7.178 L41.958,7.00533333 C42.606,6.882 42.714,6.78333333 43.065,5.87066667 L44.712,1.30733333 L45.819,1.30733333 L47.655,6.19133333 C47.871,6.75866667 48.006,6.98066667 48.438,7.03 L48.438,7.178 L45.117,7.178 L45.117,7.00533333 C45.63,6.956 45.9,6.85733333 45.9,6.586 C45.9,6.48733333 45.819,6.19133333 45.468,5.27866667 Z M36.963,1.60333333 C36.882,1.52933333 36.801,1.48 36.531,1.48 L36.531,1.30733333 L39.393,1.30733333 C41.391,1.30733333 42.498,2.39266667 42.498,4.24266667 C42.471,5.89533333 41.823,7.178 39.528,7.178 L36.531,7.178 L36.531,7.00533333 C36.801,7.00533333 36.909,6.93133333 36.963,6.882 C37.125,6.734 37.125,6.61066667 37.125,4.24266667 C37.125,1.87466667 37.098,1.75133333 36.963,1.60333333 Z M31.968,7.05466667 L31.968,7.22733333 L30.132,7.22733333 L30.132,7.05466667 C30.726,6.98066667 30.807,6.808 30.807,6.16666667 L30.807,4.26733333 C30.807,1.89933333 30.78,1.776 30.645,1.628 C30.564,1.554 30.483,1.50466667 30.213,1.50466667 L30.213,1.30733333 L32.319,1.30733333 L35.019,4.78533333 L35.019,2.34333333 C35.019,1.72666667 34.938,1.554 34.344,1.45533333 L34.344,1.30733333 L36.18,1.30733333 L36.18,1.48 C35.586,1.554 35.505,1.72666667 35.505,2.368 L35.505,7.20266667 L34.614,7.20266667 L31.293,3.034 L31.293,6.16666667 C31.293,6.78333333 31.374,6.98066667 31.968,7.05466667 Z M24.462,1.60333333 C24.381,1.52933333 24.273,1.48 24.003,1.48 L24.003,1.30733333 L26.892,1.30733333 L26.892,1.48 C26.622,1.48 26.514,1.52933333 26.46,1.60333333 C26.352,1.702 26.298,2.12133333 26.298,3.37933333 L26.298,5.67333333 C26.298,6.438 26.73,6.78333333 27.459,6.78333333 C28.35,6.78333333 28.836,6.16666667 28.836,4.884 L28.836,2.34333333 C28.836,1.72666667 28.755,1.554 28.161,1.45533333 L28.161,1.30733333 L29.997,1.30733333 C29.997,1.30733333 29.997,1.48 29.997,1.48 C29.403,1.554 29.322,1.72666667 29.322,2.368 L29.322,4.85933333 C29.322,6.29 28.755,7.27666667 27,7.27666667 C25.326,7.27666667 24.624,6.41333333 24.624,5.45133333 L24.624,3.33 C24.624,2.146 24.57,1.702 24.462,1.60333333 Z M19.71,3.034 C19.71,2.09666667 20.304,1.23333333 21.762,1.23333333 C22.302,1.23333333 22.842,1.406 23.058,1.406 C23.22,1.406 23.301,1.38133333 23.382,1.30733333 L23.517,1.30733333 L23.517,2.93533333 L23.328,2.93533333 C23.139,2.31866667 22.734,1.554 21.735,1.554 C21.087,1.554 20.79,1.89933333 20.79,2.24466667 C20.79,3.45333333 23.922,3.37933333 23.922,5.42666667 C23.922,6.48733333 23.004,7.252 21.708,7.252 C21.087,7.252 20.52,7.05466667 20.277,7.05466667 C20.142,7.05466667 20.034,7.104 19.899,7.178 L19.737,7.178 L19.737,5.52533333 L19.926,5.52533333 C20.061,6.438 20.628,6.956 21.6,6.956 C22.41,6.956 22.653,6.48733333 22.653,6.09266667 C22.653,4.736 19.71,4.85933333 19.71,3.034 Z M13.419,1.60333333 C13.365,1.52933333 13.257,1.48 12.987,1.48 L12.987,1.30733333 L17.577,1.30733333 L17.604,2.93533333 L17.415,2.93533333 C17.226,2.146 16.848,1.628 15.957,1.628 L15.255,1.628 L15.255,3.996 L15.579,3.996 C16.335,3.996 16.686,3.82333333 16.794,3.182 L17.01,3.182 L17.01,5.27866667 L16.821,5.27866667 C16.713,4.63733333 16.362,4.39066667 15.606,4.39066667 L15.282,4.39066667 C15.282,4.39066667 15.282,5.64866667 15.282,5.87066667 C15.282,6.56133333 15.417,6.882 16.173,6.882 C16.983,6.882 17.388,6.38866667 17.604,5.52533333 L17.793,5.52533333 L17.685,7.178 L12.987,7.178 L12.987,7.00533333 C13.257,7.00533333 13.365,6.93133333 13.419,6.882 C13.581,6.734 13.581,6.61066667 13.581,4.24266667 C13.581,1.87466667 13.554,1.75133333 13.419,1.60333333 Z M12.231,6.882 C12.312,6.956 12.393,7.00533333 12.663,7.00533333 L12.663,7.178 L9.774,7.178 L9.774,7.00533333 C10.044,7.00533333 10.152,6.93133333 10.206,6.882 C10.368,6.734 10.368,6.61066667 10.368,4.366 L8.586,4.366 C8.586,6.61066667 8.613,6.734 8.748,6.882 C8.829,6.956 8.91,7.00533333 9.18,7.00533333 L9.18,7.178 L6.345,7.178 L6.345,7.00533333 C6.615,7.00533333 6.723,6.93133333 6.777,6.882 C6.939,6.734 6.939,6.61066667 6.939,4.24266667 C6.939,1.87466667 6.912,1.75133333 6.777,1.60333333 C6.696,1.52933333 6.615,1.48 6.345,1.48 L6.345,1.30733333 L9.234,1.30733333 L9.234,1.48 C8.964,1.48 8.856,1.554 8.802,1.60333333 C8.667,1.72666667 8.64,1.85 8.64,3.996 L10.422,3.996 C10.422,1.85 10.395,1.72666667 10.26,1.60333333 C10.125,1.52933333 10.044,1.48 9.774,1.48 L9.774,1.30733333 L12.663,1.30733333 L12.663,1.48 C12.393,1.48 12.285,1.554 12.231,1.60333333 C12.069,1.75133333 12.069,1.87466667 12.069,4.24266667 C12.069,6.61066667 12.096,6.734 12.231,6.882 Z M4.509,6.85733333 C4.617,6.956 4.779,7.00533333 5.076,7.00533333 L5.076,7.178 L1.998,7.178 L1.998,7.00533333 C2.295,7.00533333 2.457,6.956 2.565,6.85733333 C2.7,6.734 2.727,6.63533333 2.727,4.26733333 L2.727,1.57866667 L2.7,1.57866667 C2.052,1.57866667 1.431,1.924 1.188,2.93533333 L1.026,2.93533333 L1.026,1.30733333 L6.102,1.30733333 L6.102,2.93533333 L6.075,2.93533333 L5.886,2.93533333 C5.67,1.94866667 5.022,1.57866667 4.374,1.57866667 L4.347,1.57866667 L4.347,4.26733333 C4.347,6.63533333 4.374,6.734 4.509,6.85733333 Z M80.46,73.5066667 L0.54,73.5066667 L0.54,8.48533333 L80.46,8.48533333 L80.46,73.5066667 Z" id="Shape"></path>
            </g>
        </g>
    </g>
</svg>