<?xml version="1.0" encoding="UTF-8"?>
<svg width="92px" height="61px" viewBox="0 0 92 61" version="1.1" xmlns="http://www.w3.org/2000/svg" xmlns:xlink="http://www.w3.org/1999/xlink">
    <!-- Generator: Sketch 50.2 (55047) - http://www.bohemiancoding.com/sketch -->
    <title>logo-award-growingbusiness</title>
    <desc>Created with Sketch.</desc>
    <defs></defs>
    <g id="Designs---MVP" stroke="none" stroke-width="1" fill="none" fill-rule="evenodd">
        <g id="Assets" transform="translate(-383.000000, -320.000000)" fill="#A2B1C5" fill-rule="nonzero">
            <g id="awards-logo-Amazon-growing-business" transform="translate(386.000000, 323.000000)">
                <path d="M30.9604754,23.7141217 C29.3441128,23.7141217 28.0129906,22.3191734 28.0129906,20.5522388 C28.0129906,18.7853042 29.3441128,17.3903559 30.9604754,17.3903559 C32.576838,17.3903559 33.9079602,18.7853042 33.9079602,20.5522388 C33.9079602,22.2261768 32.576838,23.7141217 30.9604754,23.7141217 M36.9505252,18.2273249 C36.6652847,17.4833525 36.1898839,16.8323766 35.7144831,16.2743972 C35.1440022,15.7164179 34.4784411,15.2514351 33.7177999,14.9724455 C32.9571587,14.6934558 32.0063571,14.5074627 31.0555556,14.5074627 C30.104754,14.5074627 29.1539525,14.6934558 28.3933112,14.9724455 C27.63267,15.2514351 26.9671089,15.7164179 26.396628,16.2743972 C25.826147,16.8323766 25.4458264,17.4833525 25.160586,18.2273249 C24.8753455,18.9712974 24.6851852,19.7152698 24.6851852,20.5522388 C24.6851852,21.3892078 24.8753455,22.1331803 25.160586,22.8771527 C25.4458264,23.6211251 25.9212272,24.272101 26.396628,24.8300804 C26.9671089,25.3880597 27.63267,25.8530425 28.3933112,26.1320321 C29.1539525,26.4110218 30.104754,26.5970149 31.0555556,26.5970149 C32.0063571,26.5970149 32.9571587,26.4110218 33.7177999,26.1320321 C34.4784411,25.8530425 35.1440022,25.3880597 35.7144831,24.8300804 C36.2849641,24.272101 36.6652847,23.6211251 36.9505252,22.8771527 C37.2357656,22.1331803 37.4259259,21.3892078 37.4259259,20.5522388 C37.3308458,19.7152698 37.2357656,18.9712974 36.9505252,18.2273249" id="Fill-1"></path>
                <path d="M22.479402,0 C22.479402,0 24.0327393,0.895522388 24.580976,2.32835821 C25.0378399,3.67164179 23.8499938,5.64179104 23.758621,5.64179104 C23.5758754,5.64179104 21.8397925,4.47761194 21.5656742,3.13432836 C21.2001831,1.34328358 22.479402,0 22.479402,0" id="Fill-3"></path>
                <path d="M24.6860811,11.1805001 C24.6860811,11.1805001 24.5873015,7.86985359 26.4641147,5.82504254 C28.2421483,3.87760344 32.489673,3.9749754 32.5884526,4.07234735 C32.7860119,4.36446322 32.5884526,8.16196945 30.5140801,9.71992073 C28.044589,11.8621037 24.6860811,11.1805001 24.6860811,11.1805001" id="Fill-5"></path>
                <path d="M25.3715186,16.119403 C24.6465113,15.363806 22.9246189,13.0025653 23.1058707,10.0746269 C23.3777484,6.10774254 25.8246482,4.02985075 25.8246482,4.02985075 C25.2808927,4.78544776 23.830878,7.14668843 23.9215039,10.0746269 C24.0121299,12.5303172 25.9152741,14.8915578 26.2777778,15.2693563 L25.3715186,16.119403 Z" id="Fill-7"></path>
                <path d="M5.84820886,21.8903954 L8.13266545,21.8903954 L8.13266545,23.2746952 C7.85853066,23.5515552 7.58439587,23.6438419 7.21888282,23.7361285 C6.85336976,23.8284152 6.57923497,23.8284152 6.21372192,23.8284152 C5.66545234,23.8284152 5.20856102,23.7361285 4.84304797,23.5515552 C4.47753491,23.3669819 4.20340012,23.0901219 3.92926533,22.8132619 C3.65513054,22.536402 3.47237401,22.1672553 3.38099575,21.7981087 C3.28961749,21.4289621 3.19823922,20.9675288 3.19823922,20.5060955 C3.19823922,20.0446622 3.28961749,19.6755156 3.38099575,19.3063689 C3.47237401,18.9372223 3.65513054,18.5680757 3.92926533,18.2912157 C4.20340012,18.0143557 4.47753491,17.7374957 4.84304797,17.5529224 C5.20856102,17.3683491 5.66545234,17.2760624 6.21372192,17.2760624 C6.94474803,17.2760624 7.40163934,17.3683491 8.04128719,17.7374957 C8.49817851,18.0143557 9.04644809,18.475789 9.04644809,18.475789 L10.8740134,16.1686225 C10.8740134,16.1686225 9.86885246,15.3380426 9.13782635,14.968896 C8.40680024,14.5997493 7.49301761,14.5074627 6.21372192,14.5074627 C5.29993928,14.5074627 4.38615665,14.692036 3.65513054,14.968896 C2.92410443,15.245756 2.28445659,15.7071892 1.73618701,16.2609092 C1.18791743,16.8146291 0.822404372,17.4606358 0.548269581,18.198929 C0.182756527,19.0295089 0,19.7678022 0,20.5983821 C0,21.4289621 0.0913782635,22.1672553 0.365513054,22.9055486 C0.639647845,23.6438419 1.0051609,24.2898485 1.55343048,24.8435684 C2.10170006,25.3972884 2.74134791,25.8587217 3.47237401,26.1355816 C4.20340012,26.4124416 5.11718276,26.5970149 6.12234366,26.5970149 C7.03612629,26.5970149 7.94990893,26.4124416 8.22404372,26.320155 C8.49817851,26.2278683 9.41196114,25.8587217 9.86885246,25.5818617 C10.2343655,25.3972884 11.1481481,24.7512818 11.1481481,24.7512818 L11.1481481,19.6755156 L5.7568306,19.6755156 L5.7568306,21.8903954 L5.84820886,21.8903954 Z" id="Fill-9"></path>
                <path d="M15.9397746,17.1252537 L17.6847021,17.1252537 C18.363285,17.1252537 19.1388084,17.2155224 19.4296296,17.3960597 C19.7204509,17.576597 20.0112721,17.9376716 20.0112721,18.3890149 C20.0112721,18.8403582 19.8173913,19.3819701 19.52657,19.5625075 C19.2357488,19.7430448 18.5571659,19.9235821 18.0724638,19.9235821 L15.9397746,19.9235821 L15.9397746,17.1252537 Z M20.9806763,21.8192239 C20.9806763,21.8192239 21.0776167,21.8192239 21.0776167,21.7289552 C21.368438,21.6386866 21.7561997,21.3678806 22.0470209,21.1873433 C22.3378422,20.9165373 22.9194847,20.3749254 23.1133655,19.9235821 C23.3072464,19.3819701 23.5011272,18.7500896 23.5011272,18.118209 C23.5011272,17.576597 23.4041868,17.1252537 23.210306,16.6739104 C23.0164251,16.2225672 22.6286634,15.8614925 22.2409018,15.5004179 C21.8531401,15.2296119 21.368438,14.958806 20.7867955,14.7782687 C20.205153,14.5977313 19.2357488,14.5074627 18.4602254,14.5074627 L12.7407407,14.5074627 L12.7407407,25.7910448 L15.9397746,25.7910448 L15.9397746,22.3608358 L17.4908213,22.3608358 L20.0112721,25.7910448 L23.8888889,25.7910448 L20.9806763,21.8192239 Z" id="Fill-11"></path>
                <polygon id="Fill-13" points="55.7407407 26.5970149 58.9259259 26.5970149 58.9259259 14.5074627 55.7407407 14.5074627"></polygon>
                <path d="M79.0160899,21.9471871 L81.3005464,21.9471871 L81.3005464,23.3421355 C81.0264117,23.6211251 80.7522769,23.7141217 80.3867638,23.8071183 C80.0212508,23.9001148 79.747116,23.9001148 79.3816029,23.9001148 C78.8333333,23.9001148 78.376442,23.8071183 78.010929,23.6211251 C77.6454159,23.435132 77.3712811,23.1561424 77.0971463,22.8771527 C76.8230115,22.598163 76.640255,22.2261768 76.5488767,21.8541906 C76.4574985,21.4822044 76.3661202,21.0172216 76.3661202,20.5522388 C76.3661202,20.087256 76.4574985,19.7152698 76.5488767,19.3432836 C76.640255,18.9712974 76.8230115,18.5993111 77.0971463,18.3203215 C77.3712811,18.0413318 77.6454159,17.7623421 78.010929,17.576349 C78.376442,17.3903559 78.8333333,17.2973594 79.3816029,17.2973594 C80.112629,17.2973594 80.5695203,17.3903559 81.2091682,17.7623421 C81.6660595,18.0413318 82.2143291,18.5063146 82.2143291,18.5063146 L84.0418944,16.1814007 C84.0418944,16.1814007 83.0367335,15.3444317 82.3057073,14.9724455 C81.5746812,14.6004592 80.6608986,14.5074627 79.3816029,14.5074627 C78.4678203,14.5074627 77.5540376,14.6934558 76.8230115,14.9724455 C76.0919854,15.2514351 75.4523376,15.7164179 74.904068,16.2743972 C74.3557984,16.8323766 73.9902854,17.4833525 73.7161506,18.2273249 C73.4420158,18.9712974 73.2592593,19.7152698 73.2592593,20.5522388 C73.2592593,21.3892078 73.3506375,22.1331803 73.6247723,22.8771527 C73.8989071,23.6211251 74.2644202,24.272101 74.8126897,24.8300804 C75.3609593,25.3880597 76.0006072,25.8530425 76.7316333,26.1320321 C77.4626594,26.4110218 78.376442,26.5970149 79.3816029,26.5970149 C80.2953855,26.5970149 81.2091682,26.4110218 81.483303,26.3180253 C81.7574378,26.2250287 82.6712204,25.8530425 83.1281117,25.5740528 C83.4936248,25.3880597 84.4074074,24.7370838 84.4074074,24.7370838 L84.4074074,19.6222732 L79.0160899,19.6222732 L79.0160899,21.9471871 Z" id="Fill-15"></path>
                <polygon id="Fill-16" points="68.3877996 14.5074627 68.3877996 20.6950288 63.6100218 14.5074627 60.5185185 14.5074627 60.5185185 26.5970149 63.7973856 26.5970149 63.7973856 19.9334822 68.8562092 26.5970149 71.6666667 26.5970149 71.6666667 14.5074627"></polygon>
                <path d="M6.91954023,31.8668197 C6.8234355,31.9598163 6.53512133,32.0528129 6.34291188,32.1458094 C6.15070243,32.1458094 5.86238825,32.1458094 5.6701788,32.1458094 L3.45977011,32.1458094 L3.45977011,30.0998852 L5.6701788,30.0998852 C6.4390166,30.0998852 6.63122605,30.1928817 6.8234355,30.3788749 C7.01564496,30.564868 7.11174968,30.6578645 7.11174968,31.1228473 C7.20785441,31.401837 7.11174968,31.6808266 6.91954023,31.8668197 Z M3.45977011,34.5637199 L5.95849298,34.5637199 C6.63122605,34.5637199 6.91954023,34.5637199 7.20785441,34.749713 C7.40006386,34.8427095 7.59227331,35.0287026 7.68837803,35.586682 C7.68837803,36.0516648 7.59227331,36.3306544 7.40006386,36.5166475 C7.11174968,36.7026406 6.63122605,36.7026406 5.95849298,36.7026406 L3.45977011,36.7026406 L3.45977011,34.5637199 Z M10.7637292,34.5637199 C10.4754151,34.1917336 10.1871009,33.8197474 9.89878672,33.6337543 C9.61047254,33.4477612 9.03384419,33.1687715 8.74553001,33.075775 C8.93773946,32.9827784 9.32215837,32.7967853 9.51436782,32.6107922 C10.1871009,32.0528129 10.5715198,31.5878301 10.5715198,30.8438576 C10.6676245,30.0998852 10.5715198,29.5419059 10.3793103,29.1699196 C10.1871009,28.7979334 9.80268199,28.4259472 9.41826309,28.1469575 C9.03384419,27.8679679 8.55332056,27.6819747 8.07279693,27.5889782 C7.59227331,27.4959816 7.01564496,27.4029851 6.4390166,27.4029851 L0,27.4029851 L0,39.4925373 L5.95849298,39.4925373 C6.63122605,39.4925373 7.30395913,39.4925373 7.88058748,39.3995408 C8.55332056,39.3065442 9.12994891,39.1205511 9.61047254,38.8415614 C10.0909962,38.5625718 10.4754151,38.1905855 10.7637292,37.7256028 C11.0520434,37.26062 11.1481481,36.7026406 11.1481481,35.8656716 C11.1481481,35.4006889 10.9559387,34.8427095 10.7637292,34.5637199 Z" id="Fill-17"></path>
                <path d="M19.6836547,26.5970149 L19.6836547,34.0722342 C19.6836547,34.3490942 19.5915213,34.7182409 19.4072544,34.9951008 C19.2229875,35.2719608 18.8544536,35.4565341 18.5780533,35.5488208 C18.3016529,35.6411074 17.9331191,35.6411074 17.4724518,35.6411074 C17.0117845,35.6411074 16.6432507,35.6411074 16.3668503,35.5488208 C16.1825834,35.4565341 15.906183,35.2719608 15.7219161,35.0873875 C15.5376492,34.8105275 15.3533823,34.4413809 15.3533823,34.1645209 L15.3533823,26.5970149 L11.9444444,26.5970149 L11.9444444,34.6259542 C12.0365779,35.4565341 12.2208448,35.9179674 12.4051117,36.287114 C12.6815121,36.7485473 13.0500459,37.3022673 13.6028466,37.6714139 C14.0635139,38.0405606 14.6163147,38.2251339 15.2612489,38.4097072 C15.906183,38.5942805 16.6432507,38.6865672 17.4724518,38.6865672 C18.2095194,38.6865672 18.9465871,38.5942805 19.5915213,38.4097072 C20.2364555,38.2251339 20.8813897,37.9482739 21.3420569,37.5791273 C21.8027242,37.2099806 22.2633915,36.7485473 22.5397919,36.1948274 C22.8161922,35.6411074 23.0004591,35.0873875 23.0925926,34.5336675 L23.0925926,26.5970149 L19.6836547,26.5970149 Z" id="Fill-18"></path>
                <path d="M34.0884058,32.46135 C33.7006441,32.1906883 33.3128824,32.0102473 32.9251208,31.8298062 C32.5373591,31.6493651 32.052657,31.5591446 31.6648953,31.468924 L30.3077295,31.1982624 C29.4352657,31.0178213 28.8536232,30.7471597 28.6597424,30.3862776 C28.5628019,30.296057 28.5628019,29.8449543 28.9505636,29.6645133 C29.2413849,29.4840722 29.5322061,29.3938516 30.0169082,29.3938516 C30.6954911,29.3938516 31.7618357,29.5742927 32.1495974,29.8449543 C32.4404187,30.0253954 32.5373591,30.0253954 33.5067633,30.4764981 L35.2516908,28.1307641 C35.2516908,28.1307641 34.1853462,27.4992203 33.3128824,27.1383382 C32.4404187,26.777456 31.1801932,26.5970149 30.1138486,26.5970149 C29.5322061,26.5970149 28.9505636,26.6872355 28.3689211,26.777456 C27.7872786,26.9578971 27.3025765,27.1383382 26.8178744,27.4089998 C26.3331723,27.6796614 25.9454106,28.1307641 25.6545894,28.5818668 C25.3637681,29.0329695 25.1698873,29.6645133 25.1698873,30.296057 C25.1698873,30.8373803 25.2668277,31.3787035 25.557649,31.7395857 C25.7515298,32.1004678 26.042351,32.46135 26.4301127,32.7320116 C26.8178744,33.0026732 27.2056361,33.2733348 27.5933977,33.3635554 C27.9811594,33.5439964 28.6597424,33.7244375 29.1444444,33.8146581 C29.1444444,33.8146581 30.5985507,34.0853197 30.889372,34.1755402 C31.1801932,34.2657607 31.5679549,34.3559813 31.8587762,34.6266429 C32.1495974,34.807084 32.1495974,34.9875251 32.1495974,35.1679661 C32.1495974,35.3484072 32.052657,35.5288483 31.9557166,35.6190688 C31.8587762,35.7092894 31.4710145,35.979951 31.2771337,35.979951 C30.1138486,36.1603921 28.9505636,35.8897305 28.4658615,35.6190688 C27.9811594,35.3484072 26.720934,34.5364224 26.720934,34.5364224 L24.6851852,36.7017153 C24.6851852,36.7017153 26.3331723,37.7843618 26.8178744,37.9648029 C27.3025765,38.1452439 28.0780998,38.4159055 28.6597424,38.5061261 C29.1444444,38.5963466 29.6291465,38.6865672 30.210789,38.6865672 C30.7924316,38.6865672 31.5679549,38.6865672 32.2465378,38.5963466 C32.9251208,38.5061261 33.6037037,38.325685 34.0884058,37.9648029 C34.5731079,37.6941412 34.9608696,37.2430385 35.3486312,36.7017153 C35.7363929,36.1603921 35.8333333,35.5288483 35.8333333,34.7168634 C35.8333333,34.1755402 35.6394525,33.5439964 35.3486312,33.1831143 C34.7669887,32.8222321 34.4761675,32.641791 34.0884058,32.46135" id="Fill-19"></path>
                <polygon id="Fill-20" points="35.8333333 39.4925373 39.0185185 39.4925373 39.0185185 27.4029851 35.8333333 27.4029851"></polygon>
                <polygon id="Fill-21" points="49.2489014 27.4029851 49.3433773 33.5905512 44.430634 27.4029851 41.4074074 27.4029851 41.4074074 39.4925373 44.6195857 39.4925373 44.6195857 32.8290046 49.7212806 39.4925373 52.5555556 39.4925373 52.5555556 27.4029851"></polygon>
                <path d="M74.1940419,32.8059701 C73.8062802,32.519403 73.4185185,32.3283582 73.0307568,32.1373134 C72.6429952,31.9462687 72.1582931,31.8507463 71.7705314,31.7552239 L70.3164251,31.4686567 C69.4439614,31.2776119 68.8623188,30.9910448 68.668438,30.6089552 C68.5714976,30.5134328 68.5714976,30.0358209 68.9592593,29.8447761 C69.2500805,29.6537313 69.4439614,29.558209 70.0256039,29.558209 C70.7041868,29.558209 71.7705314,29.7492537 72.1582931,30.0358209 C72.4491143,30.2268657 72.5460548,30.2268657 73.4185185,30.7044776 L75.1634461,28.2208955 C75.1634461,28.2208955 74.0971014,27.5522388 73.2246377,27.1701493 C72.3521739,26.7880597 71.0919485,26.5970149 70.0256039,26.5970149 C69.4439614,26.5970149 68.8623188,26.6925373 68.2806763,26.7880597 C67.6990338,26.9791045 67.2143317,27.1701493 66.7296296,27.4567164 C66.2449275,27.7432836 65.8571659,28.2208955 65.5663446,28.6985075 C65.2755233,29.1761194 65.0816425,29.8447761 65.0816425,30.5134328 C65.0816425,31.0865672 65.1785829,31.6597015 65.4694042,32.041791 C65.663285,32.4238806 65.9541063,32.8059701 66.341868,33.0925373 C66.7296296,33.3791045 67.1173913,33.6656716 67.505153,33.761194 C67.8929147,33.9522388 68.5714976,34.1432836 69.0561997,34.238806 C69.0561997,34.238806 70.510306,34.5253731 70.8011272,34.6208955 C71.0919485,34.7164179 71.4797101,34.8119403 71.7705314,35.0985075 C72.0613527,35.2895522 72.0613527,35.480597 72.0613527,35.6716418 C72.0613527,35.8626866 71.9644122,36.0537313 71.8674718,36.1492537 C71.7705314,36.2447761 71.3827697,36.5313433 71.1888889,36.5313433 C70.0256039,36.7223881 68.8623188,36.4358209 68.3776167,36.1492537 C67.8929147,35.8626866 66.6326892,35.0029851 66.6326892,35.0029851 L64.5,37.3910448 C64.5,37.3910448 66.1479871,38.5373134 66.6326892,38.7283582 C67.1173913,38.919403 67.8929147,39.2059701 68.4745572,39.3014925 C68.9592593,39.3970149 69.4439614,39.4925373 70.0256039,39.4925373 C70.6072464,39.4925373 71.3827697,39.4925373 72.0613527,39.3970149 C72.7399356,39.3014925 73.4185185,39.1104478 73.9032206,38.7283582 C74.3879227,38.441791 74.7756844,37.9641791 75.1634461,37.3910448 C75.5512077,36.8179104 75.6481481,36.1492537 75.6481481,35.2895522 C75.6481481,34.7164179 75.4542673,34.0477612 75.1634461,33.6656716 C74.7756844,33.2835821 74.4848631,33.0925373 74.1940419,32.8059701" id="Fill-22"></path>
                <path d="M84.5458937,32.46135 C84.158132,32.1906883 83.7703704,32.0102473 83.3826087,31.8298062 C82.994847,31.6493651 82.5101449,31.5591446 82.1223833,31.468924 L80.7652174,31.1982624 C79.8927536,31.0178213 79.3111111,30.7471597 79.1172303,30.3862776 C79.0202899,30.296057 79.0202899,29.8449543 79.4080515,29.6645133 C79.6988728,29.4840722 79.8927536,29.3938516 80.4743961,29.3938516 C81.1529791,29.3938516 82.2193237,29.5742927 82.6070853,29.8449543 C82.8979066,30.0253954 82.994847,30.0253954 83.8673108,30.4764981 L85.6122383,28.1307641 C85.6122383,28.1307641 84.5458937,27.4992203 83.67343,27.1383382 C82.7040258,26.777456 81.3468599,26.5970149 80.3774557,26.5970149 C79.7958132,26.5970149 79.2141707,26.6872355 78.6325282,26.777456 C78.0508857,26.9578971 77.5661836,27.1383382 77.0814815,27.4089998 C76.5967794,27.6796614 76.2090177,28.1307641 75.9181965,28.5818668 C75.6273752,29.0329695 75.4334944,29.6645133 75.4334944,30.296057 C75.4334944,30.8373803 75.5304348,31.3787035 75.821256,31.7395857 C76.0151369,32.1004678 76.3059581,32.46135 76.6937198,32.7320116 C77.0814815,33.0026732 77.4692432,33.2733348 77.8570048,33.3635554 C78.2447665,33.5439964 78.9233494,33.7244375 79.4080515,33.8146581 C79.4080515,33.8146581 80.8621578,34.0853197 81.1529791,34.1755402 C81.4438003,34.2657607 81.831562,34.3559813 82.1223833,34.6266429 C82.3162641,34.8973045 82.3162641,35.0777456 82.3162641,35.1679661 C82.3162641,35.3484072 82.2193237,35.5288483 82.1223833,35.6190688 C82.0254428,35.7092894 81.6376812,35.979951 81.4438003,35.979951 C80.2805153,36.1603921 79.1172303,35.8897305 78.6325282,35.6190688 C78.1478261,35.3484072 76.8876006,34.5364224 76.8876006,34.5364224 L74.8518519,36.7017153 C74.8518519,36.7017153 76.499839,37.7843618 76.9845411,37.9648029 C77.4692432,38.1452439 78.2447665,38.4159055 78.826409,38.5061261 C79.3111111,38.5963466 79.7958132,38.6865672 80.3774557,38.6865672 C80.9590982,38.6865672 81.7346216,38.6865672 82.4132045,38.5963466 C83.0917874,38.5061261 83.7703704,38.325685 84.2550725,37.9648029 C84.7397746,37.6941412 85.1275362,37.2430385 85.5152979,36.7017153 C85.9030596,36.1603921 86,35.5288483 86,34.7168634 C86,34.1755402 85.8061192,33.5439964 85.5152979,33.1831143 C85.1275362,32.9124527 84.836715,32.7320116 84.5458937,32.46135" id="Fill-23"></path>
                <polygon id="Fill-24" points="57.4558405 35.8966705 57.4558405 34.0367394 63.1524217 34.0367394 63.1524217 31.3398393 57.4558405 31.3398393 57.4558405 29.4799082 63.7037037 29.4799082 63.7037037 26.5970149 54.1481481 26.5970149 54.1481481 38.6865672 63.7037037 38.6865672 63.7037037 35.8966705"></polygon>
                <polygon id="Fill-25" points="51.4514128 14.5074627 49.4688813 21.3613821 47.2975372 14.5074627 44.2765368 14.5074627 42.1051928 21.3613821 40.0282551 14.5074627 36.6296296 14.5074627 40.4058801 26.5970149 43.4268805 26.5970149 45.787037 19.7430955 48.1471936 26.5970149 50.9793814 26.5970149 54.9444444 14.5074627"></polygon>
                <path d="M7.88814318,45.864098 C7.11856823,46.3395876 7.02237136,46.2444897 6.15659955,46.5297835 C5.38702461,46.9101752 5.098434,46.9101752 4.42505593,47.5758606 C3.65548098,48.4317419 3.65548098,49.572917 3.65548098,49.9533086 C3.65548098,50.8091899 3.84787472,51.5699733 4.5212528,52.0454629 C4.8098434,52.3307567 5.29082774,52.4258546 5.67561521,52.4258546 C5.86800895,52.4258546 7.40715884,52.1405608 7.88814318,50.9993858 L7.88814318,45.864098 Z M7.88814318,43.48665 C7.88814318,43.2964542 7.98434004,42.345475 7.79194631,41.8699853 C7.59955257,41.2993978 7.40715884,40.2533207 5.77181208,40.2533207 C5.48322148,40.2533207 3.94407159,40.4435165 4.13646532,41.4895937 C4.23266219,42.0601812 4.42505593,42.5356708 4.42505593,42.9160625 C4.42505593,43.0111604 4.42505593,43.2013562 4.32885906,43.48665 C4.04026846,44.1523355 3.46308725,44.4376292 2.6935123,44.5327271 C2.50111857,44.5327271 1.92393736,44.5327271 1.63534676,44.3425313 C1.25055928,44.1523355 0.769574944,43.8670417 0.769574944,42.7258666 C0.769574944,42.4405729 0.96196868,41.2042999 2.4049217,40.4435165 C3.65548098,39.7778311 5.48322148,39.4925373 5.86800895,39.4925373 C7.40715884,39.4925373 10.0044743,39.5876352 10.7740492,41.2042999 C11.0626398,41.7748874 11.3512304,42.8209646 11.3512304,43.48665 L11.3512304,51.2846795 C11.3512304,52.0454629 12.409396,52.2356588 12.6979866,52.1405608 C13.1789709,52.0454629 13.5637584,51.5699733 13.5637584,50.9042879 L13.5637584,49.7631128 L14.3333333,49.7631128 L14.3333333,50.9993858 C14.3333333,51.4748754 14.1409396,51.950365 14.0447427,52.2356588 C13.7561521,52.8062463 13.2751678,53.2817359 12.6979866,53.5670297 C12.0246085,53.9474213 11.1588367,53.9474213 10.8702461,53.9474213 C10.2930649,53.9474213 9.6196868,53.7572255 9.04250559,53.3768338 C8.56152125,53.09154 8.08053691,52.2356588 8.08053691,51.950365 C7.98434004,52.1405608 7.69574944,52.3307567 7.11856823,52.9013442 C6.73378076,53.2817359 4.90604027,54.2327151 2.88590604,53.9474213 C0.288590604,53.5670297 0,51.950365 0,50.4287983 C0,49.6680149 0.096196868,48.336644 1.82774049,47.3856648 C3.07829978,46.7199793 4.61744966,46.3395876 5.77181208,45.864098 C6.34899329,45.6739022 7.11856823,45.3886084 7.88814318,45.1033147 L7.88814318,43.48665 Z" id="Fill-26"></path>
                <path d="M19.1012397,41.0544519 L18.0515764,41.0544519 C17.0019131,41.0544519 18.1470003,43.133299 18.2424242,43.5112712 L20.7234466,49.8423057 L23.2044689,43.7947504 C23.109045,43.4167782 22.7273493,42.5663407 22.5365014,42.1883685 C22.2502296,41.5269171 21.677686,41.0544519 21.3914141,41.0544519 L20.6280227,41.0544519 L20.6280227,40.2985075 L27.4031221,40.2985075 L27.4031221,41.0544519 L26.8305785,41.0544519 C26.7351546,41.0544519 25.9717631,40.9599588 25.9717631,41.7159032 C25.9717631,42.0938755 26.162611,42.6608338 26.2580349,42.9443129 L28.9299051,49.8423057 C28.9299051,49.8423057 31.7926232,42.6608338 31.7926232,42.1883685 C31.7926232,41.0544519 30.552112,40.9599588 29.5978727,40.9599588 L29.5978727,40.2985075 L35.037037,40.2985075 L35.037037,41.0544519 C34.0827977,41.1489449 33.9873737,41.243438 33.605678,41.4324241 C32.7468626,41.9048893 31.8880471,44.4562017 30.9338078,47.0075142 C30.3612642,48.613896 28.6436333,53.1495625 28.3573615,54 L26.9260024,54 L23.5861647,45.1176531 L20.055479,54 L18.62412,54 L14.3300429,42.9443129 C13.6620753,41.4324241 13.5666514,41.337931 12.612412,41.0544519 L11.9444444,41.0544519 L11.9444444,40.2985075 L19.1012397,40.2985075 L19.1012397,41.0544519 Z" id="Fill-27"></path>
                <path d="M42.1718519,45.864098 C41.4074074,46.3395876 41.3118519,46.2444897 40.4518519,46.5297835 C39.6874074,46.9101752 39.4007407,46.9101752 38.7318519,47.5758606 C37.9674074,48.5268398 37.9674074,49.572917 37.9674074,49.9533086 C37.9674074,50.8091899 38.1585185,51.5699733 38.8274074,52.0454629 C39.1140741,52.3307567 39.5918519,52.4258546 39.9740741,52.4258546 C40.1651852,52.4258546 41.6940741,52.1405608 42.1718519,50.9993858 L42.1718519,45.864098 Z M42.1718519,43.48665 C42.1718519,43.2964542 42.1718519,42.250377 42.0762963,41.6797895 C41.9807407,41.109202 41.6940741,40.2533207 40.0696296,40.2533207 C39.782963,40.2533207 38.2540741,40.4435165 38.4451852,41.4895937 C38.5407407,42.0601812 38.7318519,42.5356708 38.7318519,42.9160625 C38.7318519,43.0111604 38.7318519,43.2013562 38.6362963,43.48665 C38.3496296,44.1523355 37.7762963,44.4376292 37.0118519,44.5327271 C36.8207407,44.5327271 36.2474074,44.5327271 35.9607407,44.3425313 C35.5785185,44.1523355 35.1007407,43.8670417 35.1007407,42.7258666 C35.1007407,42.4405729 35.2918519,41.2042999 36.7251852,40.4435165 C37.9674074,39.7778311 39.782963,39.4925373 40.1651852,39.4925373 C41.6940741,39.4925373 44.2740741,39.5876352 45.0385185,41.2042999 C45.3251852,41.7748874 45.6118519,42.8209646 45.6118519,43.48665 L45.6118519,51.2846795 C45.6118519,52.0454629 46.662963,52.2356588 46.9496296,52.1405608 C47.4274074,52.0454629 47.8096296,51.5699733 47.8096296,50.9042879 L47.8096296,49.7631128 L48.5740741,49.7631128 L48.4785185,50.9993858 C48.4785185,51.4748754 48.2874074,51.950365 48.1918519,52.2356588 C47.9051852,52.8062463 47.4274074,53.2817359 46.8540741,53.5670297 C46.1851852,53.9474213 45.3251852,53.9474213 45.0385185,53.9474213 C44.4651852,53.9474213 43.7962963,53.7572255 43.222963,53.3768338 C42.7451852,53.09154 42.2674074,52.2356588 42.2674074,51.950365 C42.1718519,52.1405608 41.8851852,52.3307567 41.3118519,52.9013442 C40.9296296,53.2817359 39.1140741,54.2327151 37.1074074,53.9474213 C34.5274074,53.5670297 34.2407407,51.950365 34.2407407,50.4287983 C34.2407407,49.6680149 34.3362963,48.336644 36.0562963,47.3856648 C37.2985185,46.7199793 38.8274074,46.3395876 39.9740741,45.864098 C40.5474074,45.6739022 41.3118519,45.3886084 42.0762963,45.1033147 L42.0762963,43.48665 L42.1718519,43.48665 Z" id="Fill-28"></path>
                <path d="M49.9755556,41.7295157 C49.9755556,41.5431008 49.5933333,41.0770637 49.4022222,40.9838562 C49.1155556,40.7974414 48.4466667,40.5178191 47.7777778,40.5178191 L47.7777778,39.7721596 L53.5111111,39.6789522 L53.5111111,41.8227231 C53.6066667,41.6363083 53.7022222,41.4498934 53.8933333,41.2634785 C54.18,40.8906488 55.4222222,39.4925373 57.1422222,39.4925373 C57.62,39.4925373 58.0977778,39.4925373 58.48,39.6789522 C59.7222222,40.2381968 59.7222222,41.2634785 59.7222222,41.6363083 C59.6266667,42.8480049 59.1488889,43.7800792 57.8111111,43.7800792 C56.8555556,43.7800792 56.0911111,43.5936643 55.9955556,42.4751751 C55.9,41.8227231 56.1866667,41.2634785 56.0911111,41.1702711 C55.9955556,41.0770637 55.6133333,41.0770637 55.2311111,41.2634785 C54.7533333,41.5431008 54.2755556,41.8227231 54.18,42.009138 C53.6066667,42.5683826 53.5111111,43.2208346 53.5111111,44.3393238 L53.5111111,50.7706366 C53.5111111,51.6095035 53.7022222,51.8891258 53.9888889,52.0755407 C54.6577778,52.5415778 55.9,52.4483704 56.2822222,52.4483704 L56.2822222,53.1940299 L47.9688889,53.1940299 L47.9688889,52.4483704 C48.2555556,52.4483704 48.6377778,52.4483704 48.9244444,52.4483704 C49.5933333,52.4483704 50.0711111,51.7027109 49.9755556,50.7706366 L49.9755556,41.7295157 Z" id="Fill-29"></path>
                <path d="M63.7743809,48.8554349 C64.2455621,50.3303639 64.8109796,51.2521945 65.6591059,51.6209268 C66.3187596,51.897476 67.0726496,51.989659 68.1092483,51.8052929 C68.8631383,51.6209268 69.8055008,50.6990962 69.8055008,50.6990962 L69.8055008,45.8133938 C69.8055008,44.6150139 69.899737,42.4026204 69.6170283,41.757339 C68.9573745,40.1902269 67.4495946,40.0980438 66.7899408,40.0980438 C66.1302871,40.0980438 65.6591059,40.4667761 65.4706334,40.6511422 C64.2455621,41.5729728 63.7743809,43.4166341 63.6801446,46.3664922 C63.4916721,46.3664922 63.5859084,48.3023365 63.7743809,48.8554349 M69.7112645,34.1061447 C69.7112645,33.092131 68.4861933,32.4468495 68.0150121,32.3546665 C67.8265396,32.2624834 67.0726496,32.2624834 66.4129958,32.2624834 L66.4129958,31.5250189 L73.0095332,31.4328358 L73.1980057,50.6069131 C73.1980057,51.1600115 74.0461319,51.8052929 74.6115494,51.897476 C75.0827307,51.989659 75.3654394,51.897476 75.6481481,51.989659 L75.6481481,52.7271236 C74.8942582,52.7271236 74.0461319,52.8193066 73.2922419,52.8193066 C72.161407,52.8193066 70.3709183,52.9114897 69.899737,52.9114897 L69.899737,51.3443776 C69.3343195,51.897476 68.0150121,52.8193066 67.3553583,53.0036727 C64.7167434,53.7411373 62.2666009,52.1740252 61.3242384,51.0678284 C60.0991672,49.6850825 59.7222222,47.1039567 59.7222222,46.4586752 C59.7222222,45.7212107 59.8164585,44.0619156 60.8530572,42.2182543 C61.5127109,41.1120575 63.7743809,39.4527624 66.2245233,39.2683962 C67.9207758,39.1762132 69.522792,39.7293116 69.8055008,40.0058608 C69.8055008,40.0980438 69.7112645,34.4748769 69.7112645,34.1061447" id="Fill-30"></path>
                <path d="M85.3412458,39.4925373 L85.4353535,43.8486734 L84.8707071,43.8486734 C84.5883838,42.7122901 84.0237374,41.9547012 83.7414141,41.6706053 C83.5531987,41.3865095 82.8944444,40.8183179 82.4239057,40.6289206 C81.953367,40.4395234 81.1063973,40.3448248 80.6358586,40.3448248 C79.0360269,40.3448248 78.7537037,41.765304 78.7537037,42.5228928 C78.7537037,43.0910845 78.9419192,43.6592762 79.4124579,44.0380706 C79.8829966,44.3221664 80.2594276,44.6062623 81.2005051,44.8903581 C82.8944444,45.4585497 83.3649832,45.647947 83.8355219,45.9320428 C85.0589226,46.6896317 86,47.5419192 86,49.53059 C86,50.6669733 85.9058923,51.3298636 85.0589226,52.3715483 C84.3060606,53.413233 82.706229,53.886726 81.3887205,53.9814246 C79.5065657,54.0761232 78.8478114,53.7920274 78.3772727,53.5079316 C77.7185185,53.2238358 77.530303,52.8450413 77.2479798,52.8450413 C77.0597643,52.8450413 76.9656566,52.9397399 76.8715488,53.0344385 C76.6833333,53.3185344 76.7774411,53.5079316 76.7774411,53.6973288 L75.7422559,53.6973288 L75.6481481,48.7730011 L76.3069024,48.7730011 C76.4951178,49.7199872 77.1538721,50.7616719 77.7185185,51.5192608 C78.283165,52.182151 79.5065657,53.3185344 81.1063973,53.2238358 C82.1415825,53.2238358 82.706229,52.7503427 83.0826599,52.2768497 C83.4590909,51.8980552 83.4590909,51.2351649 83.4590909,50.7616719 C83.4590909,50.1934802 83.2708754,49.9093844 83.1767677,49.8146858 C82.6121212,48.9623983 81.953367,48.6783025 81.2005051,48.3942067 C80.7299663,48.2048094 80.1653199,48.0154122 79.6006734,47.826015 C78.7537037,47.5419192 78.4713805,47.3525219 78.0949495,47.1631247 C76.1186869,46.2161386 75.9304714,44.3221664 75.9304714,43.3751803 C75.9304714,41.1971123 78.0949495,39.5872359 80.2594276,39.5872359 C80.8240741,39.5872359 81.3887205,39.5872359 82.329798,39.7766331 C83.2708754,39.9660304 83.8355219,40.4395234 84.0237374,40.2501262 C84.2119529,40.1554276 84.2119529,39.7766331 84.2119529,39.4925373 L85.3412458,39.4925373 Z" id="Fill-31"></path>
            </g>
        </g>
    </g>
</svg>