<?xml version="1.0" encoding="UTF-8"?>
<svg width="208px" height="61px" viewBox="0 0 208 61" version="1.1" xmlns="http://www.w3.org/2000/svg" xmlns:xlink="http://www.w3.org/1999/xlink">
    <!-- Generator: Sketch 50.2 (55047) - http://www.bohemiancoding.com/sketch -->
    <title>logo-trustpilot</title>
    <desc>Created with Sketch.</desc>
    <defs></defs>
    <g id="Designs---MVP" stroke="none" stroke-width="1" fill="none" fill-rule="evenodd">
        <g id="Assets" transform="translate(-229.000000, -745.000000)" fill-rule="nonzero">
            <g id="logo-black" transform="translate(235.000000, 751.000000)">
                <path d="M51.0172373,17 L70.7883649,17 L70.7883649,20.5746102 L63.0143644,20.5746102 L63.0143644,40.669265 L58.739526,40.669265 L58.739526,20.5746102 L51,20.5746102 L51,17 L51.0172373,17 Z M69.9437395,23.5311804 L73.5980369,23.5311804 L73.5980369,26.8385301 L73.6669859,26.8385301 C73.7876466,26.3708241 74.0117309,25.9198218 74.3392387,25.4855234 C74.6667465,25.0512249 75.0632033,24.6336303 75.528609,24.2828508 C75.9940148,23.9153675 76.5111324,23.6314031 77.0799617,23.3975501 C77.648791,23.1804009 78.2348576,23.0634744 78.8209241,23.0634744 C79.2690927,23.0634744 79.5966004,23.0801782 79.7689729,23.096882 C79.9413455,23.1135857 80.113718,23.1469933 80.3033277,23.1636971 L80.3033277,26.8051225 C80.0275317,26.7550111 79.7517357,26.7216036 79.4587024,26.688196 C79.1656691,26.6547884 78.8898731,26.6380846 78.6140771,26.6380846 C77.9590615,26.6380846 77.3385205,26.7717149 76.7524539,27.0222717 C76.1663874,27.2728285 75.6665071,27.6570156 75.2355758,28.1414254 C74.8046445,28.642539 74.4598994,29.2438753 74.2013407,29.9788419 C73.9427819,30.7138085 73.8221211,31.5489978 73.8221211,32.5011136 L73.8221211,40.6525612 L69.9265023,40.6525612 L69.9265023,23.5311804 L69.9437395,23.5311804 Z M98.2128322,40.669265 L94.3861623,40.669265 L94.3861623,38.2806236 L94.3172133,38.2806236 C93.8345703,39.1492205 93.1278429,39.8340757 92.1797941,40.3518931 C91.2317453,40.8697105 90.2664592,41.136971 89.2839358,41.136971 C86.9569069,41.136971 85.2676562,40.5857461 84.2334211,39.4665924 C83.199186,38.3474388 82.6820685,36.6603563 82.6820685,34.4053452 L82.6820685,23.5311804 L86.5776873,23.5311804 L86.5776873,34.0378619 C86.5776873,35.5412027 86.8707206,36.610245 87.4740244,37.2282851 C88.060091,37.8463252 88.9047163,38.1636971 89.9734259,38.1636971 C90.800814,38.1636971 91.4730668,38.0467706 92.0246588,37.7962138 C92.5762509,37.545657 93.0244194,37.2282851 93.3519272,36.8106904 C93.6966723,36.4097996 93.9379938,35.908686 94.093129,35.3407572 C94.2482643,34.7728285 94.3172133,34.1547884 94.3172133,33.486637 L94.3172133,23.5478842 L98.2128322,23.5478842 L98.2128322,40.669265 Z M104.849174,35.1737194 C104.969835,36.2761693 105.400766,37.0445434 106.141968,37.4955457 C106.900407,37.9298441 107.796744,38.1636971 108.848216,38.1636971 C109.210199,38.1636971 109.623893,38.1302895 110.089299,38.0801782 C110.554704,38.0300668 111.002873,37.9131403 111.39933,37.7628062 C111.813024,37.6124722 112.140531,37.3786192 112.416328,37.077951 C112.674886,36.7772829 112.795547,36.3930958 112.77831,35.908686 C112.761073,35.4242762 112.571463,35.0233853 112.226718,34.7227171 C111.881973,34.4053452 111.451041,34.1714922 110.916687,33.9710468 C110.382332,33.7873051 109.779028,33.6202673 109.089538,33.486637 C108.400048,33.3530067 107.710558,33.2026726 107.003831,33.0523385 C106.279866,32.9020045 105.573139,32.701559 104.900886,32.4844098 C104.228633,32.2672606 103.625329,31.9665924 103.090974,31.5824053 C102.55662,31.214922 102.125688,30.7305122 101.815418,30.1458797 C101.48791,29.5612472 101.332775,28.8429844 101.332775,27.9743875 C101.332775,27.0389755 101.574096,26.2706013 102.039502,25.6358575 C102.504908,25.0011136 103.108212,24.5 103.814939,24.1158129 C104.538904,23.7316258 105.331817,23.4643653 106.210917,23.2973274 C107.090017,23.1469933 107.934642,23.0634744 108.727556,23.0634744 C109.64113,23.0634744 110.52023,23.1636971 111.347618,23.3474388 C112.175006,23.5311804 112.933445,23.8318486 113.605698,24.266147 C114.277951,24.6837416 114.829543,25.2349666 115.277711,25.903118 C115.72588,26.5712695 116.001676,27.389755 116.122337,28.3418708 L112.054345,28.3418708 C111.864735,27.4398664 111.451041,26.8218263 110.778789,26.5211581 C110.106536,26.2037862 109.330859,26.0534521 108.468997,26.0534521 C108.193201,26.0534521 107.865693,26.0701559 107.486474,26.1202673 C107.107254,26.1703786 106.762509,26.2538976 106.417764,26.3708241 C106.090256,26.4877506 105.81446,26.6714922 105.573139,26.9053452 C105.349054,27.1391982 105.228394,27.4398664 105.228394,27.8240535 C105.228394,28.2917595 105.400766,28.6592428 105.728274,28.9432071 C106.055782,29.2271715 106.486713,29.4610245 107.021068,29.6614699 C107.555423,29.8452116 108.158726,30.0122494 108.848216,30.1458797 C109.537706,30.27951 110.244434,30.4298441 110.968398,30.5801782 C111.675126,30.7305122 112.364616,30.9309577 113.054106,31.1481069 C113.743596,31.3652561 114.3469,31.6659243 114.881254,32.0501114 C115.415609,32.4342984 115.846541,32.9020045 116.174048,33.4699332 C116.501556,34.0378619 116.673929,34.7561247 116.673929,35.591314 C116.673929,36.610245 116.432607,37.4621381 115.949964,38.1804009 C115.467321,38.8819599 114.84678,39.4665924 114.088341,39.9008909 C113.329902,40.3351893 112.468039,40.669265 111.537228,40.8697105 C110.606416,41.0701559 109.675605,41.1703786 108.76203,41.1703786 C107.641609,41.1703786 106.607374,41.0534521 105.659325,40.8028953 C104.711276,40.5523385 103.883888,40.1848552 103.194398,39.7004454 C102.504908,39.1993318 101.953316,38.5812918 101.556859,37.8463252 C101.160402,37.1113586 100.953555,36.2260579 100.919081,35.2071269 L104.849174,35.2071269 L104.849174,35.1737194 Z M117.708164,23.5311804 L120.655734,23.5311804 L120.655734,18.3864143 L124.551353,18.3864143 L124.551353,23.5311804 L128.067752,23.5311804 L128.067752,26.3541203 L124.551353,26.3541203 L124.551353,35.5077951 C124.551353,35.908686 124.56859,36.2427617 124.603064,36.5434298 C124.637539,36.8273942 124.723725,37.077951 124.844386,37.2783964 C124.965047,37.4788419 125.154656,37.6291759 125.413215,37.7293987 C125.671774,37.8296214 125.999282,37.8797327 126.44745,37.8797327 C126.723246,37.8797327 126.999042,37.8797327 127.274838,37.863029 C127.550634,37.8463252 127.82643,37.8129176 128.102226,37.7461024 L128.102226,40.669265 C127.671295,40.7193764 127.240364,40.752784 126.843907,40.8028953 C126.430213,40.8530067 126.016519,40.8697105 125.585588,40.8697105 C124.551353,40.8697105 123.723965,40.7694878 123.103424,40.5857461 C122.482882,40.4020045 121.983002,40.1180401 121.638257,39.7505568 C121.276275,39.3830735 121.052191,38.9320713 120.914293,38.3808463 C120.793632,37.8296214 120.707446,37.1948775 120.690208,36.4933185 L120.690208,26.3875278 L117.742638,26.3875278 L117.742638,23.5311804 L117.708164,23.5311804 Z M130.825712,23.5311804 L134.514484,23.5311804 L134.514484,25.8530067 L134.583433,25.8530067 C135.135025,24.8507795 135.893464,24.1492205 136.875988,23.714922 C137.858511,23.2806236 138.909983,23.0634744 140.064879,23.0634744 C141.461096,23.0634744 142.667704,23.2973274 143.701939,23.7817372 C144.736174,24.2494432 145.598037,24.9008909 146.287527,25.7360802 C146.977017,26.5712695 147.476897,27.5400891 147.821642,28.642539 C148.166387,29.7449889 148.33876,30.9309577 148.33876,32.1837416 C148.33876,33.3363029 148.183625,34.4554566 147.873354,35.5244989 C147.563084,36.610245 147.097678,37.5623608 146.477137,38.3975501 C145.856596,39.2327394 145.063682,39.8841871 144.098396,40.3853007 C143.13311,40.8864143 142.012689,41.136971 140.702657,41.136971 C140.133828,41.136971 139.564999,41.0868597 138.996169,40.986637 C138.42734,40.8864143 137.875748,40.7193764 137.358631,40.5022272 C136.841513,40.285078 136.341633,40.0011136 135.910701,39.6503341 C135.462533,39.2995546 135.100551,38.8986637 134.79028,38.4476615 L134.721331,38.4476615 L134.721331,47 L130.825712,47 L130.825712,23.5311804 Z M144.443141,32.1169265 C144.443141,31.3485523 144.339718,30.596882 144.13287,29.8619154 C143.926023,29.1269488 143.615753,28.4922049 143.202059,27.9242762 C142.788365,27.3563474 142.271247,26.9053452 141.667944,26.5712695 C141.047402,26.2371938 140.340675,26.0534521 139.547762,26.0534521 C137.910223,26.0534521 136.669141,26.6046771 135.841752,27.7071269 C135.014364,28.8095768 134.60067,30.27951 134.60067,32.1169265 C134.60067,32.9855234 134.704094,33.7873051 134.928178,34.5222717 C135.152262,35.2572383 135.462533,35.8919822 135.910701,36.4265033 C136.341633,36.9610245 136.85875,37.3786192 137.462054,37.6792873 C138.065358,37.9966592 138.772085,38.1469933 139.564999,38.1469933 C140.461336,38.1469933 141.202538,37.9632517 141.823079,37.6124722 C142.44362,37.2616927 142.9435,36.7939866 143.339957,36.2427617 C143.736414,35.674833 144.029447,35.0400891 144.201819,34.3218263 C144.356955,33.6035635 144.443141,32.8685969 144.443141,32.1169265 Z M151.320804,17 L155.216423,17 L155.216423,20.5746102 L151.320804,20.5746102 L151.320804,17 Z M151.320804,23.5311804 L155.216423,23.5311804 L155.216423,40.669265 L151.320804,40.669265 L151.320804,23.5311804 Z M158.698348,17 L162.593967,17 L162.593967,40.669265 L158.698348,40.669265 L158.698348,17 Z M174.539382,41.136971 C173.125928,41.136971 171.867608,40.903118 170.764424,40.4521158 C169.66124,40.0011136 168.730429,39.3663697 167.954752,38.5812918 C167.196313,37.77951 166.610247,36.8273942 166.21379,35.7249443 C165.817333,34.6224944 165.610486,33.403118 165.610486,32.0835189 C165.610486,30.7806236 165.817333,29.577951 166.21379,28.4755011 C166.610247,27.3730512 167.196313,26.4209354 167.954752,25.6191537 C168.713191,24.8173719 169.66124,24.1993318 170.764424,23.7483296 C171.867608,23.2973274 173.125928,23.0634744 174.539382,23.0634744 C175.952837,23.0634744 177.211156,23.2973274 178.31434,23.7483296 C179.417525,24.1993318 180.348336,24.8340757 181.124012,25.6191537 C181.882452,26.4209354 182.468518,27.3730512 182.864975,28.4755011 C183.261432,29.577951 183.468279,30.7806236 183.468279,32.0835189 C183.468279,33.403118 183.261432,34.6224944 182.864975,35.7249443 C182.468518,36.8273942 181.882452,37.77951 181.124012,38.5812918 C180.365573,39.3830735 179.417525,40.0011136 178.31434,40.4521158 C177.211156,40.903118 175.952837,41.136971 174.539382,41.136971 Z M174.539382,38.1469933 C175.401245,38.1469933 176.159684,37.9632517 176.797462,37.6124722 C177.435241,37.2616927 177.952358,36.7939866 178.366052,36.2260579 C178.779746,35.6581292 179.07278,35.0066815 179.279627,34.2884187 C179.469236,33.5701559 179.57266,32.8351893 179.57266,32.0835189 C179.57266,31.3485523 179.469236,30.6302895 179.279627,29.8953229 C179.090017,29.1603563 178.779746,28.5256125 178.366052,27.9576837 C177.952358,27.389755 177.435241,26.9387528 176.797462,26.5879733 C176.159684,26.2371938 175.401245,26.0534521 174.539382,26.0534521 C173.67752,26.0534521 172.919081,26.2371938 172.281302,26.5879733 C171.643524,26.9387528 171.126407,27.4064588 170.712712,27.9576837 C170.299018,28.5256125 170.005985,29.1603563 169.799138,29.8953229 C169.609528,30.6302895 169.506105,31.3485523 169.506105,32.0835189 C169.506105,32.8351893 169.609528,33.5701559 169.799138,34.2884187 C169.988748,35.0066815 170.299018,35.6581292 170.712712,36.2260579 C171.126407,36.7939866 171.643524,37.2616927 172.281302,37.6124722 C172.919081,37.9799555 173.67752,38.1469933 174.539382,38.1469933 Z M184.605937,23.5311804 L187.553507,23.5311804 L187.553507,18.3864143 L191.449126,18.3864143 L191.449126,23.5311804 L194.965525,23.5311804 L194.965525,26.3541203 L191.449126,26.3541203 L191.449126,35.5077951 C191.449126,35.908686 191.466363,36.2427617 191.500838,36.5434298 C191.535312,36.8273942 191.621499,37.077951 191.742159,37.2783964 C191.86282,37.4788419 192.05243,37.6291759 192.310989,37.7293987 C192.569548,37.8296214 192.897055,37.8797327 193.345224,37.8797327 C193.62102,37.8797327 193.896816,37.8797327 194.172612,37.863029 C194.448408,37.8463252 194.724204,37.8129176 195,37.7461024 L195,40.669265 C194.569069,40.7193764 194.138137,40.752784 193.741681,40.8028953 C193.327987,40.8530067 192.914293,40.8697105 192.483361,40.8697105 C191.449126,40.8697105 190.621738,40.7694878 190.001197,40.5857461 C189.380656,40.4020045 188.880776,40.1180401 188.536031,39.7505568 C188.174048,39.3830735 187.949964,38.9320713 187.812066,38.3808463 C187.691405,37.8296214 187.605219,37.1948775 187.587982,36.4933185 L187.587982,26.3875278 L184.640412,26.3875278 L184.640412,23.5311804 L184.605937,23.5311804 Z" id="Shape" fill="#191919"></path>
                <polygon id="Shape" fill="#00B67A" points="47 16.8155039 29.0523406 16.8155039 23.508662 0 17.9476594 16.8155039 0 16.7984496 14.5348323 27.2015504 8.97382971 44 23.508662 33.6139535 38.0261703 44 32.4824917 27.2015504"></polygon>
                <polygon id="Shape" fill="#005128" points="34 31.1515957 32.779661 27 24 34"></polygon>
            </g>
        </g>
    </g>
</svg>