<?xml version="1.0" encoding="UTF-8"?>
<svg width="87px" height="65px" viewBox="0 0 87 65" version="1.1" xmlns="http://www.w3.org/2000/svg" xmlns:xlink="http://www.w3.org/1999/xlink">
    <!-- Generator: Sketch 50.2 (55047) - http://www.bohemiancoding.com/sketch -->
    <title>logo-award-inc5000</title>
    <desc>Created with Sketch.</desc>
    <defs></defs>
    <g id="Designs---MVP" stroke="none" stroke-width="1" fill="none" fill-rule="evenodd">
        <g id="Assets" transform="translate(-239.000000, -318.000000)" fill="#A2B1C5" fill-rule="nonzero">
            <g id="awards-logo-inc-5000" transform="translate(241.000000, 320.000000)">
                <path d="M61.638311,20.6588981 C63.6478119,20.6588981 65.5886118,20.6588981 67.5294118,20.6588981 C67.39201,22.8346781 65.9836419,24.8480864 63.5619358,25.6437074 C60.1784173,26.7478345 56.7777236,26.6504116 53.5144316,25.302727 C51.9514865,24.6532404 50.6805202,23.5653504 49.7702335,21.9253969 C49.7702335,23.3542673 49.7702335,24.6207661 49.7702335,25.9359763 C46.0603858,25.9359763 42.4364142,25.9359763 38.7780922,25.9359763 C38.7780922,24.5882918 38.7780922,23.2406072 38.7780922,21.8117368 C39.3964002,21.8117368 40.0490585,21.8117368 40.787593,21.8117368 C40.787593,20.0905974 40.8562939,18.4344067 40.7704178,16.8106903 C40.7188922,15.787749 39.070071,15.1382625 37.7304037,15.4954801 C36.6140144,15.8039862 35.6865525,16.8269275 35.652202,17.9310546 C35.6006764,19.1650791 35.6350268,20.4153407 35.6350268,21.7630253 C36.1502834,21.7630253 36.6311896,21.7792624 37.1120958,21.7630253 C37.6445276,21.7305509 37.9021559,21.8929226 37.8849807,22.4449861 C37.8506303,23.5815876 37.8678055,24.7181891 37.8678055,25.9197392 C34.1064322,25.9197392 30.3794093,25.9197392 26.5321598,25.9197392 C26.5321598,24.6857147 26.5149846,23.419216 26.5665102,22.1689544 C26.5665102,22.0228199 26.9443651,21.8117368 27.167643,21.7792624 C27.6141987,21.7143138 28.0607544,21.7630253 28.5588359,21.7630253 C28.5588359,19.6359568 28.5588359,17.5900742 28.5588359,15.4305314 C28.0951049,15.4305314 27.5970235,15.4792429 27.1504677,15.4142942 C26.9271899,15.3818199 26.5836855,15.1057881 26.5665102,14.9271793 C26.5149846,13.7256292 26.5321598,12.5078419 26.5321598,11.2575803 C29.5206482,11.2575803 32.4232605,11.2575803 35.4289242,11.2575803 C35.4289242,12.11815 35.4289242,12.9949568 35.4289242,13.8555265 C36.3735613,13.20604 37.1807967,12.4428933 38.142609,12.020727 C40.6501913,10.9653114 43.2608248,10.9490742 45.6997062,12.1993358 C47.0393734,12.8812967 47.8294335,14.0828468 47.8122583,15.6091402 C47.8122583,17.6387857 47.8122583,19.652194 47.8122583,21.7143138 C48.4477415,21.7143138 49.0145238,21.7143138 49.5469556,21.7143138 C49.4267291,21.0648272 49.2893273,20.3828664 49.1691008,19.7171426 C48.7397202,17.3302796 49.5126052,15.2843969 51.3331786,13.6606806 C52.9304741,12.2318102 54.9571502,11.6310351 57.121228,11.3387661 C58.8387501,11.1114459 60.5219217,11.1439202 62.1535677,11.5823236 C65.1764065,12.3779446 67.1343817,14.1640326 67.4607109,17.3627539 C66.6706507,17.476414 65.8634154,17.5900742 65.05618,17.6874972 C64.0600172,17.8011573 63.0466791,17.9148175 62.0333411,17.9960033 C61.3119818,18.0609519 61.397858,17.5413627 61.3635075,17.1354336 C61.2776314,16.1612038 60.9513022,15.2843969 59.8864385,14.9434165 C58.0486899,14.3426414 56.4857448,15.1707368 56.2452917,17.3789911 C56.1250652,18.4506439 56.2796422,19.5710082 56.3826935,20.6588981 C56.5372705,22.3150888 57.7223607,22.8671524 58.9589766,22.8671524 C60.2471182,22.8671524 61.397858,22.3150888 61.638311,20.6588981 Z" id="Shape"></path>
                <path d="M7.2976924,32.326639 C7.17842987,33.3964989 7.07620484,34.3404929 6.95694232,35.3946195 C8.72884273,34.4978252 10.5859307,34.482092 12.4600561,34.5607581 C16.0549694,34.7338237 19.5987703,36.983676 20.0417454,40.7124522 C20.535833,44.7873595 17.7246448,48.2801372 13.6867564,49.145465 C10.7733432,49.7747943 7.80881751,49.821994 4.91244184,48.8308004 C2.1523662,47.8868064 0.687140855,45.967352 0.056753208,43.3871018 C-0.113621832,42.6948395 0.0908282159,42.5847069 0.789365879,42.5532404 C2.27162872,42.4745743 3.73685407,42.254309 5.20207941,42.1127099 C5.67912952,42.0655102 6.15617963,42.1127099 6.4628547,42.1127099 C6.75249227,42.8993716 6.8717548,43.6860332 7.2976924,44.2524296 C8.64365521,46.0302849 12.0000435,45.495355 12.8348812,43.607367 C13.6356439,41.7980453 12.9371062,39.2964612 10.8074182,38.9031304 C9.49553041,38.6671319 8.1836426,38.5884657 7.16139236,39.7055253 C6.97397982,39.9257905 6.51396721,40.0831229 6.22432965,40.0516564 C4.53761675,39.8785908 2.86794136,39.6425923 1.14715346,39.4223271 C1.57309106,35.5834183 1.99902866,31.7917091 2.42496626,28 C8.13253009,28 13.6867564,28 19.3772827,28 C19.2239452,29.4474574 19.0876451,30.8634484 18.9343076,32.3423723 C15.1008692,32.326639 11.2333558,32.326639 7.2976924,32.326639 Z" id="Shape"></path>
                <path d="M22.9683514,22.2162162 C23.9342281,22.2162162 24.8122977,22.2162162 25.7254902,22.2162162 C25.7254902,23.6432432 25.7254902,24.9891892 25.7254902,26.4 C20.896107,26.4 16.119408,26.4 11.2724634,26.4 C11.2724634,25.0378378 11.2724634,23.6756757 11.2724634,22.2648649 C12.0802875,22.2648649 12.8881116,22.2648649 13.7661812,22.2648649 C13.7661812,18.6810811 13.7661812,15.1621622 13.7661812,11.5459459 C12.9583571,11.5459459 12.1329716,11.5459459 11.254902,11.5459459 C11.254902,10.0702703 11.254902,8.67567568 11.254902,7.2 C16.031601,7.2 20.8434228,7.2 25.7254902,7.2 C25.7254902,8.59459459 25.7254902,10.0054054 25.7254902,11.5135135 C25.0230345,11.5135135 24.3381401,11.5297297 23.6356844,11.5135135 C23.1439654,11.4972973 22.9683514,11.6918919 22.9683514,12.1459459 C22.9859128,15.4540541 22.9683514,18.7783784 22.9683514,22.2162162 Z" id="Shape"></path>
                <path d="M62.7058824,9.21795167 C63.4127163,8.62324511 63.9471518,8.13808976 64.5160669,7.69988493 C65.1539415,7.1990794 65.8090559,6.71392405 66.4814102,6.2287687 C66.9296464,5.90011507 67.084805,5.6027618 66.7917275,5.05500575 C66.0676537,3.70909091 65.447019,2.31622555 64.6884655,0.766858458 C66.49865,1.73716916 68.1364361,2.629229 69.791462,3.52128884 C71.2568495,2.36317606 72.6877573,1.22071346 74.239344,0 C73.7911079,1.79976985 73.3601115,3.48998849 72.9291152,5.21150748 C74.5496614,6.10356732 76.1702076,6.97997699 77.9803922,7.98158803 C76.2736467,8.10678941 74.7910193,8.24764097 73.2911521,8.32589183 C72.1533218,8.38849252 72.0326429,8.46674338 71.8257646,9.45270426 C71.5326871,10.7673188 71.1706502,12.0819333 70.7913734,13.6 C70.1017793,12.1758343 69.4639047,10.9864212 68.9294693,9.75005754 C68.4122737,8.56064442 68.6191519,8.76409666 67.205484,8.81104718 C65.7745762,8.87364787 64.3436684,9.06144994 62.7058824,9.21795167 Z" id="Shape"></path>
                <path d="M61.9019608,4.12471483 C61.2643152,4.68745247 60.6266696,5.25019011 59.9722439,5.79771863 C59.6869814,6.04106464 59.636641,6.22357414 59.8380028,6.54296578 C60.2910667,7.24258555 60.6937902,7.97262357 61.012613,8.8243346 C60.0561447,8.39847909 59.0828962,7.9878327 58.1599881,7.57718631 C57.3209808,8.26159696 56.5323139,8.91558935 55.7268668,9.6 C55.861108,8.68745247 55.9953492,7.74448669 56.1463705,6.74068441 C55.2066823,6.29961977 54.2334338,5.85855513 53.0588235,5.29581749 C54.1159728,5.12851711 54.9549801,4.96121673 55.8107676,4.86996198 C56.3309521,4.80912548 56.5658742,4.67224335 56.5994345,4.13992395 C56.6497749,3.36425856 56.8343565,2.58859316 56.9853778,1.6 C57.3545411,2.2539924 57.6398035,2.74068441 57.925066,3.24258555 C58.6130521,4.48973384 58.6130521,4.48973384 60.1400454,4.15513308 C60.6937902,4.03346008 61.2643152,4.00304183 61.8180601,3.9269962 C61.8348402,3.9878327 61.8684005,4.06387833 61.9019608,4.12471483 Z" id="Shape"></path>
                <path d="M74.846174,15.0446602 C75.2519777,14.0504854 75.6239643,13.1029126 76.0635849,12 C76.4017546,12.9786408 76.7230158,13.7864078 76.9259176,14.6252427 C77.044277,15.0912621 77.2979042,15.184466 77.7544333,15.168932 C78.616766,15.1533981 79.4621902,15.168932 80.3245229,15.168932 C80.3414314,15.231068 80.3752484,15.2932039 80.3921569,15.3708738 C79.7158175,15.7747573 79.0563866,16.1941748 78.3631388,16.5514563 C77.8051588,16.831068 77.534623,17.0951456 77.8220673,17.7320388 C78.12642,18.415534 78.2955048,19.176699 78.3969557,20 C77.5515315,19.3786408 76.7061073,18.7728155 75.8268661,18.1203883 C74.913808,18.6640777 73.9838413,19.238835 72.8847899,19.8912621 C73.2567765,18.9902913 73.5611292,18.2135922 73.9162074,17.4524272 C74.1360177,16.9708738 73.9500244,16.7067961 73.5442207,16.4271845 C72.8509729,15.961165 72.157725,15.4640777 71.5490196,14.8271845 C72.6311626,14.9203883 73.7302141,14.9825243 74.846174,15.0446602 Z" id="Shape"></path>
                <path d="M72.3527576,23.9599351 C72.3366304,25.220366 71.2077318,26.4 70.0143246,26.4 C68.756409,26.4 67.4823662,25.1234097 67.5307476,23.911457 C67.579129,22.7156636 68.7886633,21.5683483 70.0143246,21.600667 C71.3206217,21.6168264 72.3688847,22.6671855 72.3527576,23.9599351 Z" id="Shape"></path>
                <g id="Group" transform="translate(2.411765, 52.800000)">
                    <polygon id="Shape" points="1.46746204 1.35818182 1.46746204 2.74909091 3.66002297 2.74909091 3.66002297 3.91090909 1.46746204 3.91090909 1.46746204 5.79272727 4.47144315 5.79272727 4.47144315 6.95454545 0.0863212964 6.95454545 0.0863212964 0.196363636 4.3678576 0.196363636 4.3678576 1.35818182"></polygon>
                    <path d="M14.7954702,6.34909091 C14.2084854,5.84181818 13.8804645,5.13818182 13.8804645,4.10727273 L13.8804645,0.196363636 L15.2616052,0.196363636 L15.2616052,4.20545455 C15.2616052,4.82727273 15.4342478,5.20363636 15.7277402,5.46545455 C16.0384969,5.74363636 16.4528391,5.90727273 16.9362384,5.90727273 C17.4196376,5.90727273 17.8339798,5.76 18.1447365,5.46545455 C18.4382289,5.20363636 18.6108715,4.82727273 18.6108715,4.20545455 L18.6108715,0.196363636 L19.9920122,0.196363636 L19.9920122,4.10727273 C19.9920122,5.13818182 19.6639913,5.85818182 19.0770065,6.34909091 C18.5245502,6.80727273 17.7476585,7.03636364 16.9362384,7.03636364 C16.1420824,7.05272727 15.3479265,6.82363636 14.7954702,6.34909091 Z" id="Shape"></path>
                    <path d="M31.1965165,3.96 L31.1965165,6.95454545 L29.8153758,6.95454545 L29.8153758,0.196363636 L32.4050147,0.196363636 C33.1301136,0.196363636 33.6135128,0.392727273 33.958798,0.703636364 C34.3386117,1.04727273 34.5975756,1.53818182 34.5975756,2.07818182 C34.5975756,2.61818182 34.355876,3.10909091 33.958798,3.45272727 C33.7688912,3.63272727 33.5271915,3.76363636 33.2509634,3.84545455 L35.9096593,6.93818182 L34.2177619,6.93818182 L31.6799158,3.94363636 L31.1965165,3.94363636 L31.1965165,3.96 Z M32.3359576,2.79818182 C32.7330356,2.79818182 32.9056782,2.71636364 33.026528,2.60181818 C33.1473778,2.48727273 33.2336991,2.29090909 33.2336991,2.09454545 C33.2336991,1.89818182 33.1473778,1.70181818 33.026528,1.57090909 C32.9056782,1.44 32.7330356,1.35818182 32.3359576,1.35818182 L31.1965165,1.35818182 L31.1965165,2.79818182 L32.3359576,2.79818182 Z" id="Shape"></path>
                    <path d="M47.6838841,0.0981818182 C49.8764451,0.0981818182 51.3956999,1.65272727 51.3956999,3.56727273 C51.3956999,5.48181818 49.8764451,7.03636364 47.6838841,7.03636364 C45.4913232,7.03636364 43.9720684,5.48181818 43.9720684,3.56727273 C43.9720684,1.65272727 45.474059,0.0981818182 47.6838841,0.0981818182 Z M47.6838841,5.89090909 C49.0304964,5.89090909 50.0318234,4.84363636 50.0318234,3.56727273 C50.0318234,2.29090909 49.0304964,1.24363636 47.6838841,1.24363636 C46.3372719,1.24363636 45.3359449,2.29090909 45.3359449,3.56727273 C45.3359449,4.84363636 46.3372719,5.89090909 47.6838841,5.89090909 Z" id="Shape"></path>
                    <path d="M62.1340692,4.20545455 L62.1340692,6.95454545 L60.7529284,6.95454545 L60.7529284,0.196363636 L63.4288886,0.196363636 C64.3438943,0.196363636 64.8790864,0.409090909 65.2761643,0.801818182 C65.6387138,1.14545455 65.8286206,1.66909091 65.8286206,2.19272727 C65.8286206,2.71636364 65.6214495,3.24 65.2761643,3.58363636 C64.8963506,3.97636364 64.3438943,4.18909091 63.4288886,4.18909091 L62.1340692,4.20545455 Z M63.3770958,3.04363636 C63.8432308,3.04363636 64.0849305,2.94545455 64.2403088,2.76545455 C64.3956871,2.61818182 64.4820084,2.42181818 64.4820084,2.19272727 C64.4820084,1.96363636 64.3956871,1.76727273 64.2403088,1.62 C64.0849305,1.45636364 63.8432308,1.34181818 63.3770958,1.34181818 L62.1340692,1.34181818 L62.1340692,3.02727273 L63.3770958,3.02727273 L63.3770958,3.04363636 Z" id="Shape"></path>
                    <polygon id="Shape" points="76.4979329 1.35818182 76.4979329 2.74909091 78.6904938 2.74909091 78.6904938 3.91090909 76.4979329 3.91090909 76.4979329 5.79272727 79.501914 5.79272727 79.501914 6.95454545 75.1167921 6.95454545 75.1167921 0.196363636 79.3983284 0.196363636 79.3983284 1.35818182"></polygon>
                </g>
                <path d="M61.9019608,39.1521368 C61.9019608,32.1162393 65.7762816,28 71.9509804,28 C78.1083831,28 82,32.1002849 82,39.1680912 C82,46.1720798 78.1602713,50.4 71.9509804,50.4 C65.7243934,50.4 61.9019608,46.1880342 61.9019608,39.1521368 Z M75.2372347,39.2319088 C75.2372347,34.9720798 73.9573251,32.8501425 72.0547568,32.8501425 C70.1348925,32.8501425 68.872279,34.9720798 68.872279,39.2319088 C68.872279,43.5236467 70.1348925,45.7094017 72.0547568,45.7094017 C73.9573251,45.6934473 75.2372347,43.5076923 75.2372347,39.2319088 Z" id="Shape"></path>
                <path d="M41,39.1521368 C41,32.1162393 44.8743208,28 51.0490196,28 C57.2064223,28 61.0980392,32.1002849 61.0980392,39.1680912 C61.0980392,46.1720798 57.2583106,50.4 51.0490196,50.4 C44.8224326,50.4 41,46.1880342 41,39.1521368 Z M54.3179778,39.2319088 C54.3179778,34.9720798 53.0380682,32.8501425 51.1355,32.8501425 C49.2329317,32.8501425 47.9530222,34.9720798 47.9530222,39.2319088 C47.9530222,43.5236467 49.2156357,45.7094017 51.1355,45.7094017 C53.0553643,45.7094017 54.3179778,43.5076923 54.3179778,39.2319088 Z" id="Shape"></path>
                <path d="M20.9019608,39.1521368 C20.9019608,32.1162393 24.7762816,28 30.9509804,28 C37.1083831,28 41,32.1002849 41,39.1680912 C41,46.1720798 37.1602713,50.4 30.9509804,50.4 C24.7243934,50.4 20.9019608,46.1880342 20.9019608,39.1521368 Z M34.2372347,39.2319088 C34.2372347,34.9720798 32.9573251,32.8501425 31.0547568,32.8501425 C29.1348925,32.8501425 27.872279,34.9720798 27.872279,39.2319088 C27.872279,43.5236467 29.1348925,45.7094017 31.0547568,45.7094017 C32.9573251,45.6934473 34.2372347,43.5076923 34.2372347,39.2319088 Z" id="Shape"></path>
            </g>
        </g>
    </g>
</svg>