<?xml version="1.0" encoding="UTF-8"?>
<svg width="54px" height="65px" viewBox="0 0 54 65" version="1.1" xmlns="http://www.w3.org/2000/svg" xmlns:xlink="http://www.w3.org/1999/xlink">
    <!-- Generator: Sketch 50.2 (55047) - http://www.bohemiancoding.com/sketch -->
    <title>logo-award-queens</title>
    <desc>Created with Sketch.</desc>
    <defs></defs>
    <g id="Designs---MVP" stroke="none" stroke-width="1" fill="none" fill-rule="evenodd">
        <g id="Assets" transform="translate(-533.000000, -318.000000)" fill="#A2B1C5" fill-rule="nonzero">
            <g id="awards-logo-queens-award-for-enterprise" transform="translate(536.000000, 322.000000)">
                <path d="M22.3502825,6.69483568 C22.7028249,6.69483568 23.0553672,7.01877934 23.0553672,7.342723 C23.0553672,7.66666667 22.7028249,7.99061033 22.3502825,7.99061033 C21.9977401,7.99061033 21.6451977,7.66666667 21.6451977,7.342723 C21.5276836,7.01877934 21.880226,6.69483568 22.3502825,6.69483568 Z M23.9954802,5.83098592 C24.3480226,5.83098592 24.700565,6.15492958 24.700565,6.47887324 C24.700565,6.91079812 24.3480226,7.12676056 23.9954802,7.12676056 C23.6429379,7.12676056 23.2903955,6.8028169 23.2903955,6.47887324 C23.1728814,6.04694836 23.5254237,5.83098592 23.9954802,5.83098592 Z M25.640678,5.07511737 C25.9932203,5.07511737 26.3457627,5.39906103 26.3457627,5.72300469 C26.3457627,6.04694836 25.9932203,6.37089202 25.640678,6.37089202 C25.2881356,6.37089202 24.9355932,6.04694836 24.9355932,5.72300469 C24.9355932,5.39906103 25.2881356,5.07511737 25.640678,5.07511737 Z M27.520904,4.64319249 C27.8734463,4.64319249 28.2259887,4.96713615 28.2259887,5.29107981 C28.2259887,5.61502347 27.9909605,5.93896714 27.520904,5.93896714 C27.1683616,5.93896714 26.8158192,5.61502347 26.8158192,5.29107981 C26.8158192,4.85915493 27.0508475,4.53521127 27.520904,4.64319249 Z M30.5762712,2.69953052 C31.2813559,2.80751174 31.8689266,3.45539906 31.7514124,4.10328638 C31.7514124,4.85915493 31.0463277,5.61502347 30.2237288,5.50704225 C29.2836158,5.50704225 28.5785311,4.85915493 28.5785311,4.10328638 C28.5785311,3.45539906 29.0485876,2.91549296 29.7536723,2.69953052 L29.7536723,1.83568075 L28.9310734,1.83568075 L28.9310734,1.18779343 L29.7536723,1.18779343 L29.7536723,0 L30.4587571,0 L30.4587571,1.18779343 L31.2813559,1.18779343 L31.2813559,1.83568075 L30.4587571,1.83568075 L30.4587571,2.69953052 L30.5762712,2.69953052 Z M40.0949153,7.77464789 C40.4474576,7.77464789 40.8,8.09859155 40.8,8.42253521 C40.8,8.74647887 40.4474576,9.07042254 40.0949153,9.07042254 C39.6248588,9.07042254 39.3898305,8.74647887 39.3898305,8.42253521 C39.3898305,8.09859155 39.7423729,7.77464789 40.0949153,7.77464789 Z M38.5672316,6.58685446 C38.919774,6.58685446 39.2723164,6.91079812 39.2723164,7.23474178 C39.2723164,7.55868545 38.919774,7.88262911 38.5672316,7.88262911 C38.2146893,7.88262911 37.8621469,7.55868545 37.8621469,7.23474178 C37.8621469,6.91079812 38.2146893,6.58685446 38.5672316,6.58685446 Z M36.8045198,5.72300469 C37.1570621,5.72300469 37.5096045,6.04694836 37.5096045,6.37089202 C37.5096045,6.69483568 37.1570621,7.01877934 36.8045198,7.01877934 C36.4519774,7.01877934 36.099435,6.69483568 36.099435,6.37089202 C36.099435,6.04694836 36.4519774,5.83098592 36.8045198,5.72300469 Z M34.9242938,5.07511737 C35.2768362,5.07511737 35.6293785,5.39906103 35.6293785,5.72300469 C35.6293785,6.04694836 35.2768362,6.37089202 34.9242938,6.37089202 C34.5717514,6.37089202 34.219209,6.04694836 34.219209,5.72300469 C34.219209,5.29107981 34.5717514,5.07511737 34.9242938,5.07511737 Z M33.0440678,4.64319249 C33.3966102,4.64319249 33.7491525,4.96713615 33.7491525,5.29107981 C33.7491525,5.61502347 33.3966102,5.93896714 33.0440678,5.93896714 C32.6915254,5.93896714 32.3389831,5.61502347 32.3389831,5.29107981 C32.3389831,4.85915493 32.6915254,4.64319249 33.0440678,4.64319249 Z M30.4587571,6.15492958 C34.219209,6.15492958 37.979661,7.66666667 40.5649718,10.258216 L38.919774,11.0140845 L38.919774,10.3661972 C37.3920904,8.85446009 33.9841808,7.45070423 31.9864407,7.45070423 L31.6338983,9.9342723 L30.5762712,8.96244131 L29.4011299,10.0422535 L28.9310734,7.342723 C26.9333333,7.342723 23.760452,8.96244131 22.2327684,10.3661972 L22.2327684,11.0140845 L20.4700565,10.258216 C22.9378531,7.66666667 26.6983051,6.15492958 30.4587571,6.15492958 Z M37.979661,18.4647887 L40.8,10.9061033 L38.8022599,11.8779343 L38.6847458,12.9577465 C38.4497175,12.5258216 37.979661,11.8779343 37.3920904,11.8779343 C35.8644068,11.8779343 35.9819209,13.8215962 36.4519774,14.9014085 L37.1570621,14.9014085 C37.1570621,14.3615023 36.9220339,13.6056338 37.5096045,13.6056338 C38.0971751,13.6056338 38.2146893,15.5492958 36.3344633,15.5492958 C35.3943503,15.5492958 34.6892655,14.7934272 35.0418079,12.9577465 L35.7468927,12.9577465 L35.8644068,12.0938967 L35.159322,12.0938967 L35.5118644,10.258216 L34.5717514,10.258216 L34.3367232,11.9859155 L33.7491525,11.9859155 C33.7491525,12.3098592 33.6316384,12.5258216 33.6316384,12.8497653 C33.8666667,12.8497653 33.9841808,12.8497653 34.219209,12.8497653 C34.1016949,13.9295775 33.7491525,15.5492958 32.1039548,15.4413146 C30.5762712,15.3333333 30.8112994,13.3896714 31.6338983,13.4976526 C32.1039548,13.4976526 31.8689266,14.3615023 31.6338983,14.7934272 L32.4564972,14.7934272 C33.279096,13.6056338 33.5141243,11.7699531 32.2214689,11.7699531 C31.6338983,11.7699531 31.3988701,12.0938967 31.0463277,12.4178404 L31.2813559,10.7981221 L30.3412429,9.82629108 L29.1661017,10.6901408 L29.4011299,12.3098592 C29.0485876,12.0938967 28.6960452,11.6619718 28.1084746,11.6619718 C26.9333333,11.7699531 27.2858757,13.3896714 27.8734463,14.685446 L28.8135593,14.685446 C28.5785311,14.1455399 28.4610169,13.3896714 28.9310734,13.3896714 C30.1062147,13.2816901 29.8711864,15.2253521 28.3435028,15.3333333 C26.8158192,15.3333333 26.6983051,13.713615 26.580791,12.741784 C26.8158192,12.741784 26.9333333,12.741784 27.2858757,12.741784 C27.2858757,12.4178404 27.1683616,12.2018779 27.1683616,11.8779343 L26.4632768,11.8779343 L26.1107345,10.0422535 L25.1706215,10.0422535 L25.4056497,11.8779343 L24.700565,11.8779343 L24.8180791,12.6338028 L25.5231638,12.6338028 C25.8757062,14.4694836 25.1706215,15.2253521 24.2305085,15.2253521 C22.4677966,15.2253521 22.5853107,13.2816901 23.0553672,13.2816901 C23.6429379,13.2816901 23.4079096,14.1455399 23.4079096,14.685446 L24.1129944,14.685446 C24.8180791,13.4976526 24.5830508,11.6619718 23.0553672,11.6619718 C22.4677966,11.6619718 22.2327684,12.4178404 22.1152542,12.741784 L22.3502825,11.8779343 L20.1175141,10.7981221 L23.1728814,18.3568075 L37.979661,18.3568075 L37.979661,18.4647887 Z M20.7050847,7.66666667 C21.0576271,7.66666667 21.4101695,7.99061033 21.4101695,8.31455399 C21.4101695,8.63849765 21.0576271,8.96244131 20.7050847,8.96244131 C20.3525424,8.96244131 20,8.63849765 20,8.31455399 C20,7.99061033 20.3525424,7.66666667 20.7050847,7.66666667 Z" id="Fill-1"></path>
                <g id="Group-5" transform="translate(0.000000, 16.056338)">
                    <path d="M34.1931707,21.3126761 C31.8126829,22.4112676 28.9560976,22.8507042 26.0995122,22.5211268 L26.8136585,20.8732394 C28.5990244,16.6985915 31.3365854,12.9633803 34.3121951,10.5464789 C36.097561,9.11830986 37.8829268,8.23943662 39.5492683,8.23943662 C44.0721951,8.12957746 43.8341463,16.3690141 34.7882927,20.9830986 C34.5502439,21.2028169 34.3121951,21.3126761 34.1931707,21.3126761 M31.8126829,37.2422535 C28.3609756,37.2422535 24.195122,35.5943662 24.0760976,30.5408451 C24.0760976,29.771831 24.195122,29.0028169 24.3141463,28.2338028 C27.4087805,27.684507 30.8604878,26.6957746 34.1931707,25.3774648 C39.1921951,23.2901408 43.8341463,20.3239437 46.0956098,16.3690141 C47.1668293,14.8309859 47.6429268,13.1830986 47.6429268,11.6450704 C47.6429268,8.34929577 45.0243902,6.5915493 40.8585366,6.70140845 C38.5970732,6.70140845 36.3356098,7.25070423 34.0741463,8.12957746 C28.2419512,10.4366197 22.7668293,15.3802817 19.6721951,20.8732394 C19.6721951,20.8732394 19.5531707,20.8732394 19.5531707,20.8732394 C18.6009756,20.4338028 17.2917073,19.5549296 15.7443902,18.456338 C14.9112195,17.7971831 14.1970732,17.1380282 13.3639024,16.3690141 C13.0068293,15.9295775 12.5307317,15.4901408 12.0546341,15.0507042 C11.5785366,14.5014085 10.7453659,13.6225352 10.1502439,12.8535211 C10.1502439,12.8535211 9.79317073,12.4140845 9.55512195,12.1943662 C9.31707317,11.5352113 9.07902439,10.9859155 8.60292683,10.5464789 C8.12682927,9.88732394 7.65073171,9.11830986 7.17463415,8.45915493 C6.4604878,7.47042254 5.74634146,6.37183099 5.15121951,5.38309859 C5.03219512,5.27323944 4.91317073,4.94366197 4.91317073,4.94366197 C4.43707317,4.06478873 4.08,3.4056338 3.60390244,2.52676056 C3.48487805,2.41690141 3.36585366,2.08732394 3.24682927,1.86760563 C3.12780488,1.75774648 3.00878049,1.53802817 2.8897561,1.42816901 C2.65170732,0.988732394 2.17560976,0.65915493 1.81853659,0.549295775 C1.6995122,0.549295775 1.5804878,0.549295775 1.46146341,0.65915493 C1.22341463,0.878873239 1.22341463,1.2084507 1.22341463,1.42816901 C1.22341463,1.86760563 1.22341463,2.41690141 1.22341463,2.85633803 C1.22341463,3.07605634 1.34243902,3.51549296 1.46146341,4.06478873 C1.6995122,5.16338028 2.8897561,7.8 2.8897561,7.8 C3.24682927,8.34929577 3.48487805,8.89859155 3.84195122,9.44788732 C4.43707317,10.3267606 4.91317073,11.2056338 5.62731707,12.084507 C6.69853659,13.4028169 7.88878049,14.6112676 8.96,15.8197183 C8.96,15.8197183 8.84097561,15.8197183 8.72195122,15.7098592 C8.24585366,15.3802817 7.29365854,14.5014085 6.93658537,14.2816901 C6.10341463,13.6225352 5.38926829,12.9633803 4.67512195,12.1943662 C4.67512195,12.084507 2.8897561,10.656338 2.29463415,10.1070423 C2.05658537,9.77746479 1.34243902,9.22816901 0.985365854,9.11830986 C0.866341463,9.11830986 0.509268293,9.0084507 0.390243902,9.22816901 C0.390243902,9.22816901 0.390243902,9.33802817 0.271219512,9.33802817 C0.271219512,9.44788732 0.271219512,9.66760563 0.271219512,9.77746479 C0.390243902,10.1070423 0.390243902,10.3267606 0.509268293,10.5464789 C0.628292683,10.7661972 0.747317073,11.0957746 0.866341463,11.315493 C1.22341463,11.9746479 1.5804878,12.6338028 2.05658537,13.2929577 C2.53268293,13.9521127 3.00878049,14.5014085 3.48487805,15.0507042 C4.79414634,16.4788732 6.34146341,17.5774648 7.88878049,18.7859155 C8.72195122,19.2253521 9.43609756,19.7746479 10.2692683,20.2140845 C10.6263415,20.3239437 11.102439,20.543662 11.102439,20.6535211 C9.43609756,19.9943662 7.7697561,19.2253521 6.22243902,18.456338 C5.38926829,18.0169014 4.67512195,17.5774648 3.96097561,17.1380282 C3.72292683,17.028169 3.00878049,16.5887324 2.65170732,16.3690141 C2.41365854,16.2591549 2.05658537,16.0394366 1.6995122,16.1492958 C1.34243902,16.2591549 1.46146341,16.8084507 1.5804878,17.028169 C1.5804878,17.028169 1.81853659,17.5774648 2.05658537,17.7971831 C2.41365854,18.3464789 2.8897561,18.7859155 3.36585366,19.2253521 C3.60390244,19.4450704 3.84195122,19.6647887 4.08,19.884507 C4.55609756,20.2140845 5.03219512,20.6535211 5.50829268,20.9830986 C6.10341463,21.2028169 6.81756098,21.6422535 7.53170732,21.971831 C7.7697561,22.0816901 8.00780488,22.3014085 8.36487805,22.4112676 C9.07902439,22.7408451 9.91219512,23.0704225 10.6263415,23.4 C10.7453659,23.4 11.8165854,23.8394366 12.2926829,24.0591549 C12.2926829,24.0591549 13.0068293,24.2788732 13.3639024,24.3887324 C13.1258537,24.3887324 11.4595122,24.1690141 11.2214634,24.0591549 C10.5073171,23.9492958 9.91219512,23.8394366 9.19804878,23.7295775 C8.36487805,23.6197183 7.53170732,23.4 6.69853659,23.1802817 C6.34146341,23.0704225 5.86536585,22.9605634 5.62731707,23.1802817 C5.50829268,23.2901408 5.50829268,23.2901408 5.50829268,23.2901408 C5.50829268,23.5098592 5.50829268,23.7295775 5.74634146,23.9492958 C6.22243902,24.3887324 6.5795122,24.6084507 7.17463415,24.9380282 C7.53170732,25.2676056 8.24585366,25.4873239 8.48390244,25.5971831 C8.72195122,25.7070423 9.67414634,26.0366197 9.91219512,26.1464789 C10.3882927,26.256338 11.8165854,26.6957746 12.7687805,26.8056338 C13.7209756,26.915493 14.5541463,27.0253521 15.3873171,27.1352113 C15.1492683,27.2450704 14.7921951,27.2450704 14.5541463,27.4647887 C14.435122,27.4647887 14.435122,27.5746479 14.435122,27.684507 C14.435122,27.7943662 14.435122,28.0140845 14.5541463,28.0140845 C14.9112195,28.343662 15.5063415,28.4535211 15.8634146,28.5633803 C16.2204878,28.6732394 16.577561,28.7830986 17.1726829,28.7830986 C17.1726829,29.2225352 17.1726829,29.771831 17.1726829,30.2112676 C17.2917073,34.9352113 19.9102439,40.7577465 28.48,40.6478873 C30.5034146,40.6478873 32.5268293,40.2084507 34.3121951,39.4394366 C39.7873171,37.3521127 44.0721951,33.1774648 44.6673171,32.2985915 L43.715122,31.4197183 C40.5014634,33.9464789 37.644878,36.143662 34.3121951,36.9126761 C33.4790244,37.1323944 32.6458537,37.2422535 31.8126829,37.2422535" id="Fill-3"></path>
                </g>
            </g>
        </g>
    </g>
</svg>