<?xml version="1.0" encoding="UTF-8"?>
<svg width="145px" height="45px" viewBox="0 0 145 45" version="1.1" xmlns="http://www.w3.org/2000/svg" xmlns:xlink="http://www.w3.org/1999/xlink">
    <!-- Generator: Sketch 50.2 (55047) - http://www.bohemiancoding.com/sketch -->
    <title>logo-award-techtrack</title>
    <desc>Created with Sketch.</desc>
    <defs></defs>
    <g id="Designs---MVP" stroke="none" stroke-width="1" fill="none" fill-rule="evenodd">
        <g id="Assets" transform="translate(-651.000000, -334.000000)" fill="#A2B1C5" fill-rule="nonzero">
            <g id="awards-logo-techtrack" transform="translate(654.000000, 337.000000)">
                <path d="M99.7035417,13.9221968 C98.6996528,14.073913 97.5316667,14.2970252 96.4795139,14.8681922 C95.301875,15.5018307 94.5103472,16.2425629 93.9890972,17.1885584 C93.5257639,18.0363844 93.3230556,18.7771167 93.3230556,19.5713959 C93.3230556,20.1157895 93.3230556,20.6512586 93.3230556,21.1956522 C93.3230556,23.4267735 93.3327083,25.7292906 93.1975694,27.9961098 C93.1879167,28.201373 93.1879167,28.4155606 93.1879167,28.6118993 C93.5836806,28.9331808 93.9890972,29.2544622 94.3848611,29.5757437 C95.1956944,30.2272311 96.0065278,30.8787185 96.7980556,31.5480549 C97.039375,31.7533181 97.1552083,31.7622426 97.3386111,31.5034325 C97.6957639,30.9858124 98.0529167,30.4681922 98.4100694,29.9416476 C98.1590972,29.5311213 98.0046528,29.0135011 97.9853472,28.51373 C97.9467361,27.4517162 97.9563889,26.380778 97.9660417,25.3455378 C97.9660417,24.9528604 97.9660417,24.5423341 97.9660417,24.1318078 C97.9660417,23.7212815 97.9660417,23.3018307 97.9756944,22.9002288 C97.9853472,21.9899314 97.995,21.0528604 97.9563889,20.1336384 C97.8984722,18.4469108 99.1533333,17.2421053 101.093542,17.1350114 C101.180417,17.126087 101.257639,17.126087 101.344514,17.126087 C103.197847,17.126087 104.221042,18.28627 104.385139,19.3661327 C104.433403,19.6874142 104.433403,19.9997712 104.433403,20.3032037 C104.433403,20.4638444 104.433403,20.6244851 104.443056,20.7762014 C104.452708,20.9189931 104.462361,21.0617849 104.472014,21.2135011 C104.877431,20.6155606 105.273194,20.0265446 105.678611,19.4286041 C106.141944,18.7503432 106.595625,18.0720824 107.087917,17.4116705 C107.145833,17.3313501 107.435417,17.3045767 107.522292,17.3670481 C108.004931,17.6883295 108.477917,18.009611 108.960556,18.321968 C108.873681,18.0631579 108.7675,17.8043478 108.642014,17.5276888 C107.792569,15.7338673 106.170903,14.6093822 103.680486,14.091762 C102.763472,13.9043478 101.923681,13.8061785 101.112847,13.8061785 L101.112847,13.4491991 L101.112847,13.8061785 C100.639861,13.8240275 100.166875,13.8597254 99.7035417,13.9221968 Z" id="Shape"></path>
                <path d="M118.429931,13.9221968 C117.426042,14.073913 116.258056,14.2970252 115.205903,14.8681922 C114.028264,15.5018307 113.236736,16.2425629 112.715486,17.1885584 C112.252153,18.0363844 112.049444,18.7771167 112.049444,19.5713959 C112.049444,19.8480549 112.049444,20.124714 112.049444,20.3924485 C113.362222,21.2759725 114.675,22.1505721 115.987778,23.0340961 C116.074653,23.0965675 116.151875,23.1768879 116.306319,23.3018307 C116.441458,23.0965675 116.576597,22.8823799 116.702083,22.6771167 C116.711736,21.8382151 116.711736,20.97254 116.682778,20.1336384 C116.624861,18.4469108 117.879722,17.2421053 119.819931,17.1350114 C119.906806,17.126087 119.984028,17.126087 120.070903,17.126087 C120.128819,17.126087 120.186736,17.126087 120.244653,17.126087 C120.901042,16.0997712 121.547778,15.0823799 122.204167,14.0560641 C121.364375,13.8954233 120.592153,13.815103 119.839236,13.815103 L119.839236,13.4581236 L119.839236,13.815103 C119.36625,13.8240275 118.893264,13.8597254 118.429931,13.9221968 Z" id="Shape"></path>
                <path d="M117.261944,29.3080092 C117.329514,29.4864989 117.406736,29.6560641 117.503264,29.8077803 C117.985903,30.5485126 118.893264,30.9679634 119.906806,30.9679634 C120.206042,30.9679634 120.514931,30.9322654 120.814167,30.8519451 C121.924236,30.575286 122.6675,29.8434783 122.744722,28.6208238 C122.860556,26.7199085 122.879861,24.8100686 122.899167,22.9002288 C122.908819,22.516476 122.879861,22.1327231 122.850903,21.7400458 C121.171319,24.3816934 119.491736,27.023341 117.8025,29.6649886 C117.619097,29.5578947 117.435694,29.4329519 117.261944,29.3080092 Z" id="Shape"></path>
                <path d="M120.022639,17.4919908 C119.964722,17.4919908 119.906806,17.4919908 119.848889,17.5009153 C118.217569,17.5901602 117.020625,18.5540046 117.078542,20.1336384 C117.097847,20.7851259 117.1075,21.4276888 117.097847,22.0791762 C118.072778,20.5441648 119.047708,19.0180778 120.022639,17.4919908 Z" id="Shape"></path>
                <path d="M39.6825694,24.6672769 C39.2964583,26.121968 38.9103472,27.576659 38.5242361,29.0670481 C39.4026389,29.0670481 40.1748611,29.0670481 41.0146528,29.0670481 C40.6092361,27.5677346 40.2134722,26.1130435 39.8177083,24.6583524 C39.7694444,24.6672769 39.7308333,24.6672769 39.6825694,24.6672769 Z" id="Shape"></path>
                <path d="M26.2652083,23.7480549 C25.628125,23.7212815 24.9813889,23.7391304 24.2960417,23.7391304 C24.2863889,23.8819222 24.2767361,23.9622426 24.2767361,24.0514874 C24.2767361,24.8814645 24.2670833,25.7114416 24.2960417,26.5414188 C24.2960417,26.6485126 24.49875,26.8270023 24.6242361,26.8448513 C24.9524306,26.8894737 25.2999306,26.8537757 25.628125,26.8627002 C26.7671528,26.8894737 27.1822222,26.5057208 27.4331944,25.5864989 C27.6552083,24.7654462 27.0567361,23.7837529 26.2652083,23.7480549 Z" id="Shape"></path>
                <path d="M123.217708,21.5080092 C123.246667,21.9631579 123.285278,22.4450801 123.275625,22.9180778 C123.275625,23.1322654 123.265972,23.3464531 123.265972,23.5606407 C123.246667,25.2295195 123.217708,26.9519451 123.121181,28.6475973 C123.043958,29.9594966 122.252431,30.8697941 120.910694,31.2089245 C120.572847,31.2892449 120.235,31.3338673 119.897153,31.3338673 C118.729167,31.3338673 117.705972,30.8340961 117.165417,29.9951945 C116.972361,29.7006865 116.837222,29.3437071 116.769653,28.9778032 C115.852639,28.3620137 114.954931,27.7462243 114.047569,27.1393593 C113.371875,26.6842105 112.696181,26.2379863 112.020486,25.7828375 C112.001181,26.5235698 111.972222,27.2643021 111.933611,28.0050343 C111.846736,29.4508009 112.203889,30.7805492 112.976111,31.8514874 C113.748333,32.9313501 114.925972,33.7167048 116.383542,34.1272311 C117.503264,34.4485126 118.613333,34.6002288 119.771667,34.6002288 C120.070903,34.6002288 120.389444,34.5913043 120.698333,34.5645309 C122.609583,34.4306636 124.086458,33.9933638 125.341319,33.1812357 C127.001597,32.119222 127.860694,30.6466819 127.908958,28.808238 C127.947569,27.1393593 127.937917,25.4347826 127.928264,23.7837529 C127.928264,23.0697941 127.918611,22.3290618 127.918611,21.6061785 L127.918611,21.2491991 L127.976528,21.2491991 C127.976528,21.1956522 127.976528,21.1421053 127.976528,21.0974828 C127.976528,20.71373 127.976528,20.3389016 127.976528,19.9551487 C127.976528,19.1787185 127.783472,18.3844394 127.387708,17.5366133 C127.136736,17.0100686 126.818194,16.5459954 126.441736,16.1354691 C125.370278,17.8221968 124.289167,19.5089245 123.217708,21.1956522 C123.208056,21.302746 123.217708,21.4098398 123.217708,21.5080092 Z" id="Shape"></path>
                <path d="M108.371736,23.712357 C107.126528,25.5329519 105.862014,27.3356979 104.607153,29.1562929 C103.361944,30.9679634 102.126389,32.7796339 100.890833,34.5913043 C100.939097,34.5913043 100.987361,34.5913043 101.025972,34.5913043 C101.325208,34.5913043 101.64375,34.5823799 101.952639,34.5556064 C103.863889,34.4217391 105.340764,33.9844394 106.595625,33.1723112 C108.255903,32.1102975 109.115,30.6377574 109.163264,28.7993135 C109.201875,27.1572082 109.192222,25.4883295 109.182569,23.8729977 C109.066736,23.7926773 108.950903,23.7212815 108.835069,23.6409611 C108.613056,23.4981693 108.535833,23.4892449 108.371736,23.712357 Z" id="Shape"></path>
                <path d="M103.275069,22.9894737 C103.564653,22.5700229 103.844583,22.1594966 104.124514,21.7400458 C104.105208,21.4276888 104.07625,21.1153318 104.066597,20.8029748 C104.047292,20.3478261 104.07625,19.8748284 104.008681,19.4286041 C103.854236,18.4558352 102.917917,17.4919908 101.344514,17.4919908 C101.267292,17.4919908 101.190069,17.4919908 101.1225,17.5009153 C99.4911806,17.5901602 98.2942361,18.5540046 98.3521528,20.1336384 C98.4004167,21.4723112 98.3618056,22.810984 98.3618056,24.1496568 C98.3618056,25.6043478 98.3328472,27.0679634 98.3811111,28.5226545 C98.3907639,28.8885584 98.4872917,29.2723112 98.6610417,29.6114416 C99.4429167,28.4691076 100.234444,27.317849 101.025972,26.1755149 C101.759583,25.1045767 102.531806,24.0514874 103.275069,22.9894737 Z" id="Shape"></path>
                <path d="M90.7554167,32.4851259 C90.3596528,33.0652174 90.0121528,33.6363844 89.6067361,34.1718535 C90.0990278,34.180778 90.5913194,34.180778 91.0739583,34.1897025 L91.0836111,34.1897025 C91.0932639,34.1897025 91.1029167,34.1897025 91.1029167,34.1897025 C91.1029167,34.180778 91.1029167,34.1629291 91.1029167,34.1450801 C91.0932639,33.6810069 91.0932639,33.2258581 91.0932639,32.7617849 C90.9870833,32.6636156 90.87125,32.5743707 90.7554167,32.4851259 Z" id="Shape"></path>
                <path d="M0,0 L0,39 L139,39 L139,0 L0,0 Z M35.9083333,4.89061785 C37.8388889,4.42654462 39.7115278,4.48901602 41.4876389,5.38146453 C42.8679861,6.06864989 43.61125,7.18421053 43.6884722,8.64782609 C43.7077778,9.04050343 43.7463889,9.44210526 43.785,9.83478261 C43.8043056,10.0757437 43.698125,10.1828375 43.4278472,10.1828375 C42.1922917,10.173913 40.9567361,10.1828375 39.6343056,10.1828375 C39.6343056,9.7812357 39.6729167,9.42425629 39.6246528,9.07620137 C39.5184722,8.24622426 38.4663194,7.75537757 37.4913889,7.99633867 C36.7770833,8.17482838 36.4199306,8.65675057 36.4295833,9.2993135 C36.4681944,11.0217391 36.4392361,12.7530892 36.4392361,14.4755149 C36.4392361,15.2787185 36.9894444,15.8052632 37.8485417,15.8052632 C38.9875694,15.8141876 39.615,15.3411899 39.6246528,14.4755149 C39.6343056,13.5741419 39.6343056,13.5741419 40.6381944,13.5741419 C41.52625,13.5741419 42.4046528,13.5919908 43.2927083,13.5652174 C43.6884722,13.5562929 43.8139583,13.6812357 43.7753472,14.0292906 C43.6788194,14.9663616 43.7077778,15.912357 43.2058333,16.795881 C42.6459722,17.7775744 41.786875,18.4112128 40.6961111,18.7324943 C38.5628472,19.3572082 36.4392361,19.3482838 34.4025,18.3844394 C32.751875,17.6080092 31.9796528,16.2871854 31.9120833,14.6272311 C31.8445139,12.9762014 31.9410417,11.3251716 31.8927778,9.67414188 C31.8155556,7.29130435 33.4854861,5.4617849 35.9083333,4.89061785 Z M20.2804861,4.81922197 C23.5238194,4.82814645 26.7768056,4.82814645 30.0201389,4.81922197 C30.3676389,4.81922197 30.4641667,4.94416476 30.4545139,5.23867277 C30.4352083,6.04187643 30.4352083,6.84508009 30.4545139,7.64828375 C30.4641667,8.02311213 30.3386806,8.13913043 29.9332639,8.13020595 C28.0702778,8.11235698 26.2072917,8.12128146 24.3056944,8.12128146 C24.3056944,8.79954233 24.3056944,9.45995423 24.3056944,10.1828375 C25.9080556,10.1828375 27.4718056,10.1828375 29.0741667,10.1828375 C29.0741667,11.2805492 29.0741667,12.3425629 29.0741667,13.4581236 C27.5007639,13.4581236 25.9177083,13.4581236 24.3056944,13.4581236 C24.3056944,14.1988558 24.3056944,14.8860412 24.3056944,15.617849 C25.02,15.617849 25.7246528,15.617849 26.4196528,15.617849 C27.5972917,15.617849 28.7652778,15.6356979 29.9429167,15.6089245 C30.3579861,15.6 30.4738194,15.7338673 30.4545139,16.0997712 C30.4255556,16.9029748 30.4352083,17.7061785 30.4545139,18.5093822 C30.4641667,18.8128146 30.3579861,18.928833 30.0201389,18.928833 C26.7768056,18.9199085 23.5238194,18.9199085 20.2804861,18.928833 C19.9426389,18.928833 19.8364583,18.8306636 19.8364583,18.5183066 C19.8461111,14.091762 19.8461111,9.65629291 19.8364583,5.22974828 C19.8268056,4.90846682 19.9522917,4.81922197 20.2804861,4.81922197 Z M6.40944444,5.21189931 C6.39979167,4.88169336 6.55423611,4.81029748 6.87277778,4.81029748 C8.56201389,4.81922197 10.25125,4.81922197 11.9404861,4.81922197 C13.9193056,4.81922197 15.898125,4.82814645 17.8769444,4.81029748 C18.3016667,4.81029748 18.4464583,4.88169336 18.4078472,5.33684211 C18.3402778,6.24713959 18.3885417,7.15743707 18.3885417,8.12128146 C17.2688194,8.12128146 16.2070139,8.13913043 15.1548611,8.11235698 C14.7204861,8.10343249 14.6143056,8.24622426 14.6143056,8.62105263 C14.6239583,11.8606407 14.6239583,15.1002288 14.6239583,18.3487414 C14.6239583,18.5093822 14.6432639,18.6610984 14.6625694,18.8663616 C13.1856944,18.8663616 11.7088194,18.8663616 10.1933333,18.8663616 C10.1933333,15.305492 10.1933333,11.7446224 10.1933333,8.12128146 C9.50798611,8.12128146 8.86125,8.12128146 8.20486111,8.12128146 C7.74152778,8.12128146 7.26854167,8.11235698 6.80520833,8.12128146 C6.50597222,8.13020595 6.40944444,8.01418764 6.40944444,7.75537757 C6.42875,6.90755149 6.42875,6.0597254 6.40944444,5.21189931 Z M18.4175,21.0528604 C18.3016667,21.909611 18.3885417,22.7842105 18.3885417,23.7391304 C17.3267361,23.7391304 16.2649306,23.7659039 15.2127778,23.7302059 C14.7204861,23.712357 14.6143056,23.8997712 14.6239583,24.301373 C14.6336111,27.5141876 14.6336111,30.7270023 14.6336111,33.9398169 C14.6336111,34.1183066 14.6336111,34.2967963 14.6336111,34.510984 C13.1663889,34.510984 11.7088194,34.510984 10.2126389,34.510984 C10.2126389,30.9501144 10.2126389,27.3713959 10.2126389,23.7569794 C8.93847222,23.7569794 7.70291667,23.7569794 6.45770833,23.7569794 C6.45770833,22.6771167 6.45770833,21.6418764 6.45770833,20.5620137 C6.61215278,20.5530892 6.76659722,20.5441648 6.92104167,20.5441648 C10.5890972,20.5441648 14.2571528,20.5441648 17.9252083,20.5352403 C18.330625,20.5263158 18.4947222,20.5352403 18.4175,21.0528604 Z M31.8155556,34.5377574 C30.4641667,34.5377574 29.1127778,34.528833 27.7613889,34.5466819 C27.4718056,34.5466819 27.3173611,34.493135 27.2111806,34.198627 C26.6513194,32.708238 26.0528472,31.2267735 25.4736806,29.7363844 C25.0875694,29.7363844 24.7014583,29.7363844 24.2863889,29.7363844 C24.2863889,31.3249428 24.2863889,32.8956522 24.2863889,34.5020595 C22.7998611,34.5020595 21.3422917,34.5020595 19.8268056,34.5020595 C19.8268056,34.3592677 19.8268056,34.198627 19.8268056,34.0469108 C19.8268056,29.7185355 19.8364583,25.3990847 19.8171528,21.0707094 C19.8171528,20.6334096 19.9522917,20.5173913 20.415625,20.5263158 C22.6164583,20.5441648 24.8269444,20.4816934 27.0277778,20.5530892 C28.929375,20.6155606 30.58,21.2402746 31.3811806,22.9983982 C31.7576389,23.8194508 31.8734722,24.6940503 31.7383333,25.6132723 C31.6128472,26.4610984 31.4197917,27.2553776 30.8309722,27.9157895 C30.4545139,28.3441648 29.9815278,28.6922197 29.5375,29.102746 C30.4159028,30.887643 31.2943056,32.6814645 32.2016667,34.528833 C32.056875,34.5199085 31.9313889,34.5377574 31.8155556,34.5377574 Z M42.5494444,34.5199085 C42.3370833,33.7791762 42.1247222,33.0116705 41.9027083,32.2173913 C40.5416667,32.2173913 39.1902778,32.2084668 37.8388889,32.2263158 C37.7230556,32.2263158 37.5396528,32.3601831 37.5106944,32.4583524 C37.3176389,33.1366133 37.1631944,33.8148741 36.9990972,34.510984 C35.61875,34.510984 34.2577083,34.510984 32.8773611,34.510984 C33.273125,33.2347826 33.6688889,31.9675057 34.0646528,30.7002288 C34.9720139,27.7997712 35.879375,24.8993135 36.7867361,22.0077803 C36.8929167,21.6597254 37.0473611,21.3116705 37.0859722,20.9546911 C37.1342361,20.5798627 37.3079861,20.5084668 37.6747917,20.5173913 C39.3929861,20.5352403 41.1111806,20.5263158 42.8486806,20.5263158 C44.2579861,25.184897 45.6672917,29.8345538 47.08625,34.5199085 C45.5611111,34.5199085 44.0842361,34.5199085 42.5494444,34.5199085 Z M45.956875,18.928833 C45.6190278,18.928833 45.5128472,18.8306636 45.5128472,18.5183066 C45.5225,14.0828375 45.5225,9.65629291 45.5128472,5.2208238 C45.5128472,4.89954233 45.6383333,4.81029748 45.9665278,4.81922197 C47.1248611,4.82814645 48.2831944,4.83707094 49.4415278,4.81922197 C49.8372917,4.81029748 49.9724306,4.9173913 49.9627778,5.30114416 C49.9434722,6.84508009 49.953125,8.38901602 49.953125,9.96864989 C51.0052778,9.96864989 52.038125,9.96864989 53.0999306,9.96864989 C53.0999306,8.31762014 53.0999306,6.66659039 53.0999306,4.94416476 C53.1964583,4.9173913 53.3509028,4.83707094 53.5053472,4.83707094 C54.8084722,4.82814645 56.1115972,4.82814645 57.4822917,4.82814645 C57.4822917,9.52242563 57.4822917,14.1988558 57.4822917,18.910984 C56.0054167,18.910984 54.5961111,18.910984 53.1481944,18.910984 C53.1481944,18.1524027 53.1481944,17.4116705 53.1481944,16.6709382 C53.1481944,15.7963387 53.1385417,14.9128146 53.1481944,14.0382151 C53.1481944,13.7704805 53.080625,13.6187643 52.7524306,13.6187643 C51.8257639,13.6276888 50.8990972,13.6187643 49.9627778,13.6187643 C49.9627778,15.2251716 49.953125,16.795881 49.9724306,18.3755149 C49.9820833,18.7860412 49.8759028,18.9556064 49.3932639,18.9377574 C48.2349306,18.9020595 47.0959028,18.910984 45.956875,18.928833 Z M55.4552083,24.890389 C55.4552083,24.0782609 54.5188889,23.4 53.6694444,23.5874142 C52.5883333,23.8194508 52.2697917,24.1942792 52.2697917,25.2295195 C52.2697917,26.8537757 52.2697917,28.4691076 52.2697917,30.0933638 C52.2697917,30.8697941 52.7234722,31.3517162 53.6404861,31.494508 C54.2003472,31.5837529 55.2235417,31.2713959 55.3779861,30.628833 C55.4552083,30.316476 55.4552083,29.98627 55.4455556,29.6649886 C55.4455556,29.379405 55.5324306,29.2633867 55.860625,29.2633867 C57.0865278,29.2723112 58.3027778,29.2723112 59.5190278,29.2723112 C59.8665278,31.5034325 59.1908333,33.4578947 56.7004167,34.3324943 C54.4899306,35.1089245 52.2504861,35.0286041 50.1365278,33.9844394 C48.6886111,33.2704805 47.9067361,32.0924485 47.8295139,30.575286 C47.7426389,28.826087 47.7233333,27.0768879 47.7329861,25.3276888 C47.7329861,24.3281465 47.955,23.3553776 48.6017361,22.5075515 C49.4801389,21.3562929 50.7060417,20.7315789 52.1539583,20.419222 C53.9011111,20.0443936 55.6,20.2228833 57.1927083,20.9368421 C58.5054861,21.5258581 59.3066667,22.5432494 59.4997222,23.9086957 C59.5865972,24.5066362 59.59625,25.1135011 59.6445139,25.7649886 C58.1965972,25.7649886 56.8548611,25.7649886 55.4455556,25.7649886 C55.4552083,25.4704805 55.4552083,25.184897 55.4552083,24.890389 Z M69.0752778,34.528833 C68.3609722,32.7617849 67.6466667,30.9858124 66.9130556,29.1562929 C66.5848611,29.5668192 66.2663194,29.9327231 65.9960417,30.316476 C65.8705556,30.5038902 65.7933333,30.7448513 65.7933333,30.9590389 C65.7740278,32.1281465 65.7836806,33.3061785 65.7836806,34.5020595 C64.2971528,34.5020595 62.8492361,34.5020595 61.3434028,34.5020595 C61.3434028,34.3503432 61.3434028,34.2075515 61.3434028,34.0558352 C61.3434028,29.72746 61.3530556,25.3990847 61.33375,21.0796339 C61.33375,20.6244851 61.4688889,20.4995423 61.9611806,20.5084668 C63.2160417,20.5352403 64.4709028,20.5173913 65.7740278,20.5173913 C65.7740278,22.4718535 65.7740278,24.4084668 65.7740278,26.3450801 C65.8126389,26.3540046 65.8415972,26.3629291 65.8802083,26.3718535 C66.2759722,25.7382151 66.6717361,25.1045767 67.0675,24.4709382 C67.8300694,23.2482838 68.5829861,22.0167048 69.3648611,20.8029748 C69.4420833,20.678032 69.6447917,20.5352403 69.7895833,20.5352403 C71.0927083,20.5173913 72.3958333,20.5263158 73.6989583,20.5352403 C73.7182639,20.5352403 73.7472222,20.5620137 73.7954861,20.5977117 C72.888125,21.9899314 71.9904167,23.382151 71.0830556,24.7743707 C70.8610417,25.1224256 70.6100694,25.4615561 70.4170139,25.82746 C70.3397917,25.9702517 70.3204861,26.1844394 70.3784028,26.3272311 C71.5174306,29.0491991 72.6757639,31.7622426 73.8534028,34.528833 C72.2510417,34.528833 70.6969444,34.528833 69.0752778,34.528833 Z M129.6175,11.128833 C128.623264,12.6906178 127.629028,14.2524027 126.634792,15.8141876 C127.069167,16.2604119 127.435972,16.7869565 127.725556,17.3938215 C128.111667,18.2059497 128.352986,19.0537757 128.352986,19.9551487 C128.352986,20.5084668 128.352986,21.0528604 128.352986,21.6061785 C128.333681,21.6061785 128.314375,21.6061785 128.295069,21.6061785 C128.295069,24.006865 128.333681,26.4075515 128.285417,28.808238 C128.237153,30.7627002 127.300833,32.3512586 125.553681,33.4668192 C124.105764,34.3949657 122.484097,34.787643 120.717639,34.9125858 C120.399097,34.9393593 120.080556,34.9482838 119.762014,34.9482838 C118.565069,34.9482838 117.416389,34.787643 116.267708,34.4574371 C113.101597,33.5560641 111.37375,31.0572082 111.5475,27.9782609 C111.595764,27.1572082 111.624722,26.3450801 111.644028,25.5240275 C110.958681,25.0599542 110.263681,24.6048055 109.578333,24.1407323 C109.587986,25.7025172 109.587986,27.2553776 109.559028,28.8171625 C109.510764,30.7716247 108.574444,32.3601831 106.827292,33.4757437 C105.379375,34.4038902 103.757708,34.7965675 101.99125,34.9215103 C101.672708,34.9482838 101.354167,34.9572082 101.035625,34.9572082 C100.910139,34.9572082 100.784653,34.9572082 100.659167,34.9482838 C100.524028,35.1446224 100.388889,35.3498856 100.25375,35.5462243 C99.5973611,36.5011442 98.9313194,37.4560641 98.2170139,38.4823799 C95.9872222,36.6885584 93.7574306,34.8947368 91.4986806,33.0741419 C91.4986806,33.4311213 91.4986806,33.7881007 91.5083333,34.1450801 C91.5083333,34.4306636 91.3925,34.5466819 91.1029167,34.5466819 C91.1029167,34.5466819 91.0932639,34.5466819 91.0932639,34.5466819 C89.7611806,34.528833 88.4290972,34.510984 87.0970139,34.5020595 C86.00625,34.5020595 84.9058333,34.5020595 83.7668056,34.5020595 C83.7668056,34.5020595 83.7668056,34.493135 83.7764583,34.493135 C82.0486111,34.5020595 80.3111111,34.528833 78.5832639,34.5466819 C78.535,34.5466819 78.4867361,34.5466819 78.4384722,34.5466819 C77.9558333,34.5466819 77.9558333,34.5020595 77.9461806,33.9665904 C77.9461806,33.1455378 77.9461806,32.3334096 77.926875,31.512357 C77.9172222,31.182151 78.0427083,31.0750572 78.3805556,31.0750572 C78.3902083,31.0750572 78.3902083,31.0750572 78.3998611,31.0750572 C78.6315278,31.0750572 78.8728472,31.0750572 79.1045139,31.0750572 C79.5871528,31.0750572 80.0697917,31.0750572 80.5524306,31.0750572 C80.9771528,31.0750572 81.401875,31.0750572 81.8265972,31.0929062 C81.8459028,31.0929062 81.8652083,31.0929062 81.8748611,31.0929062 C82.2802778,31.0929062 82.3575,30.9322654 82.3478472,30.5842105 C82.3381944,27.0590389 82.3381944,23.5338673 82.3381944,20.0176201 C82.3381944,19.5 82.3285417,18.9734554 82.3478472,18.4558352 C82.3671528,18.1524027 82.2513194,18.0453089 81.9906944,18.0453089 C81.9520833,18.0453089 81.9038194,18.0453089 81.8652083,18.0542334 C80.7647917,18.1613272 79.664375,18.2237986 78.5736111,18.3398169 C78.535,18.3398169 78.4963889,18.3487414 78.4577778,18.3487414 C78.1778472,18.3487414 78.1199306,18.2148741 78.100625,17.9471396 C78.0523611,17.0636156 77.9751389,16.171167 77.8979167,15.287643 C77.8979167,15.2519451 77.84,15.2251716 77.8110417,15.1983982 C77.8110417,15.1359268 77.8110417,15.0823799 77.8110417,15.0199085 C79.0948611,14.7789474 80.3690278,14.5469108 81.6528472,14.3059497 C82.7629167,14.1006865 83.8633333,13.8508009 84.9830556,13.7169336 C85.2822917,13.6812357 85.5911806,13.6723112 85.9000694,13.6723112 C86.4020139,13.6723112 86.9232639,13.6990847 87.483125,13.6990847 C87.483125,18.8217391 87.483125,23.9443936 87.483125,29.1116705 C88.1588194,28.1389016 88.8345139,27.1661327 89.5005556,26.1844394 C89.7032639,25.8899314 89.8190972,25.8988558 90.0700694,26.1130435 C90.9870833,26.8537757 91.9040972,27.5855835 92.8211111,28.3263158 C92.8211111,28.219222 92.8307639,28.1121281 92.8307639,27.9961098 C92.9948611,25.202746 92.9465972,22.3915332 92.95625,19.5892449 C92.95625,18.6700229 93.216875,17.8668192 93.6705556,17.0457666 C94.2786806,15.9302059 95.1860417,15.1805492 96.3057639,14.5736842 C97.3482639,14.0114416 98.4872917,13.7615561 99.6649306,13.5830664 C100.157222,13.5116705 100.649514,13.4759725 101.132153,13.4759725 C101.132153,13.4759725 101.132153,13.4759725 101.132153,13.4759725 C102.029861,13.4759725 102.908264,13.5830664 103.786667,13.7704805 C106.103333,14.2524027 108.014583,15.2965675 109.018472,17.4116705 C109.211528,17.8221968 109.375625,18.2416476 109.481806,18.6789474 C110.215417,19.1697941 110.958681,19.6606407 111.692292,20.1514874 C111.692292,19.9640732 111.692292,19.776659 111.692292,19.5892449 C111.692292,18.6700229 111.952917,17.8668192 112.406597,17.0457666 C113.014722,15.9302059 113.922083,15.1805492 115.041806,14.5736842 C116.084306,14.0114416 117.223333,13.7615561 118.400972,13.5830664 C118.893264,13.5116705 119.385556,13.4759725 119.868194,13.4759725 C119.868194,13.4759725 119.868194,13.4759725 119.868194,13.4759725 C120.736944,13.4759725 121.596042,13.5830664 122.445486,13.7526316 C123.468681,12.1551487 124.482222,10.5576659 125.505417,8.96018307 C124.694583,8.5228833 123.922361,8.10343249 123.053611,7.63043478 C123.854792,7.34485126 124.559444,7.08604119 125.27375,6.83615561 C126.962986,6.2382151 128.652222,5.64919908 130.331806,5.0423341 C130.997847,4.801373 130.968889,4.78352403 131.065417,5.41716247 C131.345347,7.17528604 131.644583,8.93340961 131.924514,10.6915332 C132.011389,11.2359268 132.059653,11.7892449 132.136875,12.4228833 C131.248819,11.9677346 130.457292,11.5572082 129.6175,11.128833 Z" id="Shape"></path>
                <path d="M86.5371528,30.4324943 C86.7205556,30.1736842 86.9039583,29.9148741 87.0873611,29.6471396 L87.0873611,14.0382151 C86.9329167,14.0382151 86.7784722,14.0292906 86.6336806,14.0292906 C86.3730556,14.0203661 86.1317361,14.0114416 85.8904167,14.0114416 C85.5525694,14.0114416 85.2726389,14.0292906 85.0216667,14.0560641 C84.2301389,14.1453089 83.4386111,14.3059497 82.6567361,14.4576659 C82.3478472,14.5201373 82.0293056,14.5826087 81.7107639,14.6361556 C80.8227083,14.7967963 79.9153472,14.9663616 79.0369444,15.1359268 C78.7859722,15.1805492 78.5253472,15.2340961 78.274375,15.2787185 L78.3033333,15.6892449 C78.36125,16.4210526 78.4191667,17.1707094 78.4674306,17.9114416 C78.4674306,17.9382151 78.4674306,17.9649886 78.4770833,17.973913 C78.4867361,17.973913 78.5060417,17.973913 78.5156944,17.973913 C79.1238194,17.9114416 79.7415972,17.8668192 80.3400694,17.8132723 C80.8227083,17.7775744 81.3246528,17.7329519 81.8169444,17.6883295 C81.8748611,17.679405 81.9327778,17.679405 81.9810417,17.679405 C82.2127083,17.679405 82.4057639,17.7418764 82.53125,17.8668192 C82.7436111,18.0720824 82.7243056,18.3576659 82.7243056,18.4558352 C82.705,18.8306636 82.705,19.2144165 82.7146528,19.5803204 C82.7146528,19.7231121 82.7146528,19.8569794 82.7146528,19.9997712 L82.7146528,22.1148741 C82.7146528,24.890389 82.7146528,27.7551487 82.7243056,30.5663616 C82.7243056,30.8073227 82.6953472,31.0482838 82.5022917,31.2356979 C82.3092361,31.4141876 82.0389583,31.4409611 81.8555556,31.4409611 C81.83625,31.4409611 81.8169444,31.4409611 81.7879861,31.4409611 C81.4211806,31.4320366 81.0350694,31.4231121 80.5234722,31.4231121 C80.2821528,31.4231121 80.0408333,31.4231121 79.7995139,31.4231121 C79.5581944,31.4231121 79.316875,31.4231121 79.0755556,31.4231121 C78.8149306,31.4231121 78.5832639,31.4231121 78.3709028,31.4231121 L78.3515972,31.4231121 C78.3226389,31.4231121 78.3033333,31.4231121 78.2840278,31.4231121 C78.2840278,31.4409611 78.2840278,31.4588101 78.2840278,31.4855835 C78.3033333,32.0924485 78.3033333,32.7171625 78.3033333,33.315103 C78.3033333,33.5292906 78.3033333,33.7345538 78.3033333,33.9487414 C78.3033333,34.0290618 78.3033333,34.1093822 78.3033333,34.1718535 C78.3322917,34.1718535 78.36125,34.1718535 78.3998611,34.1718535 C78.4384722,34.1718535 78.4867361,34.1718535 78.5446528,34.1718535 C79.2203472,34.1629291 79.9153472,34.1540046 80.5813889,34.1540046 C81.6818056,34.1450801 82.8208333,34.1272311 83.9502083,34.1272311 C83.9791667,34.0826087 84.008125,34.0290618 84.0370833,33.9933638 C84.876875,32.7974828 85.7070139,31.6194508 86.5371528,30.4324943 Z" id="Shape"></path>
            </g>
        </g>
    </g>
</svg>