<?xml version="1.0" encoding="UTF-8"?>
<svg width="115px" height="45px" viewBox="0 0 115 45" version="1.1" xmlns="http://www.w3.org/2000/svg" xmlns:xlink="http://www.w3.org/1999/xlink">
    <!-- Generator: Sketch 50.2 (55047) - http://www.bohemiancoding.com/sketch -->
    <title>logo-award-nationalbusinessuk</title>
    <desc>Created with Sketch.</desc>
    <defs>
        <polygon id="path-1" points="0 38.9672082 109.305725 38.9672082 109.305725 -0.000159183673 0 -0.000159183673"></polygon>
    </defs>
    <g id="Designs---MVP" stroke="none" stroke-width="1" fill="none" fill-rule="evenodd">
        <g id="Assets" transform="translate(-842.000000, -334.000000)">
            <g id="Page-1" transform="translate(845.000000, 337.000000)">
                <path d="M19.6818696,4.30432653 C17.3814348,4.30432653 15.5106377,6.17314286 15.5106377,8.46936735 C15.5106377,10.7663878 17.3814348,12.6352041 19.6818696,12.6352041 C21.9823043,12.6352041 23.8531014,10.7663878 23.8531014,8.46936735 C23.8531014,6.17314286 21.9823043,4.30432653 19.6818696,4.30432653 M19.6818696,14.0511429 C16.5994783,14.0511429 14.0925942,11.5479796 14.0925942,8.46936735 C14.0925942,5.39234694 16.5994783,2.88838776 19.6818696,2.88838776 C22.7642609,2.88838776 25.271942,5.39234694 25.271942,8.46936735 C25.271942,11.5479796 22.7642609,14.0511429 19.6818696,14.0511429" id="Fill-1" fill="#A2B1C5"></path>
                <path d="M19.6818696,15.4674 C17.3814348,15.4674 15.5106377,17.3362163 15.5106377,19.6316449 C15.5106377,21.9286653 17.3814348,23.7974816 19.6818696,23.7974816 C21.9823043,23.7974816 23.8531014,21.9286653 23.8531014,19.6316449 C23.8531014,17.3362163 21.9823043,15.4674 19.6818696,15.4674 M19.6818696,25.2134204 C16.5994783,25.2134204 14.0925942,22.7102571 14.0925942,19.6316449 C14.0925942,16.5546245 16.5994783,14.0514612 19.6818696,14.0514612 C22.7642609,14.0514612 25.271942,16.5546245 25.271942,19.6316449 C25.271942,22.7102571 22.7642609,25.2134204 19.6818696,25.2134204" id="Fill-3" fill="#A2B1C5"></path>
                <path d="M19.6818696,26.6297571 C17.3814348,26.6297571 15.5106377,28.4985735 15.5106377,30.794002 C15.5106377,33.0918184 17.3814348,34.9606347 19.6818696,34.9606347 C21.9823043,34.9606347 23.8531014,33.0918184 23.8531014,30.794002 C23.8531014,28.4985735 21.9823043,26.6297571 19.6818696,26.6297571 M19.6818696,36.3757776 C16.5994783,36.3757776 14.0925942,33.8726143 14.0925942,30.794002 C14.0925942,27.7169816 16.5994783,25.2138184 19.6818696,25.2138184 C22.7642609,25.2138184 25.271942,27.7169816 25.271942,30.794002 C25.271942,33.8726143 22.7642609,36.3757776 19.6818696,36.3757776" id="Fill-5" fill="#A2B1C5"></path>
                <polygon id="Fill-7" fill="#A2B1C5" points="37.0876957 10.2069367 32.5904493 4.01389592 31.1421159 4.01389592 31.1421159 12.5827531 32.5792899 12.5827531 32.5792899 6.36822245 37.0765362 12.5827531 38.5256667 12.5827531 38.5256667 4.01389592 37.0876957 4.01389592"></polygon>
                <path d="M42.1975942,9.30993673 L43.4115797,5.93763061 L44.6255652,9.30993673 L42.1975942,9.30993673 Z M42.6702754,4.01389592 L39.0729565,12.5827531 L40.6536087,12.5827531 L41.6244783,10.6908551 L45.1986812,10.6908551 L46.1695507,12.5827531 L47.7502029,12.5827531 L44.1536812,4.01389592 L42.6702754,4.01389592 Z" id="Fill-9" fill="#A2B1C5"></path>
                <polygon id="Fill-11" fill="#A2B1C5" points="46.1336812 5.43063061 48.9028116 5.43063061 48.9028116 12.5827531 50.3399855 12.5827531 50.3399855 5.43063061 53.1091159 5.43063061 53.1091159 4.01389592 46.1336812 4.01389592"></polygon>
                <mask id="mask-2" fill="white">
                    <use xlink:href="#path-1"></use>
                </mask>
                <g id="Clip-14"></g>
                <polygon id="Fill-13" fill="#A2B1C5" mask="url(#mask-2)" points="53.7086957 12.5833102 55.1466667 12.5833102 55.1466667 4.01365714 53.7086957 4.01365714"></polygon>
                <path d="M60.5608986,11.2507837 C58.8774203,11.2507837 57.7016957,10.0370082 57.7016957,8.29872245 C57.7016957,6.55964082 58.8774203,5.34666122 60.5608986,5.34666122 C62.2443768,5.34666122 63.4201014,6.55964082 63.4201014,8.29872245 C63.4201014,10.0370082 62.2443768,11.2507837 60.5608986,11.2507837 M60.5608986,3.91639592 C58.0707536,3.91639592 56.2637246,5.75974286 56.2637246,8.29872245 C56.2637246,10.8369061 58.0707536,12.6802531 60.5608986,12.6802531 C63.0510435,12.6802531 64.8580725,10.8369061 64.8580725,8.29872245 C64.8580725,5.75974286 63.0510435,3.91639592 60.5608986,3.91639592" id="Fill-15" fill="#A2B1C5" mask="url(#mask-2)"></path>
                <polygon id="Fill-16" fill="#A2B1C5" mask="url(#mask-2)" points="71.2661304 10.2069367 66.7688841 4.01389592 65.3205507 4.01389592 65.3205507 12.5827531 66.7585217 12.5827531 66.7585217 6.36822245 71.254971 12.5827531 72.7041014 12.5827531 72.7041014 4.01389592 71.2661304 4.01389592"></polygon>
                <polygon id="Fill-17" fill="#A2B1C5" mask="url(#mask-2)" points="84.1326232 11.1660184 84.1326232 4.01389592 82.6946522 4.01389592 82.6946522 12.5827531 88.460087 12.5827531 88.460087 11.1660184"></polygon>
                <path d="M76.3939638,9.30993673 L77.6079493,5.93763061 L78.8219348,9.30993673 L76.3939638,9.30993673 Z M76.8666449,4.01389592 L73.2693261,12.5827531 L74.8499783,12.5827531 L75.8208478,10.6908551 L79.3950507,10.6908551 L80.3659203,12.5827531 L81.9465725,12.5827531 L78.3492536,4.01389592 L76.8666449,4.01389592 Z" id="Fill-18" fill="#A2B1C5" mask="url(#mask-2)"></path>
                <path d="M37.1067464,24.7230551 L32.9307319,24.7230551 L32.9307319,21.185198 L36.962471,21.185198 C38.7671087,21.185198 39.4095725,22.1410959 39.4095725,23.0349122 C39.4095725,24.5041776 37.9668188,24.7230551 37.1067464,24.7230551 M36.6563841,19.4174633 L32.9307319,19.4174633 L32.9307319,15.9154224 L36.8006594,15.9154224 C38.6531232,15.9154224 38.7973986,17.2207286 38.7973986,17.6210755 C38.7973986,18.9454837 37.6910217,19.4174633 36.6563841,19.4174633 M39.445442,20.1536878 C40.0942826,19.7055857 40.6937029,18.912851 40.6937029,17.5128306 C40.6937029,15.9361163 39.6367464,14.0943612 36.6563841,14.0943612 L31.0344275,14.0943612 L31.0344275,26.5449122 L36.962471,26.5449122 C40.1652246,26.5449122 41.3066739,24.7875245 41.3066739,23.1431571 C41.3066739,21.3945245 40.2441377,20.5452796 39.445442,20.1536878" id="Fill-19" fill="#A2B1C5" mask="url(#mask-2)"></path>
                <path d="M50.7831739,13.9300041 L50.7831739,21.1824122 C50.7831739,23.7524327 49.1307826,24.6677388 47.5844058,24.6677388 C46.046,24.6677388 44.4031739,23.7524327 44.4031739,21.1824122 L44.4031739,13.9300041 L42.2302754,13.9300041 L42.2302754,21.1458 C42.2302754,24.5061673 44.4318696,26.8517388 47.5844058,26.8517388 C50.7465072,26.8517388 52.9552754,24.5061673 52.9552754,21.1458 L52.9552754,13.9300041 L50.7831739,13.9300041 Z" id="Fill-20" fill="#A2B1C5" mask="url(#mask-2)"></path>
                <path d="M58.8169203,19.181951 C57.0625,18.7640939 56.1801087,18.3454408 56.1801087,17.3147265 C56.1801087,16.1916857 57.3797464,15.7682571 58.8185145,15.7650735 C59.7224275,15.7634816 60.7475,16.3293796 61.6306884,17.1770327 L62.7920652,15.448298 C62.0388043,14.5202571 60.5275,13.7784612 58.484529,13.7784612 C55.5057609,13.7784612 54.0191667,15.3766653 54.0191667,17.6076245 C54.0191667,20.0351755 56.2343116,20.6997673 58.484529,21.2449714 C60.2867754,21.6803388 61.0798913,21.9716449 61.0798913,23.091502 C61.0798913,24.6857265 59.8603261,24.7223388 58.7380072,24.7223388 C57.7288768,24.7223388 56.0079348,24.456502 54.8816304,23.0724 L53.5233696,24.6244408 C54.540471,25.733951 55.8110507,26.6890531 58.743587,26.6890531 C61.8690217,26.6890531 63.1659058,25.197502 63.1659058,22.8758082 C63.1659058,20.3734408 61.1253261,19.7311347 58.8169203,19.181951" id="Fill-21" fill="#A2B1C5" mask="url(#mask-2)"></path>
                <polygon id="Fill-22" fill="#A2B1C5" mask="url(#mask-2)" points="64.1881884 26.5453102 66.3483333 26.5453102 66.3483333 14.0939633 64.1881884 14.0939633"></polygon>
                <polygon id="Fill-23" fill="#A2B1C5" mask="url(#mask-2)" points="76.1671087 13.9743367 76.1902246 22.4882755 69.6173261 13.9846837 67.4755145 13.9846837 67.4755145 26.6541122 69.5989928 26.6572959 69.6213116 17.6888878 76.5441377 26.6541122 78.5241377 26.6541122 78.5241377 13.9846837"></polygon>
                <polygon id="Fill-24" fill="#A2B1C5" mask="url(#mask-2)" points="79.3461087 26.6584898 88.8427754 26.6584898 88.8427754 24.5652245 81.7150942 24.5652245 81.7150942 21.2510204 88.0345145 21.2510204 88.0345145 19.1402449 81.7150942 19.1402449 81.7150942 16.0616327 88.8427754 16.0616327 88.8427754 13.9683673 79.3461087 13.9683673"></polygon>
                <path d="M94.8129058,19.181951 C93.0584855,18.7640939 92.1760942,18.3454408 92.1760942,17.3147265 C92.1760942,16.1916857 93.3757319,15.7682571 94.8145,15.7650735 C95.718413,15.7634816 96.7434855,16.3293796 97.6266739,17.1770327 L98.7880507,15.448298 C98.0347899,14.5202571 96.5234855,13.7784612 94.4805145,13.7784612 C91.5017464,13.7784612 90.0151522,15.3766653 90.0151522,17.6076245 C90.0151522,20.0351755 92.2302971,20.6997673 94.4805145,21.2449714 C96.2827609,21.6803388 97.0758768,21.9716449 97.0758768,23.091502 C97.0758768,24.6857265 95.8563116,24.7223388 94.7339928,24.7223388 C93.7248623,24.7223388 92.0039203,24.456502 90.8776159,23.0724 L89.5193551,24.6244408 C90.5364565,25.733951 91.8078333,26.6890531 94.7395725,26.6890531 C97.8650072,26.6890531 99.1618913,25.197502 99.1618913,22.8758082 C99.1618913,20.3734408 97.1213116,19.7311347 94.8129058,19.181951" id="Fill-25" fill="#A2B1C5" mask="url(#mask-2)"></path>
                <path d="M104.957297,19.181951 C103.202877,18.7640939 102.320486,18.3454408 102.320486,17.3147265 C102.320486,16.1916857 103.520123,15.7682571 104.958891,15.7650735 C105.862804,15.7634816 106.887877,16.3293796 107.771065,17.1770327 L108.931645,15.448298 C108.179181,14.5202571 106.667877,13.7784612 104.624906,13.7784612 C101.646138,13.7784612 100.159543,15.3766653 100.159543,17.6076245 C100.159543,20.0351755 102.374688,20.6997673 104.624906,21.2449714 C106.427152,21.6803388 107.220268,21.9716449 107.220268,23.091502 C107.220268,24.6857265 106.000703,24.7223388 104.878384,24.7223388 C103.869254,24.7223388 102.148312,24.456502 101.022007,23.0724 L99.6637464,24.6244408 C100.680848,25.733951 101.952225,26.6890531 104.883964,26.6890531 C108.009399,26.6890531 109.306283,25.197502 109.306283,22.8758082 C109.306283,20.3734408 107.265703,19.7311347 104.957297,19.181951" id="Fill-26" fill="#A2B1C5" mask="url(#mask-2)"></path>
                <path d="M35.3918623,32.0627755 L33.1113551,32.0627755 L34.2512101,29.3391429 L35.3918623,32.0627755 Z M33.6661377,27.9717551 L30.659471,35.0426939 L31.8543261,35.0426939 L32.6817174,33.0839388 L35.8215,33.0839388 L36.6488913,35.0426939 L37.8437464,35.0426939 L34.8370797,27.9717551 L33.6661377,27.9717551 Z" id="Fill-27" fill="#A2B1C5" mask="url(#mask-2)"></path>
                <polygon id="Fill-28" fill="#A2B1C5" mask="url(#mask-2)" points="45.2661159 27.9541653 43.6440145 33.2525939 41.9445942 27.9541653 40.8334348 27.9541653 39.1348116 33.2525939 37.5127101 27.9541653 36.3712609 27.9541653 38.5744493 35.0259 39.6768406 35.0259 41.3890145 29.7131449 43.1019855 35.0259 44.2035797 35.0259 46.4075652 27.9541653"></polygon>
                <path d="M47.5496522,32.0627755 L48.6895072,29.3391429 L49.8293623,32.0627755 L47.5496522,32.0627755 Z M49.2753768,27.9717551 L48.1036377,27.9717551 L45.0977681,35.0434898 L46.2918261,35.0434898 L47.1192174,33.0847347 L50.259,33.0847347 L51.0871884,35.0434898 L52.2525507,35.0434898 L49.2753768,27.9717551 Z" id="Fill-29" fill="#A2B1C5" mask="url(#mask-2)"></path>
                <path d="M53.8198116,31.4098837 L53.8198116,29.0141694 L55.8731449,29.0141694 C56.6973478,29.0141694 57.209087,29.4853531 57.209087,30.2422714 C57.209087,31.2960673 56.2485797,31.4098837 55.8356812,31.4098837 L53.8198116,31.4098837 Z M56.7882174,32.2583327 C57.7335797,31.9566796 58.2118406,31.2793531 58.2118406,30.2422714 C58.2118406,28.8637408 57.327058,27.9723122 55.9584348,27.9723122 L52.817058,27.9723122 L52.817058,35.0416592 L53.8198116,35.043251 L53.8198116,32.4533327 L55.763942,32.4533327 L57.2752464,35.043251 L58.4685072,35.043251 L56.7882174,32.2583327 Z" id="Fill-30" fill="#A2B1C5" mask="url(#mask-2)"></path>
                <path d="M60.2550507,28.9965 L62.0493261,28.9965 C63.2633116,28.9965 64.1449058,30.0447245 64.1449058,31.4901122 C64.1449058,32.9339082 63.2633116,33.9829286 62.0493261,33.9829286 L60.2550507,33.9829286 L60.2550507,28.9965 Z M62.0788188,27.9538469 L59.2267899,27.9538469 L59.2267899,35.0255816 L62.0788188,35.0255816 C63.5781667,35.0255816 65.1723696,33.7871327 65.1723696,31.4901122 C65.1723696,29.1930918 63.5781667,27.9538469 62.0788188,27.9538469 Z" id="Fill-31" fill="#A2B1C5" mask="url(#mask-2)"></path>
                <path d="M78.5934058,31.979602 C78.5934058,33.501398 77.6241304,34.0442143 76.7162319,34.0442143 C75.8131159,34.0442143 74.8486232,33.501398 74.8486232,31.979602 L74.8486232,27.9538469 L73.8076087,27.9538469 L73.8076087,31.9589082 C73.8076087,33.812602 75.0032609,35.1075612 76.7162319,35.1075612 C78.4347826,35.1075612 79.6352174,33.812602 79.6352174,31.9589082 L79.6352174,27.9538469 L78.5934058,27.9538469 L78.5934058,31.979602 Z" id="Fill-32" fill="#A2B1C5" mask="url(#mask-2)"></path>
                <polygon id="Fill-33" fill="#A2B1C5" mask="url(#mask-2)" points="83.5033116 30.8440653 86.5729493 27.9540857 85.0257754 27.9540857 81.4882391 31.2651061 81.4882391 27.9540857 80.4033841 27.9540857 80.4033841 35.0258204 81.4882391 35.0258204 81.4882391 32.7208408 82.7078043 31.5842694 85.2951957 35.0258204 86.6542536 35.0258204"></polygon>
                <path d="M68.5397246,30.8665898 C67.584,30.6389571 67.1033478,30.4113245 67.1033478,29.850202 C67.1033478,29.2381408 67.756971,29.0073245 68.5405217,29.0057327 C69.0331304,29.0049367 69.5911014,29.3129571 70.0725507,29.7753857 L70.7054493,28.8330184 C70.294942,28.3276102 69.4715362,27.9232837 68.3587826,27.9232837 C66.7358841,27.9232837 65.926029,28.7940184 65.926029,30.0093857 C65.926029,31.332202 67.1328406,31.6943449 68.3587826,31.9912224 C69.3400145,32.2284061 69.7728406,32.3867939 69.7728406,32.9972633 C69.7728406,33.8656102 69.108058,33.8855082 68.4966812,33.8855082 C67.9474783,33.8855082 67.0092899,33.7398551 66.3963188,32.9861204 L65.6558116,33.8321816 C66.2097971,34.4362837 66.9024783,34.9568143 68.4998696,34.9568143 C70.2024783,34.9568143 70.9087101,34.1433857 70.9087101,32.8794673 C70.9087101,31.5160592 69.7975507,31.166651 68.5397246,30.8665898" id="Fill-34" fill="#A2B1C5" mask="url(#mask-2)"></path>
                <path d="M1.94867391,19.8302265 C1.94867391,9.02961429 10.9495435,0.273716327 22.3209928,0.273716327 C23.1778768,0.273716327 24.0220072,0.323859184 24.8509928,0.420165306 C23.4759928,0.145573469 22.0515725,-7.95918367e-05 20.5904855,-7.95918367e-05 C9.21903623,-7.95918367e-05 -0.000239130435,8.75581837 -0.000239130435,19.5564306 C-0.000239130435,29.5444102 7.8822971,37.7829612 18.0604855,38.9672878 C8.73360145,37.102451 1.94867391,29.2435531 1.94867391,19.8302265" id="Fill-35" fill="#A2B1C5" mask="url(#mask-2)"></path>
            </g>
        </g>
    </g>
</svg>