<?xml version="1.0" encoding="UTF-8"?>
<svg width="78px" height="45px" viewBox="0 0 78 45" version="1.1" xmlns="http://www.w3.org/2000/svg" xmlns:xlink="http://www.w3.org/1999/xlink">
    <!-- Generator: Sketch 50.2 (55047) - http://www.bohemiancoding.com/sketch -->
    <title>logo-award-eurobusiness</title>
    <desc>Created with Sketch.</desc>
    <defs>
        <polygon id="path-1" points="0 37.9136292 71.6616 37.9136292 71.6616 -7.91666667e-05 0 -7.91666667e-05"></polygon>
    </defs>
    <g id="Designs---MVP" stroke="none" stroke-width="1" fill="none" fill-rule="evenodd">
        <g id="Assets" transform="translate(-1004.000000, -334.000000)">
            <g id="Page-1" transform="translate(1007.000000, 337.000000)">
                <polygon id="Fill-1" fill="#A2B1C5" points="16.2476 8.5576 21.078 8.5576 21.078 10.5431 14.198 10.5431 14.198 0.0867666667 21.078 0.0946833333 21.078 1.91789167 16.2524 1.92976667 16.2476 4.308725 20.3228 4.31426667 20.3308 6.1541 16.2476 6.14776667"></polygon>
                <path d="M28.4992,10.5661375 L26.6832,10.5756375 L26.6728,9.9177625 C26.1472,10.3033042 25.448,10.5724708 24.8736,10.5724708 C23.9136,10.5724708 23.3672,10.4291792 22.8464,9.89322083 C22.2272,9.25830417 22.0792,8.0842625 22.0792,6.8017625 L22.0792,2.84659583 L24.108,2.84659583 L24.108,6.82155417 C24.108,7.51109583 24.0328,7.93622083 24.2656,8.26634583 C24.4984,8.59647083 24.872,8.7611375 25.3872,8.7611375 C25.9616,8.7611375 26.2416,8.5545125 26.5984,8.14047083 L26.604,2.84659583 L28.4992,2.84659583 L28.4992,10.5661375 Z" id="Fill-3" fill="#A2B1C5"></path>
                <path d="M34.22344,5.022175 C34.22344,5.022175 33.61064,4.4973 33.08024,4.51313333 C32.62184,4.52738333 32.19384,5.06571667 31.96184,5.40771667 L31.96184,10.574925 L29.84824,10.5685917 L29.83224,2.85696667 L31.82104,2.85696667 L31.82104,3.62725833 C31.82104,3.62725833 32.26904,3.14038333 32.64904,2.922675 C33.02904,2.70496667 33.72344,2.5973 34.24024,2.72634167 C34.77064,2.85696667 35.44984,3.34938333 35.73144,3.5948 L34.22344,5.022175 Z" id="Fill-5" fill="#A2B1C5"></path>
                <path d="M40.23392,6.71452083 C40.23392,7.08027083 40.19712,7.40485417 40.12352,7.6795625 C40.05232,7.9479375 39.95312,8.17277083 39.82992,8.34772917 C39.71152,8.51477083 39.57072,8.6438125 39.41232,8.72852083 C39.10432,8.8931875 38.67152,8.8931875 38.35952,8.72772917 C38.19872,8.64302083 38.05552,8.51397917 37.93472,8.3469375 C37.80992,8.17197917 37.71072,7.9479375 37.63872,7.6795625 C37.56592,7.40485417 37.52912,7.08027083 37.52912,6.71452083 C37.52912,6.35035417 37.56592,6.02577083 37.63872,5.75027083 C37.71072,5.48110417 37.80992,5.2546875 37.93392,5.07735417 C38.05072,4.90872917 38.19152,4.7820625 38.35072,4.69972917 C38.51072,4.61739583 38.68672,4.5754375 38.87472,4.5754375 C39.06752,4.5754375 39.24752,4.61739583 39.40912,4.69972917 C39.57072,4.78285417 39.71232,4.90952083 39.82912,5.07735417 C39.95312,5.2546875 40.05152,5.48110417 40.12352,5.75027083 C40.19712,6.02577083 40.23392,6.35035417 40.23392,6.71452083 M42.07312,5.08527083 C41.91872,4.58889583 41.69232,4.15664583 41.40032,3.79960417 C41.10432,3.4378125 40.73872,3.1551875 40.31312,2.95885417 C39.88832,2.76252083 39.40432,2.66277083 38.87472,2.66277083 C38.35712,2.66277083 37.88112,2.76252083 37.45872,2.95885417 C37.03552,3.15597917 36.67072,3.4378125 36.37312,3.7988125 C36.07872,4.15585417 35.84992,4.58810417 35.69312,5.08447917 C35.53872,5.5753125 35.46032,6.1239375 35.46032,6.71452083 C35.46032,7.30589583 35.53712,7.85372917 35.68912,8.3445625 C35.84352,8.8409375 36.06992,9.2731875 36.36272,9.63102083 C36.65872,9.99202083 37.02432,10.2746458 37.44992,10.4717708 C37.87472,10.6681042 38.35792,10.7678542 38.88752,10.7678542 C39.40432,10.7678542 39.88112,10.6681042 40.30352,10.4709792 C40.72672,10.2746458 41.09232,9.99202083 41.38992,9.63102083 C41.68432,9.27477083 41.91312,8.84252083 42.06992,8.34535417 C42.22432,7.85452083 42.30272,7.30589583 42.30272,6.71452083 C42.30272,6.12472917 42.22592,5.57689583 42.07312,5.08527083" id="Fill-7" fill="#A2B1C5"></path>
                <path d="M47.6472,6.67739167 C47.6472,8.31376667 47.2096,8.844975 46.3752,8.83151667 C45.508,8.816475 45.2352,8.379475 45.1816,8.31930833 L45.1816,5.21835 C45.3536,5.011725 45.496,4.54780833 46.3472,4.579475 C47.096,4.60718333 47.6472,5.12493333 47.6472,6.67739167 M48.9624,3.64214167 C48.4112,2.98426667 47.9304,2.73330833 46.7648,2.726975 C45.9088,2.722225 45.3088,3.32151667 45.1456,3.48855833 L45.1312,2.85839167 L43.2064,2.850475 L43.2064,13.2791 L45.1816,13.2791 L45.1816,10.801975 C45.1816,10.58585 45.1792,10.38635 45.1744,10.2026833 C45.1744,10.1979333 45.1744,10.1931833 45.1744,10.189225 C45.428,10.4956 46.3136,10.6816417 46.6968,10.70935 C47.8168,10.7893083 48.552,10.3420167 49.0072,9.77676667 C49.2888,9.42685 49.7392,8.279725 49.7392,6.564975 C49.7392,4.94285 49.2376,3.97068333 48.9624,3.64214167" id="Fill-9" fill="#A2B1C5"></path>
                <path d="M53.70464,4.403725 C54.49824,4.403725 54.86624,5.0141 54.92064,5.19618333 C54.96784,5.35451667 54.99504,5.52393333 55.00224,5.700475 L52.31344,5.700475 C52.33984,5.52630833 52.38464,5.35926667 52.44544,5.20330833 C52.51744,5.01964167 52.85984,4.403725 53.70464,4.403725 M56.81264,4.81618333 C56.65024,4.32139167 56.41904,3.91130833 56.12464,3.59543333 C55.83024,3.27876667 55.47664,3.04364167 55.07184,2.89639167 C54.67184,2.74993333 54.22784,2.67551667 53.75424,2.67551667 C53.29984,2.67551667 52.85344,2.76180833 52.42624,2.93201667 C51.99904,3.10143333 51.61424,3.3611 51.28304,3.70151667 C50.95184,4.04193333 50.68464,4.47655833 50.48864,4.99193333 C50.29424,5.50651667 50.13344,6.032975 50.13344,6.71618333 C50.13344,7.41205833 50.26544,8.14118333 50.47344,8.631225 C50.68304,9.12285 50.92064,9.51551667 51.27904,9.82585 C51.63664,10.1346 51.99184,10.3911 52.47104,10.5296417 C52.94464,10.6673917 53.60864,10.7172667 54.13344,10.6745167 C54.97824,10.607225 55.64864,10.32935 56.12144,10.0530583 C56.65904,9.73876667 56.94384,9.36668333 56.94384,9.36668333 L55.64304,8.12535 C55.64304,8.12535 55.36864,8.41985 55.03984,8.58451667 C54.71104,8.74918333 54.21984,8.87585 53.95664,8.87585 C53.68784,8.87585 53.09744,8.75235 52.90384,8.60905833 C52.71104,8.46735 52.55344,8.27893333 52.43344,8.04935 C52.32544,7.84193333 52.25584,7.59176667 52.22464,7.30439167 L57.11664,7.30755833 C57.11664,7.30755833 57.12224,6.859475 57.12784,6.59980833 C57.12784,5.933225 56.97424,5.306225 56.81264,4.81618333" id="Fill-11" fill="#A2B1C5"></path>
                <path d="M61.78552,7.3731875 C61.60952,7.33122917 61.58552,7.3019375 61.35832,7.2686875 C61.13032,7.2354375 60.90072,7.21960417 60.66792,7.21960417 C60.21832,7.21960417 59.88312,7.2971875 59.63832,7.49589583 C59.47192,7.63127083 59.33512,7.88460417 59.34072,8.16722917 C59.34472,8.33585417 59.42072,8.6746875 59.70392,8.79660417 C59.94792,8.9026875 60.17992,8.94939583 60.51912,8.94939583 C60.82872,8.94939583 61.20072,8.85360417 61.33992,8.7791875 C61.47992,8.7055625 61.70312,8.54327083 61.78152,8.4561875 L61.78552,7.3731875 Z M61.75352,9.9524375 C61.75352,9.9524375 61.49512,10.1693542 61.35032,10.2817708 C61.20472,10.3941875 60.81352,10.5366875 60.58552,10.5976458 C60.35832,10.6593958 60.11272,10.6894792 59.84872,10.6894792 C59.49192,10.6894792 59.15832,10.6348542 58.84792,10.5248125 C58.53752,10.4155625 58.27112,10.2564375 58.04872,10.0490208 C57.82632,9.84160417 57.65192,9.5914375 57.52552,9.2969375 C57.39832,9.0024375 57.33512,8.67389583 57.33512,8.31052083 C57.33512,7.91072917 57.40872,7.55289583 57.55592,7.2354375 C57.70392,6.91797917 57.90952,6.64960417 58.17272,6.42952083 C58.43672,6.20864583 58.75192,6.0408125 59.11912,5.92602083 C59.48632,5.8104375 59.89272,5.7534375 60.33752,5.7534375 C60.66312,5.7534375 60.96312,5.77402083 61.23752,5.81439583 C61.51192,5.85635417 61.60872,5.85635417 61.81592,5.9125625 L61.81592,5.61252083 C61.81592,5.43914583 61.79992,5.09872917 61.59592,4.8580625 C61.42232,4.65302083 60.96152,4.51764583 60.43672,4.5089375 C59.76312,4.49864583 59.21432,4.83510417 58.90152,5.1216875 L57.49832,3.8273125 C58.07032,3.1290625 59.08952,2.72689583 60.47592,2.69522917 C62.15192,2.6564375 62.84552,3.19397917 63.12232,3.42672917 C63.39912,3.65947917 63.71432,4.0885625 63.85112,4.40602083 C63.98792,4.7226875 63.95352,5.11614583 63.95352,5.4898125 C63.95352,5.4898125 63.94312,10.2904792 63.95352,10.5659792 L61.75352,10.5636042 L61.75352,9.9524375 Z" id="Fill-13" fill="#A2B1C5"></path>
                <path d="M67.13592,3.4164375 C67.32632,3.20585417 67.67832,2.64772917 68.98952,2.67385417 C69.25512,2.6778125 69.51192,2.70552083 69.76072,2.76885417 C70.00872,2.8321875 70.23592,2.9319375 70.44152,3.06652083 C70.64712,3.20189583 70.82872,3.3760625 70.98632,3.59139583 C71.14472,3.80514583 71.26872,4.06085417 71.35912,4.3569375 C71.40872,4.52160417 71.44312,4.70052083 71.46072,4.8936875 C71.47832,5.08764583 71.48712,5.3116875 71.48712,5.5658125 L71.48712,10.5628125 L69.42312,10.5628125 L69.42312,5.85952083 C69.42312,5.65289583 69.32072,4.81847917 68.59272,4.65539583 C67.81672,4.48360417 67.24632,5.0005625 67.13512,5.26339583 L67.13512,10.5628125 L64.89672,10.5628125 L64.89672,2.86385417 L67.12952,2.86147917 L67.13592,3.4164375 Z" id="Fill-15" fill="#A2B1C5"></path>
                <path d="M30.466,24.5092083 L28.4916,24.5187083 L28.4796,23.8030417 C27.9076,24.2234167 27.1468,24.5163333 26.522,24.5163333 C25.478,24.5163333 24.8844,24.360375 24.3172,23.7777083 C23.6444,23.0865833 23.4828,21.8104167 23.4828,20.4147083 L23.4828,16.1127917 L25.6892,16.1127917 L25.6892,20.4352917 C25.6892,21.1865833 25.6076,21.6489167 25.8612,22.0075417 C26.114,22.3661667 26.5212,22.545875 27.0812,22.545875 C27.706,22.545875 28.0108,22.32025 28.3988,21.8705833 L28.4044,16.1127917 L30.466,16.1127917 L30.466,24.5092083 Z" id="Fill-17" fill="#A2B1C5"></path>
                <path d="M53.86992,17.8844625 C54.71312,17.8844625 55.10352,18.5320458 55.16112,18.7260042 C55.21152,18.8938375 55.24032,19.0735458 55.24752,19.2611708 L52.39232,19.2611708 C52.42112,19.0767125 52.46832,18.8993792 52.53312,18.7331292 C52.60912,18.5383792 52.97312,17.8844625 53.86992,17.8844625 M57.16992,18.3222542 C56.99712,17.7973792 56.75152,17.3619625 56.43952,17.0262958 C56.12752,16.6906292 55.75152,16.4404625 55.32192,16.2837125 C54.89712,16.1277542 54.42592,16.0493792 53.92272,16.0493792 C53.44032,16.0493792 52.96592,16.1412125 52.51312,16.3209208 C52.05872,16.5022125 51.65072,16.7777125 51.29872,17.1395042 C50.94672,17.5012958 50.66352,17.9620458 50.45552,18.5090875 C50.24832,19.0553375 50.07792,19.6142542 50.07792,20.3402125 C50.07792,21.0780458 50.21792,21.8530875 50.43952,22.3732125 C50.66192,22.8949208 50.91392,23.3121292 51.29392,23.6406708 C51.67392,23.9700042 52.05152,24.2423375 52.55952,24.3895875 C53.06352,24.5352542 53.76752,24.5882958 54.32512,24.5431708 C55.22272,24.4711292 55.93392,24.1758375 56.43632,23.8829208 C57.00672,23.5496292 57.30912,23.1537958 57.30912,23.1537958 L55.92832,21.8364625 C55.92832,21.8364625 55.63712,22.1499625 55.28752,22.3241292 C54.93792,22.4990875 54.41712,22.6328792 54.13712,22.6328792 C53.85232,22.6328792 53.22512,22.5014625 53.01952,22.3502542 C52.81472,22.1990458 52.64672,21.9987542 52.52032,21.7557125 C52.40592,21.5348375 52.33152,21.2696292 52.29872,20.9648375 L57.49232,20.9680042 C57.49232,20.9680042 57.49952,20.4914208 57.50432,20.2159208 C57.50432,19.5081708 57.34112,18.8423792 57.16992,18.3222542" id="Fill-19" fill="#A2B1C5"></path>
                <path d="M44.61712,16.7804833 C44.82432,16.5516917 45.20672,15.9444833 46.63232,15.9721917 C46.92112,15.9769417 47.20032,16.0062333 47.46992,16.0751083 C47.74032,16.144775 47.98672,16.2524417 48.21072,16.3996917 C48.43392,16.54615 48.63152,16.73615 48.80352,16.9696917 C48.97552,17.2024417 49.10992,17.4811083 49.20832,17.8033167 C49.26272,17.9822333 49.29952,18.1761917 49.31872,18.3859833 C49.33792,18.5965667 49.34752,18.8404 49.34752,19.1159 L49.34752,24.5491083 L47.10352,24.5491083 L47.10352,19.4357333 C47.10352,19.2109 46.99232,18.30365 46.20032,18.1271083 C45.35632,17.9394833 44.73632,18.5023583 44.61632,18.78815 L44.61632,24.5491083 L42.18272,24.5491083 L42.18272,16.1796083 L44.60992,16.1764417 L44.61712,16.7804833 Z" id="Fill-21" fill="#A2B1C5"></path>
                <path d="M16.432,22.3801 L18.7408,22.3801 C19.2936,22.3801 19.964,21.8900583 19.9488,21.0255583 C19.936,20.2623917 19.2768,19.80085 18.7408,19.80085 L16.424,19.80085 L16.432,22.3801 Z M16.4192,17.7266833 L18.5808,17.7266833 C19.084,17.7266833 19.9888,17.2691 19.9344,16.3436417 C19.8816,15.4546 18.9904,15.1608917 18.5416,15.1608917 L16.4216,15.1608917 L16.4192,17.7266833 Z M14.2048,24.3450167 L14.2048,13.2545583 L18.5728,13.2545583 C19.312,13.2545583 19.9248,13.3305583 20.412,13.4825583 C20.8984,13.6337667 21.4048,13.9045167 21.74,14.340725 C22.1048,14.815725 22.2864,15.4261 22.3192,16.074475 C22.412,17.9285583 21.0264,18.663225 21.0264,18.663225 C21.0264,18.663225 22.4808,19.3701833 22.4592,21.190225 C22.4488,22.0460167 22.1728,22.914475 21.6064,23.49635 C21.04,24.0790167 20.2832,24.3450167 19.1064,24.3450167 L14.2048,24.3450167 Z" id="Fill-23" fill="#A2B1C5"></path>
                <mask id="mask-2" fill="white">
                    <use xlink:href="#path-1"></use>
                </mask>
                <g id="Clip-26"></g>
                <polygon id="Fill-25" fill="#A2B1C5" mask="url(#mask-2)" points="38.9104 14.9355042 41.1112 14.9355042 41.1112 13.1368375 38.9104 13.1368375"></polygon>
                <polygon id="Fill-27" fill="#A2B1C5" mask="url(#mask-2)" points="38.9104 24.4917125 41.0952 24.4917125 41.0952 16.1079625 38.9104 16.1079625"></polygon>
                <path d="M30.97224,23.2483208 L32.38824,21.9761125 C33.49944,22.9949875 36.04664,22.7923208 36.02504,21.8296542 C36.00584,20.9635708 34.07464,21.1844458 33.40664,21.0371958 C32.24984,20.7838625 31.33864,20.0325708 31.33864,18.7437375 C31.33864,18.0233208 31.61624,17.3812792 32.20584,16.8453208 C32.66744,16.4273208 33.66584,16.0156542 34.70824,16.0156542 C35.91224,16.0156542 36.84184,16.1359875 37.90984,17.2086958 L36.47544,18.5616542 C36.19144,18.2156958 35.55784,17.9679042 34.84104,17.9346542 C33.85464,17.8887375 33.48584,18.2149042 33.48984,18.5790708 C33.50424,19.5916125 34.94824,19.3192792 36.17544,19.5029458 C37.35144,19.6779042 38.04264,20.6001958 38.04264,21.8795292 C38.04264,22.7764875 37.71464,23.4826542 37.00904,23.9244042 C36.30344,24.3685292 35.66184,24.6297792 34.15704,24.6345292 C32.63944,24.6400708 31.51464,23.8531542 30.97224,23.2483208" id="Fill-28" fill="#A2B1C5" mask="url(#mask-2)"></path>
                <path d="M57.71792,23.2483208 L59.13472,21.9761125 C60.24512,22.9949875 62.79232,22.7923208 62.77072,21.8296542 C62.75152,20.9635708 60.82112,21.1844458 60.15312,21.0371958 C58.99552,20.7838625 58.08512,20.0325708 58.08512,18.7437375 C58.08512,18.0233208 58.36192,17.3812792 58.95232,16.8453208 C59.41312,16.4273208 60.41152,16.0156542 61.45392,16.0156542 C62.65872,16.0156542 63.58832,16.1359875 64.65552,17.2086958 L63.22112,18.5616542 C62.93792,18.2156958 62.30432,17.9679042 61.58672,17.9346542 C60.60032,17.8887375 60.23152,18.2149042 60.23632,18.5790708 C60.24992,19.5916125 61.69472,19.3192792 62.92112,19.5029458 C64.09712,19.6779042 64.78912,20.6001958 64.78912,21.8795292 C64.78912,22.7764875 64.46032,23.4826542 63.75472,23.9244042 C63.04912,24.3685292 62.40832,24.6297792 60.90352,24.6345292 C59.38592,24.6400708 58.26112,23.8531542 57.71792,23.2483208" id="Fill-29" fill="#A2B1C5" mask="url(#mask-2)"></path>
                <path d="M64.59056,23.2483208 L66.00656,21.9761125 C67.11776,22.9949875 69.66496,22.7923208 69.64336,21.8296542 C69.62416,20.9635708 67.69296,21.1844458 67.02496,21.0371958 C65.86816,20.7838625 64.95696,20.0325708 64.95696,18.7437375 C64.95696,18.0233208 65.23456,17.3812792 65.82416,16.8453208 C66.28576,16.4273208 67.28416,16.0156542 68.32576,16.0156542 C69.53056,16.0156542 70.46016,16.1359875 71.52816,17.2086958 L70.09376,18.5616542 C69.80976,18.2156958 69.17616,17.9679042 68.45936,17.9346542 C67.47216,17.8887375 67.10416,18.2149042 67.10816,18.5790708 C67.12176,19.5916125 68.56656,19.3192792 69.79376,19.5029458 C70.96896,19.6779042 71.66096,20.6001958 71.66096,21.8795292 C71.66096,22.7764875 71.33296,23.4826542 70.62736,23.9244042 C69.92176,24.3685292 69.28016,24.6297792 67.77536,24.6345292 C66.25776,24.6400708 65.13296,23.8531542 64.59056,23.2483208" id="Fill-30" fill="#A2B1C5" mask="url(#mask-2)"></path>
                <path d="M58.27536,36.4824542 L59.69216,35.2094542 C60.80256,36.2283292 63.34976,36.0256625 63.32816,35.0629958 C63.30896,34.1977042 61.37856,34.4177875 60.70976,34.2713292 C59.55296,34.0172042 58.64176,33.2667042 58.64176,31.9778708 C58.64176,31.2566625 58.91936,30.6146208 59.50896,30.0794542 C59.97056,29.6614542 60.96896,29.2489958 62.01136,29.2489958 C63.21536,29.2489958 64.14496,29.3701208 65.21296,30.4420375 L63.77856,31.7949958 C63.49536,31.4498292 62.86096,31.2012458 62.14416,31.1687875 C61.15776,31.1228708 60.78896,31.4490375 60.79376,31.8124125 C60.80736,32.8249542 62.25136,32.5534125 63.47856,32.7362875 C64.65456,32.9112458 65.34576,33.8343292 65.34576,35.1128708 C65.34576,36.0098292 65.01776,36.7159958 64.31216,37.1585375 C63.60656,37.6018708 62.96496,37.8631208 61.46016,37.8686625 C59.94256,37.8742042 58.81776,37.0872875 58.27536,36.4824542" id="Fill-31" fill="#A2B1C5" mask="url(#mask-2)"></path>
                <path d="M40.43824,34.2551 C40.25824,34.21235 40.23424,34.1830583 40.00144,34.148225 C39.76864,34.1141833 39.53344,34.0975583 39.29504,34.0975583 C38.83504,34.0975583 38.49264,34.176725 38.24224,34.3801833 C38.07184,34.5195167 37.93264,34.7776 37.93824,35.0665583 C37.94144,35.2391417 38.02064,35.5858917 38.30944,35.7117667 C38.55904,35.820225 38.79664,35.867725 39.14304,35.867725 C39.45904,35.867725 39.83984,35.7687667 39.98304,35.6927667 C40.12544,35.6175583 40.35424,35.4521 40.43344,35.3626417 L40.43824,34.2551 Z M40.40544,36.8921417 C40.40544,36.8921417 40.14064,37.1153917 39.99264,37.2301833 C39.84464,37.344975 39.44384,37.4906417 39.21104,37.5531833 C38.97824,37.615725 38.72704,37.6473917 38.45744,37.6473917 C38.09264,37.6473917 37.75104,37.5911833 37.43424,37.4787667 C37.11664,37.3671417 36.66064,37.159725 36.43344,36.9475583 C36.20544,36.7361833 36.02704,36.4796833 35.89744,36.1780583 C35.76784,35.877225 35.70304,35.5407667 35.70304,35.1686833 C35.70304,34.760975 35.77824,34.3944333 35.92944,34.06985 C36.07984,33.7452667 36.39344,33.2568083 36.94544,32.96785 C37.63024,32.6100167 38.50224,32.5981417 38.95744,32.5981417 C39.29024,32.5981417 39.59744,32.6203083 39.87744,32.661475 C40.15824,32.7034333 40.25744,32.7034333 40.46944,32.761225 L40.46944,32.4556417 C40.46944,32.276725 40.45344,31.9291833 40.24464,31.682975 C40.06704,31.4731833 39.59504,31.3346417 39.05824,31.3259333 C38.36944,31.3156417 37.80864,31.659225 37.48784,31.9521417 L36.05424,30.628475 C36.63824,29.9151833 37.68064,29.502725 39.09904,29.4702667 C40.81344,29.4306833 41.75264,29.9951417 42.03584,30.234225 C42.31824,30.4725167 42.64144,30.9103083 42.78144,31.2356833 C42.92144,31.5602667 42.88544,31.9624333 42.88544,32.3440167 C42.88544,32.3440167 42.87504,37.2539333 42.88624,37.5365583 L40.40544,37.51835 L40.40544,36.8921417 Z" id="Fill-32" fill="#A2B1C5" mask="url(#mask-2)"></path>
                <path d="M48.92496,31.9055917 C48.92496,31.9055917 48.28896,31.3878417 47.74336,31.4044667 C47.27296,31.4195083 46.80736,31.8137583 46.56816,32.1652583 L46.55296,37.5470083 L44.04336,37.5398833 L44.04176,29.546425 L46.42336,29.546425 L46.42336,30.3373 C46.42336,30.3373 46.88416,29.8369667 47.27456,29.612925 C47.66416,29.389675 48.36416,29.3500917 48.90816,29.4118417 C49.76896,29.5076333 50.32256,30.0435917 50.61216,30.296925 L48.92496,31.9055917 Z" id="Fill-33" fill="#A2B1C5" mask="url(#mask-2)"></path>
                <polygon id="Fill-34" fill="#A2B1C5" mask="url(#mask-2)" points="68.1644 32.1746792 67.6668 32.1746792 67.6668 30.0791375 66.9836 30.0791375 66.9836 29.6951792 68.8476 29.6951792 68.8476 30.0791375 68.1644 30.0791375"></polygon>
                <polygon id="Fill-35" fill="#A2B1C5" mask="url(#mask-2)" points="71.45936 32.1746792 70.98656 32.1746792 70.98656 30.0039292 70.27536 32.1746792 70.03216 32.1746792 69.31616 30.0039292 69.31616 32.1746792 68.93776 32.1746792 68.93776 29.6951792 69.66256 29.6951792 70.20096 31.2919708 70.73056 29.6951792 71.45936 29.6951792"></polygon>
                <path d="M20.7152,33.6420333 L19.3928,30.3312833 L18.1088,33.6610333 L20.7152,33.6420333 Z M24.6832,37.5497 L22.1072,37.5584083 L21.2448,35.5349083 L17.464,35.5349083 L16.6168,37.5584083 L13.9856,37.5299083 L18.42,26.8661583 L20.3848,26.8867417 L24.6832,37.5497 Z" id="Fill-36" fill="#A2B1C5" mask="url(#mask-2)"></path>
                <polygon id="Fill-37" fill="#A2B1C5" mask="url(#mask-2)" points="36.14528 29.4749375 33.53408 37.5372708 31.56128 37.5618125 29.86288 32.7088958 28.26688 37.5372708 26.34848 37.5618125 23.62608 29.4899792 26.29728 29.4899792 27.43088 33.9636875 28.89408 29.5042292 30.80368 29.5042292 32.35568 33.9636875 33.66848 29.4749375"></polygon>
                <path d="M55.30424,32.9338083 L55.30424,34.1616833 C55.30424,34.6485583 55.17064,35.0341 54.89464,35.340475 C54.62664,35.6389333 54.33144,35.7846 53.99064,35.7846 C53.66824,35.7846 52.68504,35.7846 52.68504,33.5869333 C52.68504,32.7984333 52.81144,32.205475 53.06104,31.8238917 C53.29384,31.469225 53.60424,31.2974333 54.01304,31.2974333 C54.39464,31.2974333 54.69624,31.4320167 54.93544,31.7083083 C55.18024,31.991725 55.30424,32.4041833 55.30424,32.9338083 Z M55.28264,26.780975 L55.30424,30.1423917 C54.88344,29.673725 54.30344,29.4370167 53.57064,29.4370167 C52.57144,29.4370167 51.53704,29.6729333 50.99544,30.4994333 C50.47464,31.2950583 50.24584,32.4216 50.24584,33.4856 C50.24584,34.6263917 50.47304,35.67535 50.97384,36.4503917 C51.49624,37.259475 52.50344,37.5935583 53.48344,37.5935583 C54.29784,37.5935583 54.94344,37.2776833 55.41304,36.6530583 L55.41304,37.52785 L57.76584,37.52785 L57.74424,26.780975 L55.28264,26.780975 Z" id="Fill-38" fill="#A2B1C5" mask="url(#mask-2)"></path>
                <path d="M10.53008,5.2100375 C10.53008,8.08774583 8.17248,10.4199958 5.26448,10.4199958 C2.35728,10.4199958 -0.00032,8.08774583 -0.00032,5.2100375 C-0.00032,2.33232917 2.35728,7.91666667e-05 5.26448,7.91666667e-05 C8.17248,7.91666667e-05 10.53008,2.33232917 10.53008,5.2100375" id="Fill-39" fill="#A2B1C5" mask="url(#mask-2)"></path>
                <path d="M5.55856,14.5971458 C3.10816,14.5971458 1.11456,16.5699792 1.11456,18.9948542 C1.11456,21.4197292 3.10816,23.3925625 5.55856,23.3925625 C8.00896,23.3925625 10.00336,21.4197292 10.00336,18.9948542 C10.00336,16.5699792 8.00896,14.5971458 5.55856,14.5971458 M5.55856,24.4961458 C2.49376,24.4961458 0.00016,22.0285208 0.00016,18.9948542 C0.00016,15.9619792 2.49376,13.4935625 5.55856,13.4935625 C8.62416,13.4935625 11.11776,15.9619792 11.11776,18.9948542 C11.11776,22.0285208 8.62416,24.4961458 5.55856,24.4961458" id="Fill-40" fill="#A2B1C5" mask="url(#mask-2)"></path>
                <path d="M5.55856,28.01455 C3.10816,28.01455 1.11456,29.9873833 1.11456,32.41305 C1.11456,34.837925 3.10816,36.8107583 5.55856,36.8107583 C8.00896,36.8107583 10.00336,34.837925 10.00336,32.41305 C10.00336,29.9873833 8.00896,28.01455 5.55856,28.01455 M5.55856,37.91355 C2.49376,37.91355 0.00016,35.445925 0.00016,32.41305 C0.00016,29.380175 2.49376,26.9109667 5.55856,26.9109667 C8.62416,26.9109667 11.11776,29.380175 11.11776,32.41305 C11.11776,35.445925 8.62416,37.91355 5.55856,37.91355" id="Fill-41" fill="#A2B1C5" mask="url(#mask-2)"></path>
            </g>
        </g>
    </g>
</svg>