<?xml version="1.0" encoding="UTF-8"?>
<svg width="71px" height="87px" viewBox="0 0 71 87" version="1.1" xmlns="http://www.w3.org/2000/svg" xmlns:xlink="http://www.w3.org/1999/xlink">
    <!-- Generator: Sketch 50.2 (55047) - http://www.bohemiancoding.com/sketch -->
    <title>icon-steps-completesurvey</title>
    <desc>Created with Sketch.</desc>
    <defs/>
    <g id="Designs---MVP" stroke="none" stroke-width="1" fill="none" fill-rule="evenodd">
        <g id="Assets" transform="translate(-273.000000, -584.000000)">
            <g id="XMLID_17497_" transform="translate(278.000000, 589.000000)">
                <ellipse id="XMLID_17513_" fill="#45413C" fill-rule="nonzero" opacity="0.15" cx="30.5" cy="73.5976744" rx="25.4764706" ry="3.40232558"/>
                <g id="XMLID_17498_">
                    <path d="M53.8235294,72.5232558 L7.17647059,72.5232558 C3.76764706,72.5232558 0.897058824,69.6581395 0.897058824,66.255814 L0.897058824,6.80465116 C0.897058824,3.40232558 3.76764706,0.537209302 7.17647059,0.537209302 L53.8235294,0.537209302 C57.2323529,0.537209302 60.1029412,3.40232558 60.1029412,6.80465116 L60.1029412,66.255814 C60.1029412,69.6581395 57.4117647,72.5232558 53.8235294,72.5232558 Z" id="XMLID_17512_" fill="#FFFFFF" fill-rule="nonzero"/>
                    <path d="M53.8235294,72.5232558 L7.17647059,72.5232558 C3.76764706,72.5232558 0.897058824,69.6581395 0.897058824,66.255814 L0.897058824,6.80465116 C0.897058824,3.40232558 3.76764706,0.537209302 7.17647059,0.537209302 L53.8235294,0.537209302 C57.2323529,0.537209302 60.1029412,3.40232558 60.1029412,6.80465116 L60.1029412,66.255814 C60.1029412,69.6581395 57.4117647,72.5232558 53.8235294,72.5232558 Z" id="XMLID_17510_" stroke="#45413C" stroke-width="1.8" stroke-linecap="round" stroke-linejoin="round"/>
                    <path d="M50.4147059,65.1813953 L10.4058824,65.1813953 C9.15,65.1813953 8.25294118,64.1069767 8.25294118,63.0325581 L8.25294118,13.6093023 C8.25294118,12.355814 9.32941176,11.4604651 10.4058824,11.4604651 L50.4147059,11.4604651 C51.6705882,11.4604651 52.5676471,12.5348837 52.5676471,13.6093023 L52.5676471,63.0325581 C52.7470588,64.2860465 51.6705882,65.1813953 50.4147059,65.1813953 Z" id="XMLID_17509_" fill-rule="nonzero"/>
                    <path d="M50.4147059,65.1813953 L10.4058824,65.1813953 C9.15,65.1813953 8.25294118,64.1069767 8.25294118,63.0325581 L8.25294118,13.6093023 C8.25294118,12.355814 9.32941176,11.4604651 10.4058824,11.4604651 L50.4147059,11.4604651 C51.6705882,11.4604651 52.5676471,12.5348837 52.5676471,13.6093023 L52.5676471,63.0325581 C52.7470588,64.2860465 51.6705882,65.1813953 50.4147059,65.1813953 Z" id="XMLID_17507_" stroke="#45413C" stroke-width="1.8" stroke-linecap="round" stroke-linejoin="round"/>
                    <path d="M34.0882353,7.34186047 C34.0882353,5.37209302 32.4735294,3.76046512 30.5,3.76046512 C28.5264706,3.76046512 26.9117647,5.37209302 26.9117647,7.34186047 L20.6323529,7.34186047 C19.3764706,7.34186047 18.4794118,8.41627907 18.4794118,9.49069767 L18.4794118,12.8930233 C18.4794118,14.1465116 19.5558824,15.0418605 20.6323529,15.0418605 L40.3676471,15.0418605 C41.6235294,15.0418605 42.5205882,13.9674419 42.5205882,12.8930233 L42.5205882,9.49069767 C42.5205882,8.2372093 41.4441176,7.34186047 40.3676471,7.34186047 L34.0882353,7.34186047 Z" id="XMLID_17506_" fill="#0579B2" fill-rule="nonzero"/>
                    <path d="M34.0882353,7.34186047 C34.0882353,5.37209302 32.4735294,3.76046512 30.5,3.76046512 C28.5264706,3.76046512 26.9117647,5.37209302 26.9117647,7.34186047 L20.6323529,7.34186047 C19.3764706,7.34186047 18.4794118,8.41627907 18.4794118,9.49069767 L18.4794118,12.8930233 C18.4794118,14.1465116 19.5558824,15.0418605 20.6323529,15.0418605 L40.3676471,15.0418605 C41.6235294,15.0418605 42.5205882,13.9674419 42.5205882,12.8930233 L42.5205882,9.49069767 C42.5205882,8.2372093 41.4441176,7.34186047 40.3676471,7.34186047 L34.0882353,7.34186047 Z" id="XMLID_17504_" stroke="#45413C" stroke-width="1.8" stroke-linecap="round" stroke-linejoin="round"/>
                    <path d="M15.0705882,22.0255814 L26.1941176,22.0255814" id="XMLID_17503_" stroke="#45413C" stroke-width="1.8" stroke-linecap="round" stroke-linejoin="round"/>
                    <path d="M15.0705882,54.4372093 L26.1941176,54.4372093" id="XMLID_17502_" stroke="#45413C" stroke-width="1.8" stroke-linecap="round" stroke-linejoin="round"/>
                    <path d="M15.0705882,28.6511628 L41.0852941,28.6511628" id="XMLID_17501_" stroke="#45413C" stroke-width="1.8" stroke-linecap="round" stroke-linejoin="round"/>
                    <path d="M15.0705882,34.5604651 L41.0852941,34.5604651" id="XMLID_17500_" stroke="#45413C" stroke-width="1.8" stroke-linecap="round" stroke-linejoin="round"/>
                    <path d="M15.0705882,41.0069767 L41.0852941,41.0069767" id="XMLID_17499_" stroke="#45413C" stroke-width="1.8" stroke-linecap="round" stroke-linejoin="round"/>
                </g>
            </g>
        </g>
    </g>
</svg>