<?xml version="1.0" encoding="UTF-8"?>
<svg width="40px" height="60px" viewBox="0 0 40 60" version="1.1" xmlns="http://www.w3.org/2000/svg" xmlns:xlink="http://www.w3.org/1999/xlink">
    <!-- Generator: Sketch 50.2 (55047) - http://www.bohemiancoding.com/sketch -->
    <title>icon-male</title>
    <desc>Created with Sketch.</desc>
    <defs/>
    <g id="Designs---MVP" stroke="none" stroke-width="1" fill="none" fill-rule="evenodd">
        <g id="Assets" transform="translate(-94.000000, -177.000000)">
            <g id="Group" transform="translate(96.000000, 179.000000)">
                <path d="M18,29.6065486 C16,29.6065486 14.4285714,31.1839626 14.4285714,33.1915804 L14.4285714,37.2068159 C14.4285714,39.2144337 18,42.3692616 18,42.3692616 C18,42.3692616 21.5714286,39.2144337 21.5714286,37.2068159 L21.5714286,33.1915804 C21.5714286,31.1839626 20,29.6065486 18,29.6065486 Z" id="Shape" fill="#FFCEBF" fill-rule="nonzero"/>
                <path d="M18,29.6065486 C16,29.6065486 14.4285714,31.1839626 14.4285714,33.1915804 L14.4285714,34.051988 C14.4285714,36.0596057 16,37.6370197 18,37.6370197 C20,37.6370197 21.5714286,36.0596057 21.5714286,34.051988 L21.5714286,33.1915804 C21.5714286,31.1839626 20,29.6065486 18,29.6065486 Z" id="XMLID_2473_" fill="#FFB59E" fill-rule="nonzero"/>
                <path d="M18,29.6065486 C16,29.6065486 14.4285714,31.1839626 14.4285714,33.1915804 L14.4285714,37.2068159 C14.4285714,39.2144337 18,42.3692616 18,42.3692616 C18,42.3692616 21.5714286,39.2144337 21.5714286,37.2068159 L21.5714286,33.1915804 C21.5714286,31.1839626 20,29.6065486 18,29.6065486 Z" id="Shape" stroke="#45413C" stroke-width="1.44" stroke-linecap="round" stroke-linejoin="round"/>
                <g transform="translate(0.857143, 32.982292)" id="Shape">
                    <path d="M27.8571429,4.6547277 L17.1428571,0.496090879 L6.42857143,4.6547277 C2.71428571,6.08874039 0.285714286,9.67377213 0.285714286,13.6890077 L0.285714286,22.1496826 L34.2857143,22.1496826 L34.2857143,13.6890077 C34.1428571,9.67377213 31.7142857,6.08874039 27.8571429,4.6547277 Z" fill="#0579B2" fill-rule="nonzero"/>
                    <path d="M27.8571429,4.6547277 L17.1428571,0.496090879 L6.42857143,4.6547277 C2.71428571,6.08874039 0.285714286,9.67377213 0.285714286,13.6890077 L0.285714286,17.9910458 C0.285714286,13.9758102 2.71428571,10.3907785 6.42857143,8.95676579 L17.1428571,4.79812897 L27.8571429,8.95676579 C31.5714286,10.3907785 34,13.9758102 34,17.9910458 L34,13.6890077 C34.1428571,9.67377213 31.7142857,6.08874039 27.8571429,4.6547277 Z" fill="#046798" fill-rule="nonzero"/>
                    <path d="M27.8571429,4.6547277 L17.1428571,0.496090879 L6.42857143,4.6547277 C2.71428571,6.08874039 0.285714286,9.67377213 0.285714286,13.6890077 L0.285714286,22.1496826 L34.2857143,22.1496826 L34.2857143,13.6890077 C34.1428571,9.67377213 31.7142857,6.08874039 27.8571429,4.6547277 Z" stroke="#45413C" stroke-width="1.44" stroke-linecap="round" stroke-linejoin="round"/>
                </g>
                <polygon id="Shape" stroke="#45413C" stroke-width="1.44" fill="#0579B2" fill-rule="nonzero" stroke-linecap="round" stroke-linejoin="round" points="8.57142857 37.2068159 5.85714286 43.3730705 9.42857143 44.8070832 7.28571429 46.6712997 10.8571429 55.1319746 14.1428571 55.1319746 10.2857143 36.4898096"/>
                <polygon id="Shape" stroke="#45413C" stroke-width="1.44" fill="#0579B2" fill-rule="nonzero" stroke-linecap="round" stroke-linejoin="round" points="27.4285714 37.2068159 30.1428571 43.3730705 26.5714286 44.8070832 28.7142857 46.6712997 25.1428571 55.1319746 21.8571429 55.1319746 25.7142857 36.4898096"/>
                <polygon id="Shape" stroke="#45413C" stroke-width="1.44" fill="#FFFFFF" fill-rule="nonzero" stroke-linecap="round" stroke-linejoin="round" points="18 33.6217842 10.2857143 36.4898096 14.1428571 55.1319746 21.8571429 55.1319746 25.7142857 36.4898096"/>
                <g transform="translate(2.285714, 0.000000)">
                    <path d="M15.7142857,0.496090879 C14.5714286,0.496090879 13.2857143,0.639492148 12.2857143,0.926294688 C9.57142857,1.49989977 6.14285714,2.50370865 3,1.93010358 C2.71428571,4.94153024 4.14285714,6.5189442 4.14285714,6.5189442 C2.57142857,8.81336452 1.57142857,11.5379886 1.57142857,14.5494153 L1.57142857,21.8628801 L29.5714286,21.8628801 L29.5714286,14.5494153 C29.7142857,6.80574674 23.4285714,0.496090879 15.7142857,0.496090879 Z" id="XMLID_2472_" fill="#FFFFFF" fill-rule="nonzero"/>
                    <path d="M15.7142857,0.496090879 C14.5714286,0.496090879 13.2857143,0.639492148 12.2857143,0.926294688 C9.57142857,1.49989977 6.14285714,2.50370865 3,1.93010358 C2.71428571,4.94153024 4.14285714,6.5189442 4.14285714,6.5189442 C2.57142857,8.81336452 1.57142857,11.5379886 1.57142857,14.5494153 L1.57142857,21.8628801 L29.5714286,21.8628801 L29.5714286,14.5494153 C29.7142857,6.80574674 23.4285714,0.496090879 15.7142857,0.496090879 Z" id="XMLID_2469_" stroke="#45413C" stroke-width="1.44" stroke-linecap="round" stroke-linejoin="round"/>
                    <path d="M31.2857143,20.8590712 C31.1428571,19.8552623 30.2857143,18.9948547 29.2857143,18.7080521 L28.4285714,18.4212496 C27.1428571,18.134447 26.2857143,16.8438356 26.2857143,15.5532242 L26.2857143,12.5417975 C26.2857143,11.2511861 25.4285714,10.2473772 24.2857143,9.96057467 C22,10.9643836 19,11.5379886 15.7142857,11.5379886 C12.4285714,11.5379886 9.42857143,10.9643836 7.14285714,9.96057467 C6,10.2473772 5.14285714,11.2511861 5.14285714,12.5417975 L5.14285714,15.5532242 C5.14285714,16.8438356 4.28571429,17.9910458 3,18.4212496 L2.14285714,18.7080521 C1.14285714,18.9948547 0.285714286,19.8552623 0.142857143,20.8590712 C2.05946371e-14,22.4364851 1.28571429,23.7270966 2.71428571,23.7270966 C2.71428571,23.7270966 2.85714286,23.7270966 2.85714286,23.7270966 C3.85714286,30.0367524 9.14285714,34.7689943 15.7142857,34.7689943 C22.2857143,34.7689943 27.5714286,29.8933512 28.5714286,23.7270966 C28.5714286,23.7270966 28.7142857,23.7270966 28.7142857,23.7270966 C30.1428571,23.7270966 31.4285714,22.4364851 31.2857143,20.8590712 Z" id="Shape" stroke="#45413C" stroke-width="1.44" fill="#FFFFFF" fill-rule="nonzero" stroke-linecap="round" stroke-linejoin="round"/>
                </g>
            </g>
        </g>
    </g>
</svg>