<?xml version="1.0" encoding="UTF-8"?>
<svg width="40px" height="60px" viewBox="0 0 40 60" version="1.1" xmlns="http://www.w3.org/2000/svg" xmlns:xlink="http://www.w3.org/1999/xlink">
    <!-- Generator: Sketch 50.2 (55047) - http://www.bohemiancoding.com/sketch -->
    <title>icon-female</title>
    <desc>Created with Sketch.</desc>
    <defs/>
    <g id="Designs---MVP" stroke="none" stroke-width="1" fill="none" fill-rule="evenodd">
        <g id="Assets" transform="translate(-184.000000, -177.000000)">
            <g id="Group" transform="translate(187.000000, 178.000000)">
                <g transform="translate(1.285714, 0.000000)">
                    <path d="M15.7142857,0.431707317 C24.2857143,0.431707317 31.2857143,7.48292683 31.2857143,16.1170732 L31.2857143,36.5512195 C31.2857143,37.2707317 30.8571429,37.9902439 30.1428571,38.1341463 C20.8571429,41.8756098 10.5714286,41.8756098 1.28571429,38.1341463 C0.571428571,37.8463415 0.142857143,37.2707317 0.142857143,36.5512195 L0.142857143,16.1170732 C0.142857143,7.48292683 7.14285714,0.431707317 15.7142857,0.431707317 Z" id="XMLID_2371_" fill="#FFFFFF" fill-rule="nonzero"/>
                    <path d="M15.7142857,0.431707317 C24.2857143,0.431707317 31.2857143,7.48292683 31.2857143,16.1170732 L31.2857143,36.5512195 C31.2857143,37.2707317 30.8571429,37.9902439 30.1428571,38.1341463 C20.8571429,41.8756098 10.5714286,41.8756098 1.28571429,38.1341463 C0.571428571,37.8463415 0.142857143,37.2707317 0.142857143,36.5512195 L0.142857143,16.1170732 C0.142857143,7.48292683 7.14285714,0.431707317 15.7142857,0.431707317 Z" id="XMLID_2309_" stroke="#45413C" stroke-width="1.44" stroke-linecap="round" stroke-linejoin="round"/>
                </g>
                <path d="M20.5714286,36.695122 L20.5714286,34.104878 C20.5714286,32.0902439 19,30.5073171 17,30.5073171 C15,30.5073171 13.4285714,32.0902439 13.4285714,34.104878 L13.4285714,36.695122 C5.85714286,38.4219512 0.142857143,45.1853659 0.142857143,53.3878049 L0.142857143,56.1219512 L34.1428571,56.1219512 L34.1428571,53.3878049 C34,45.1853659 28.2857143,38.4219512 20.5714286,36.695122 Z" id="XMLID_2308_" fill="#FFFFFF" fill-rule="nonzero"/>
                <path d="M20.5714286,36.695122 L20.5714286,34.104878 C20.5714286,32.0902439 19,30.5073171 17,30.5073171 C15,30.5073171 13.4285714,32.0902439 13.4285714,34.104878 L13.4285714,36.695122 C5.85714286,38.4219512 0.142857143,45.1853659 0.142857143,53.3878049 L0.142857143,56.1219512 L34.1428571,56.1219512 L34.1428571,53.3878049 C34,45.1853659 28.2857143,38.4219512 20.5714286,36.695122 Z" id="XMLID_2306_" stroke="#45413C" stroke-width="1.44" stroke-linecap="round" stroke-linejoin="round"/>
                <g id="XMLID_2239_" transform="translate(1.285714, 10.073171)" fill="#FFFFFF" fill-rule="nonzero" stroke="#45413C" stroke-linecap="round" stroke-linejoin="round" stroke-width="1.44">
                    <path d="M28.7142857,9.35365854 C25,8.34634146 22.1428571,5.61219512 20.5714286,2.15853659 L19.7142857,0 C16.2857143,4.74878049 11.1428571,7.91463415 5.57142857,8.92195122 L2.85714286,9.35365854 C1.42857143,9.35365854 0.285714286,10.504878 0.285714286,11.9439024 C0.285714286,13.3829268 1.42857143,14.5341463 2.85714286,14.5341463 C2.85714286,14.5341463 3,14.5341463 3,14.5341463 C4,20.8658537 9.28571429,25.6146341 15.8571429,25.6146341 C22.2857143,25.6146341 27.7142857,20.7219512 28.7142857,14.5341463 C28.7142857,14.5341463 28.8571429,14.5341463 28.8571429,14.5341463 C30.2857143,14.5341463 31.4285714,13.3829268 31.4285714,11.9439024 C31.2857143,10.504878 30.1428571,9.35365854 28.7142857,9.35365854 Z" id="XMLID_2240_"/>
                </g>
                <path d="M26.4285714,39.1414634 C24.5714286,44.1780488 22,45.1853659 17,47.7756098 C12.1428571,45.3292683 9.42857143,44.1780488 7.57142857,39.1414634 C5.71428571,40.2926829 4.28571429,41.8756098 3,43.7463415 C5,45.7609756 7.14285714,48.7829268 7.14285714,52.6682927 L7.14285714,56.1219512 L27,56.1219512 L27,52.6682927 C27,48.7829268 29,45.7609756 31.1428571,43.7463415 C29.8571429,41.8756098 28.2857143,40.4365854 26.4285714,39.1414634 Z" id="XMLID_2142_" fill="#0579B2" fill-rule="nonzero"/>
                <g transform="translate(2.714286, 38.853659)" fill="#046798" fill-rule="nonzero" id="Shape">
                    <path d="M23.7142857,0.287804878 C23.2857143,1.29512195 22.8571429,2.30243902 22.4285714,3.02195122 C24.1428571,3.88536585 25.5714286,5.1804878 26.8571429,6.47560976 C27.2857143,5.9 27.8571429,5.32439024 28.2857143,4.74878049 C27.1428571,3.02195122 25.5714286,1.58292683 23.7142857,0.287804878 Z"/>
                    <path d="M6.14285714,3.02195122 C5.71428571,2.30243902 5.28571429,1.29512195 4.85714286,0.287804878 C3,1.43902439 1.57142857,3.02195122 0.285714286,4.89268293 C0.857142857,5.32439024 1.28571429,5.9 1.71428571,6.6195122 C3,5.1804878 4.57142857,4.02926829 6.14285714,3.02195122 Z"/>
                </g>
                <path d="M26.4285714,39.1414634 C24.5714286,44.1780488 22,45.1853659 17,47.7756098 C12.1428571,45.3292683 9.42857143,44.1780488 7.57142857,39.1414634 C5.71428571,40.2926829 4.28571429,41.8756098 3,43.7463415 C5,45.7609756 7.14285714,48.7829268 7.14285714,52.6682927 L7.14285714,56.1219512 L27,56.1219512 L27,52.6682927 C27,48.7829268 29,45.7609756 31.1428571,43.7463415 C29.8571429,41.8756098 28.2857143,40.4365854 26.4285714,39.1414634 Z" id="XMLID_2141_" stroke="#45413C" stroke-width="1.44" stroke-linecap="round" stroke-linejoin="round"/>
            </g>
        </g>
    </g>
</svg>