<?xml version="1.0" encoding="UTF-8"?>
<!-- Generator: Adobe Illustrator 22.1.0, SVG Export Plug-In . SVG Version: 6.00 Build 0)  -->
<svg version="1.1" id="Layer_1" xmlns="http://www.w3.org/2000/svg" xmlns:xlink="http://www.w3.org/1999/xlink" x="0px" y="0px" viewBox="0 0 139 35" style="enable-background:new 0 0 139 35;" xml:space="preserve">
<style type="text/css">
	.st0{fill:#0579B2;}
	.st1{fill:#FFC400;}
	.st2{fill:#F03A47;}
	.st3{fill:#00CCB0;}
</style>
<title>logo-survey-compare</title>
<desc>Created with Sketch.</desc>
<g>
	<path d="M45.9,7.7c-2-0.4-2.4-0.7-2.4-1.4v0c0-0.5,0.5-0.9,1.4-0.9c1.3,0,2.7,0.5,4,1.4l2-2.8c-1.5-1.2-3.4-1.9-5.8-1.9   c-3.4,0-5.5,1.9-5.5,4.5v0c0,2.9,2.3,3.7,5.3,4.4c1.9,0.4,2.4,0.8,2.4,1.4v0c0,0.6-0.6,1-1.6,1c-1.6,0-3.2-0.6-4.6-1.7l-2.2,2.6   c1.7,1.6,4.1,2.3,6.6,2.3c3.4,0,5.7-1.7,5.7-4.6v0C51.2,9.5,49.1,8.4,45.9,7.7z"/>
	<path d="M61.2,10.3c0,2-1,2.9-2.6,2.9c-1.6,0-2.6-1-2.6-3V2.4h-4v7.9c0,4.4,2.5,6.5,6.5,6.5s6.6-2,6.6-6.6V2.4h-4V10.3z"/>
	<path d="M79.1,7.3L79.1,7.3c0-1.4-0.4-2.5-1.3-3.3c-0.9-1-2.4-1.5-4.6-1.5h-6.7v14.1h3.9v-4.3h1.7h0l2.8,4.3h4.5l-3.4-4.9   C78,10.9,79.1,9.4,79.1,7.3z M75.2,7.5c0,1-0.8,1.7-2.1,1.7h-2.6V5.8h2.6C74.4,5.8,75.2,6.4,75.2,7.5L75.2,7.5L75.2,7.5z"/>
	<polygon points="86.3,11.3 83.1,2.4 78.7,2.4 84.5,16.6 88.1,16.6 93.8,2.4 89.5,2.4  "/>
	<polygon points="98.5,11 105.3,11 105.3,7.9 98.5,7.9 98.5,5.7 106,5.7 106,2.4 94.6,2.4 94.6,16.5 106.1,16.5 106.1,13.2    98.5,13.2  "/>
	<polygon points="117,2.4 114.1,7.5 111.2,2.4 106.7,2.4 112.1,11.2 112.1,16.5 116,16.5 116,11.2 121.4,2.4  "/>
	<path d="M46.3,29.3c-2,0-3.4-1.7-3.4-3.8v0c0-2.1,1.4-3.7,3.4-3.7c1.4,0,2.3,0.6,3.1,1.7l3-2.3c-1.3-1.7-3.1-3-6-3   c-4.3,0-7.5,3.2-7.5,7.4v0c0,4.2,3.3,7.3,7.3,7.3c3.1,0,4.9-1.4,6.3-3.2l-3-2.1C48.7,28.6,47.8,29.3,46.3,29.3z"/>
	<polygon points="75.8,23.9 72.4,18.4 68.2,18.4 68.2,32.6 72.1,32.6 72.1,24.5 75.7,30 75.8,30 79.4,24.5 79.4,32.6 83.3,32.6    83.3,18.4 79.1,18.4  "/>
	<path d="M96.8,23.5L96.8,23.5c0-3.2-2.3-5-5.9-5h-6.1v14.2h3.9v-4.1h1.9C94.3,28.6,96.8,26.8,96.8,23.5z M92.9,23.6   c0,1.1-0.8,1.8-2.2,1.8h-1.9v-3.7h1.8C92.1,21.7,92.9,22.4,92.9,23.6L92.9,23.6z"/>
	<path d="M100.7,18.3l-6,14.3h4.1l1-2.5h5.5l1,2.5h4.2l-6-14.3H100.7z M101,27l1.6-4l1.6,4H101z"/>
	<path d="M123.9,23.3L123.9,23.3c0-1.4-0.4-2.5-1.3-3.4c-0.9-1-2.4-1.5-4.6-1.5h-6.7v14.2h3.9v-4.3h1.7h0l2.8,4.3h4.5l-3.4-4.9   C122.7,26.9,123.9,25.5,123.9,23.3z M119.9,23.6c0,1-0.8,1.7-2.1,1.7h-2.6v-3.4h2.6C119.1,21.8,119.9,22.4,119.9,23.6L119.9,23.6z"/>
	<polygon points="129.1,29.3 129.1,27 135.9,27 135.9,23.9 129.1,23.9 129.1,21.8 136.6,21.8 136.6,18.4 125.3,18.4 125.3,32.6    136.8,32.6 136.8,29.3  "/>
	<path d="M59.8,18.3c-4.2,0-7.4,3.2-7.4,7.1v0c0,3.9,3.1,7.1,7.3,7.1s7.4-3.2,7.4-7.1v0C67.1,21.5,64,18.3,59.8,18.3z M63.3,25.5   c0,2-1.4,3.6-3.5,3.6c-2.1,0-3.5-1.7-3.5-3.7v0c0-2,1.4-3.6,3.5-3.6C61.8,21.7,63.3,23.5,63.3,25.5L63.3,25.5L63.3,25.5z"/>
	<polygon class="st0" points="2.9,2.4 2.9,10.8 2.9,24.3 2.9,32.6 7,28.4 11.2,24.3 11.2,10.8 7,6.6  "/>
	<polygon class="st1" points="2.9,2.4 7,6.6 11.2,10.8 24.7,10.8 28.9,6.6 33,2.4  "/>
	<polygon class="st2" points="33,2.4 28.9,6.6 24.7,10.8 24.7,24.3 28.9,28.4 33,32.6  "/>
	<polygon class="st3" points="11.2,24.3 7,28.4 2.9,32.6 11.2,32.6 24.7,32.6 33,32.6 28.9,28.4 24.7,24.3  "/>
</g>
</svg>