<svg id="Layer_1" data-name="Layer 1" xmlns="http://www.w3.org/2000/svg" viewBox="0 0 128 80"><title>LOGOS-ALL</title><path id="path3996" d="M21.62,36a6.38,6.38,0,0,0-4.39,2A17.72,17.72,0,0,1,14,40.47c-.06,0-.06.09,0,.09H25.68a6.19,6.19,0,0,0,4.74-2,16.64,16.64,0,0,1,3.35-2.44c.14-.05.11-.14,0-.14Zm20,0a6.39,6.39,0,0,0-4.39,2A17.72,17.72,0,0,1,34,40.47c-.06,0-.06.09,0,.09H45.66a6.19,6.19,0,0,0,4.74-2,16.24,16.24,0,0,1,3.32-2.44c.14-.05.13-.14,0-.14Zm20,0a6.39,6.39,0,0,0-4.39,2A17.72,17.72,0,0,1,54,40.47c-.06,0-.05.09,0,.09H65.64a6.14,6.14,0,0,0,4.72-2,16.67,16.67,0,0,1,3.35-2.44c.14-.05.13-.14,0-.14Zm20,0a6.33,6.33,0,0,0-4.37,2,18.2,18.2,0,0,1-3.21,2.53c-.06,0-.05.09,0,.09H85.59a6.19,6.19,0,0,0,4.74-2,16.67,16.67,0,0,1,3.35-2.44c.14-.05.1-.14,0-.14Zm20,0a6.39,6.39,0,0,0-4.39,2,17.72,17.72,0,0,1-3.18,2.53c-.06,0-.06.09,0,.09h11.64a6.19,6.19,0,0,0,4.74-2,16.27,16.27,0,0,1,3.32-2.44c.14-.05.13-.14,0-.14Z" style="fill:#1a5ca3;stroke:#fff;stroke-miterlimit:11.473999977111816;stroke-width:0.07874999940395355px"/><path id="path4006" d="M62.27,13.89c-4.25,0-8.39,1.26-8.39,5.48,0,7.31,12.75,3.45,12.75,7.92,0,1.46-2.26,2-4.09,2a14.59,14.59,0,0,1-8.41-2.21V30.8a27.49,27.49,0,0,0,8.2,1c4.4,0,8.53-1.14,8.53-5.46,0-7.63-12.75-4.2-12.75-7.94,0-1.51,2-2,3.83-2,3,0,6.25.88,8,2.53v-3.9A28.08,28.08,0,0,0,62.27,13.89Zm22.53,0c-7.66,0-12.73,3.68-12.73,9.29,0,5.15,4.65,8.6,11.62,8.6A27.27,27.27,0,0,0,90.31,31V26.62a7.61,7.61,0,0,1-5.76,2.46c-4.11,0-6.92-2.56-6.92-6.25s2.91-6.3,7-6.3a7.49,7.49,0,0,1,5.44,2.21V14.4A27.11,27.11,0,0,0,84.8,13.94Zm17.86,0c-6.6,0-11.27,3.8-11.27,9.15s4.19,8.73,10.43,8.73c6.63,0,11.2-3.7,11.2-9.08S108.88,13.94,102.67,13.94Zm-88,.53v4.11c1.43-1.11,4.44-1.53,7.71-1.56V28.25c0,1.63-.14,2.1-.84,3h6.48c-.73-.85-.84-1.32-.84-3V16.94c2.84,0,6.23.54,7.67,1.65V14.47Zm21.93,0c.68.85.81,1.34.81,3v10.8c0,1.63-.12,2.12-.77,3H52.33V27.13c-2.15,1.53-6.24,1.54-7.9,1.51H42.15V24h1.67a18.68,18.68,0,0,1,4.37.49V21a17.49,17.49,0,0,1-4.37.49H42.15V17h2.28c2,0,5.57.42,6.9,1.53V14.47Zm65.6,2c3.46,0,5.74,2.86,5.74,6.39s-2.28,6.39-5.74,6.39-5.76-2.86-5.76-6.39S98.72,16.47,102.23,16.47Z" style="fill:#ee333e;stroke:#fff;stroke-miterlimit:3.864000082015991;stroke-width:0.029999999329447746px"/><path d="M77.86,65.35a5.6,5.6,0,0,1-2.62-2.49,7,7,0,0,1-.69-3c-.08-2.83,0-5.66,0-8.49,0-.93-.25-1.43-1.25-1.33-.81.08-.6-.52-.62-.95s-.07-.87.63-.86q2.68,0,5.36,0c.77,0,.66.47.66.94,0,3.71,0,7.41,0,11.12,0,2.49,1.84,3.8,4.24,3.12A5,5,0,0,0,86.5,61a6.65,6.65,0,0,0,1-3.55c0-2.09,0-4.18,0-6.27,0-.77-.31-1.17-1.08-1.07s-.73-.5-.78-1,.2-.81.81-.8c1.62,0,3.24.06,4.85,0,.81,0,.94.28.93,1,0,4.55,0,9.1,0,13.65,0,.67,0,1.12.89,1s.65.46.67.93,0,.9-.74.88c-1.48,0-3-.07-4.45,0-.87,0-1.27-.17-1.08-1.1a6.56,6.56,0,0,0,0-1.05c0,.13-.49.47-.59.55a8.56,8.56,0,0,1-5.59,2.06A8.33,8.33,0,0,1,77.86,65.35Z" style="fill:#329984"/><path d="M44,64.95A10.49,10.49,0,0,1,41.35,63a8.11,8.11,0,0,1-2.07-3.39,9.29,9.29,0,0,1-.33-3.4,8.4,8.4,0,0,1,5.87-7.6,11,11,0,0,1,11.33,1.59,8.2,8.2,0,0,1,3,8.76,8.84,8.84,0,0,1-5.28,6.13A11.9,11.9,0,0,1,44,64.95Zm10-7.46A14.56,14.56,0,0,0,53.49,53a4.34,4.34,0,0,0-4.21-3.3,4.19,4.19,0,0,0-4.4,3,13.14,13.14,0,0,0,.1,8.71,4,4,0,0,0,4.07,2.73,4.11,4.11,0,0,0,4.08-2.42A10.15,10.15,0,0,0,54,57.49Z" style="fill:#329984"/><path d="M65.24,66a4.72,4.72,0,0,1-2.67-1.62,4.61,4.61,0,0,1-.79-2.76c0-3.5,0-7,0-10.5,0-.95-.28-1.19-1.12-1.06a4.28,4.28,0,0,1-.81,0c-.5,0-1.1.21-1.07-.72,0-.7.08-1.06.94-1.13,2.94-.23,3.38-1,4.21-4.68.14-.64.31-.71.82-.73,1.82,0,1.82-.06,1.82,1.77,0,1,0,2,0,2.93,0,.65.22.8.82.78,1.08,0,2.16,0,3.23,0,.79,0,.64.47.65.93s.08.94-.68.9c-1.11-.06-2.22,0-3.33,0-.53,0-.69.17-.69.7,0,3.9,0,7.81,0,11.71a1.48,1.48,0,0,0,1.07,1.62,1.71,1.71,0,0,0,1.9-.56,4.24,4.24,0,0,0,.68-1.22c.17-.34,0-.92.49-1a5.68,5.68,0,0,1,1.71,0c.45.06.27.47.24.75a4.49,4.49,0,0,1-1.82,3.14,6.5,6.5,0,0,1-4.37,1A8.25,8.25,0,0,1,65.24,66Z" style="fill:#329984"/><path d="M95.48,62.69c0-.61,0-1.22,0-1.82,0-.35-.25-.9.33-1a1.32,1.32,0,0,1,1.52.45,7.66,7.66,0,0,0,4.59,3.4,5.41,5.41,0,0,0,4.55-.62,2,2,0,0,0-.27-3.69c-1.8-.88-3.8-1.07-5.7-1.61a16,16,0,0,1-2.56-.89,4.08,4.08,0,0,1-2.62-3.64,4.58,4.58,0,0,1,2.5-4.41,10.27,10.27,0,0,1,8.87-.48c.57.2,1.1.67,1.6-.24.27-.49,1-.24,1.52-.18s.29.59.3.92c0,.94,0,1.89,0,2.83,0,.35.3.91-.3,1a1.41,1.41,0,0,1-1.49-.32,7.47,7.47,0,0,0-3.47-2.5,6,6,0,0,0-3.48-.14c-.9.27-1.69.74-1.78,1.81s.74,1.49,1.58,1.81c1.93.74,4,.9,6,1.52.45.14.9.28,1.33.46,1.72.72,3.12,1.73,3.31,3.8a5.17,5.17,0,0,1-2.59,5.3c-3.26,1.92-6.66,1.83-10.09.46-.74-.3-1.4-.66-1.83.51-.21.57-1,.27-1.47.24s-.29-.46-.29-.73C95.46,64.17,95.47,63.43,95.48,62.69Z" style="fill:#329984"/><path d="M28.72,65.68c-2.76,0-5.53,0-8.29,0-.73,0-.91-.24-.91-.92s.18-.94.91-.91c1.26,0,1.48-.21,1.49-1.45q0-7.89,0-15.77c0-1.19-.21-1.43-1.42-1.4-.76,0-1-.21-1-1s.3-.88,1-.87q3.84.05,7.68,0c.68,0,1,.15.94.89s-.14,1-.89.94c-1.32,0-1.43.12-1.43,1.46q0,7.89,0,15.77c0,1.23.28,1.52,1.54,1.59a14.61,14.61,0,0,0,3.62-.26,5.27,5.27,0,0,0,4.39-4.09c.24-1,.87-.74,1.45-.7s.33.64.33,1c0,1.65-.18,3.3-.24,4.95,0,.6-.23.79-.85.79C34.24,65.66,31.48,65.68,28.72,65.68Z" style="fill:#329984"/></svg>