<svg id="Layer_1" data-name="Layer 1" xmlns="http://www.w3.org/2000/svg" viewBox="0 0 133 80"><title>LOGOS-ALL</title><path d="M72.41,49a3.07,3.07,0,0,0-.18,1.6c0,4.37,0,8.73,0,13.1,0,1-.26,1.29-1.23,1.24-1.51-.08-3,0-4.55,0-.73,0-1-.15-1-1q0-18.83,0-37.65c0-.72.21-1,.94-.94,1.52,0,3,.06,4.55,0,.85,0,1,.33,1,1.05s0,1.65,0,2.41c.3.18.43.06.54-.09C76.23,23,88.28,23,92.65,31.18c3.3,6.15,1.95,14.65-3,18.85C85.3,53.67,77.24,54.31,72.41,49ZM72,38.75a7.87,7.87,0,1,0,15.73.06A7.87,7.87,0,1,0,72,38.75Z" style="fill:#ec1f27"/><path d="M51.33,24.78a13.19,13.19,0,0,1,11.88,8,13.65,13.65,0,0,1-2,15.22c-4.81,5.81-14.58,6.61-20.74,1.85a14.27,14.27,0,0,1-2.77-19.07C40.38,26.93,44.82,24.77,51.33,24.78Zm-1.34,6a7.78,7.78,0,0,0-8,7.91,7.88,7.88,0,0,0,7.92,8.14,7.75,7.75,0,0,0,7.85-8A7.67,7.67,0,0,0,50,30.81Z" style="fill:#ec1f27"/><path d="M48.3,17.08a7.24,7.24,0,0,1-3.92,6.32,16.14,16.14,0,0,1-8.61,2c-1.1,0-1.37.3-1.37,1.38,0,8,0,16,.05,24,0,1.13-.25,1.54-1.43,1.46a30.58,30.58,0,0,0-4.27,0c-1.11.08-1.47-.2-1.46-1.4.06-8,0-16,.06-24,0-1.13-.25-1.48-1.42-1.45-3.17.09-6.34,0-9.51.06-1.08,0-1.32-.32-1.26-1.31a32,32,0,0,0,0-4c-.06-.93.28-1.13,1.16-1.12q10.61,0,21.23,0A29.75,29.75,0,0,0,46,18,24.63,24.63,0,0,0,48.3,17.08Z" style="fill:#ec1f27"/><path d="M107.5,52.42c-3.63,0-6.93-.86-9.68-3.36-.6-.55-.74-.89,0-1.48a34.45,34.45,0,0,0,3-2.83c.59-.62.93-.57,1.52,0a7.22,7.22,0,0,0,7.08,2.38,6.18,6.18,0,0,0,1.41-.51,2.54,2.54,0,0,0,0-4.73A24.36,24.36,0,0,0,106,40.57c-1-.26-2-.49-2.91-.8-2.85-.92-4.82-2.67-5.14-5.8A7.67,7.67,0,0,1,101.83,26a13.8,13.8,0,0,1,9.18-1.6,11.34,11.34,0,0,1,6.42,2.87c.73.68,1,1.18,0,1.9a26.88,26.88,0,0,0-2.77,2.47c-.56.55-.89.67-1.49,0a5.82,5.82,0,0,0-5.74-1.85,4.89,4.89,0,0,0-1.29.44,2.38,2.38,0,0,0-1.45,2.17,2.18,2.18,0,0,0,1.52,2.09,33.32,33.32,0,0,0,5,1.37,33.23,33.23,0,0,1,3.27,1A6.74,6.74,0,0,1,119.17,43a7.48,7.48,0,0,1-3.66,7.48A15.09,15.09,0,0,1,107.5,52.42Z" style="fill:#ec1f27"/><path d="M112.59,17.32c0,.64,0,1.28,0,1.93,0,1.59-.59,2.17-2.13,2.19s-2.24-.59-2.27-2.22c0-.73,0-1.47,0-2.2,0-.5.12-.76.69-.74s.59.3.59.71c0,.73,0,1.47,0,2.2s0,1.22.89,1.23,1-.59,1-1.29c0-1.33,0-2.66,0-4,0-.43-.14-1,.6-1s.6.52.61.95C112.6,15.85,112.59,16.58,112.59,17.32Z" style="fill:#ec1f27"/><path d="M116.07,16.2a1.81,1.81,0,0,0,1.51-.31c.57-.3.95.16.69.51-.93,1.27-.11,2.63-.37,3.92-.08.41.15.94-.62.94s-.58-.54-.59-1c0-.83.18-1.8-1.24-1.32-.43.15-.78.35-.77.83s.41.64.87.63c.26,0,.58-.09.6.33s-.23.46-.51.53c-.94.24-1.81.1-2.19-.86a1.4,1.4,0,0,1,1-2,12,12,0,0,1,1.48-.26c.25,0,.62.05.64-.34a.67.67,0,0,0-.57-.68,1.27,1.27,0,0,0-1.27.31c-.33.32-.87.39-1.07,0s.25-.71.6-.94A3,3,0,0,1,116.07,16.2Z" style="fill:#ec1f27"/><path d="M104.17,18.56c.1,0,.67-.28.84.19.24.7-.41.48-.76.59s-.25.43-.13.66a1.07,1.07,0,0,0,1.83.07,2.07,2.07,0,0,0-.09-2.46c-.57-.72-1.27-.55-1.86.13a.72.72,0,0,1-1,.08c-.34-.27,0-.58.18-.8a2.47,2.47,0,0,1,3-.54,2.57,2.57,0,0,1,1.21,3.07,2.25,2.25,0,0,1-2.33,1.92,2.17,2.17,0,0,1-2.27-1.79C102.46,18.53,103,18.38,104.17,18.56Z" style="fill:#ec1f27"/><path d="M97.75,18.79c0-.46,0-.92,0-1.38,0-1,.16-1.63,1.24-.83.45.33.52-.13.76-.22a1.56,1.56,0,0,1,2.35,1.52c0,.82,0,1.65,0,2.48,0,.44.13.93-.63.91s-.58-.55-.6-1c0-.64,0-1.29,0-1.93,0-.49,0-1.12-.72-1.12a1.06,1.06,0,0,0-1,1.08c-.06.73,0,1.47,0,2.2,0,.38,0,.73-.54.73s-.78-.12-.76-.69S97.76,19.39,97.75,18.79Z" style="fill:#ec1f27"/><path d="M102.08,14.19c-.76.4-1.68-.08-2.75.45a8.93,8.93,0,0,0,1.91.16c.4-.06.78-.24.8.29a.58.58,0,0,1-.78.55,2.57,2.57,0,0,0-2,0c-.5.15-.86-.27-.91-.79a.84.84,0,0,1,.85-1c.94,0,1.88,0,2.82,0Z" style="fill:#ec1f27"/><path d="M118.6,14c-.52.34-.37,1.41-1.35,1.18-.41-.09-.37-.38-.28-.62C117.25,13.83,117.89,13.86,118.6,14Z" style="fill:#ec1f27"/></svg>